<?xml version="1.0" encoding="UTF-8"?>
<svg width="512px" height="512px" viewBox="0 0 512 512" version="1.1" xmlns="http://www.w3.org/2000/svg" xmlns:xlink="http://www.w3.org/1999/xlink">
    <!-- Generator: Sketch 54.1 (76490) - https://sketchapp.com -->
    <title>add</title>
    <desc>Created with Sketch.</desc>
    <g id="add" stroke="none" stroke-width="1" fill="none" fill-rule="evenodd">
        <path d="M280.5,231 L486.535749,231 C499.770839,231 510.5,241.745166 510.5,255 C510.5,268.254834 499.770839,279 486.535749,279 L280.5,279 L280.5,486.035749 C280.5,499.270839 269.754834,510 256.5,510 C243.245166,510 232.5,499.270839 232.5,486.035749 L232.5,279 L26.4642512,279 C13.2291607,279 2.5,268.254834 2.5,255 C2.5,241.745166 13.2291607,231 26.4642512,231 L232.5,231 L232.5,25.9642512 C232.5,12.7291607 243.245166,2 256.5,2 C269.754834,2 280.5,12.7291607 280.5,25.9642512 L280.5,231 Z" id="Combined-Shape" fill="#282828"></path>
    </g>
</svg>