<?xml version="1.0" encoding="UTF-8"?>
<svg width="512px" height="512px" viewBox="0 0 512 512" version="1.1" xmlns="http://www.w3.org/2000/svg" xmlns:xlink="http://www.w3.org/1999/xlink">
    <!-- Generator: Sketch 52.6 (67491) - http://www.bohemiancoding.com/sketch -->
    <title>add</title>
    <desc>Created with Sketch.</desc>
    <g id="add" stroke="none" stroke-width="1" fill="none" fill-rule="evenodd">
        <path d="M286.915684 286.208577L286.915684 450.341846C286.915684 459.239838 279.702436 466.453087 270.804443 466.453087L242.609771 466.453087C233.711778 466.453087 226.498529 459.239838 226.498529 450.341846L226.49853 286.208577 62.365261 286.208577C53.467268 286.208577 46.25402 278.995329 46.25402 270.097336L46.25402 241.902664C46.25402 233.004671 53.467268 225.791423 62.365261 225.791423L226.49853 225.791423 226.498529 61.658154C226.498529 52.760162 233.711778 45.546913 242.609771 45.546913L270.804443 45.546913C279.702436 45.546913 286.915684 52.760162 286.915684 61.658154L286.915684 225.791423 451.048952 225.791423C459.946945 225.791423 467.160194 233.004671 467.160194 241.902664L467.160194 270.097336C467.160194 278.995329 459.946945 286.208577 451.048953 286.208577L286.915684 286.208577Z" id="Combined-Shape" fill="#17191D" ></path>
    </g>
</svg>
