<?xml version="1.0" encoding="UTF-8"?>
<svg width="512px" height="512px" viewBox="0 0 512 512" version="1.1" xmlns="http://www.w3.org/2000/svg" xmlns:xlink="http://www.w3.org/1999/xlink">
    <!-- Generator: Sketch 52.6 (67491) - http://www.bohemiancoding.com/sketch -->
    <title>attach</title>
    <desc>Created with Sketch.</desc>
    <defs>
        <path d="M97.7825527,434.128604 C48.253998,383.024256 49.1770957,300.61342 98.9574043,249.694709 L276.761779,67.8207363 C314.326514,29.3947832 375.387432,29.3913926 412.955557,67.8207363 C450.159189,105.875416 450.204115,167.275396 412.955557,205.375002 L257.962459,363.761268 C232.655682,389.646146 191.308705,389.285045 166.430842,362.915307 C142.463361,337.511049 143.232186,297.244834 167.661639,272.255928 L289.506291,147.790322 C294.746502,142.438221 303.33326,142.346674 308.685361,147.586037 L328.063631,166.555736 C333.41658,171.795947 333.507279,180.382705 328.267916,185.734807 L206.435979,310.188545 C202.255338,314.464971 201.99765,321.570873 205.886697,325.693873 C209.59265,329.621912 215.418592,329.687182 219.184729,325.833736 L374.177826,167.448318 C390.802908,150.442639 390.802908,122.755643 374.168502,105.740639 C357.902826,89.1036895 331.822139,89.0952129 315.549682,105.740639 L137.744459,287.613764 C108.277385,317.75642 107.823041,366.547514 136.7349,396.37908 C165.563689,426.125881 212.163592,426.163178 241.045783,396.62151 L386.893518,247.434857 C392.12949,242.078518 400.716248,241.981885 406.072588,247.217857 L425.46442,266.174842 C430.82076,271.410814 430.91824,279.997572 425.68142,285.353912 L279.833686,434.539717 C229.333717,486.194193 147.647627,485.582186 97.7825527,434.128604 Z" id="path-1"></path>
    </defs>
    <g id="attach" stroke="none" stroke-width="1" fill="none" fill-rule="evenodd">
        <mask id="mask-2" fill="white">
            <use xlink:href="#path-1"></use>
        </mask>
        <use id="Mask" fill="#17191D" xlink:href="#path-1"></use>
    </g>
</svg>