<?xml version="1.0" encoding="UTF-8"?>
<svg width="512px" height="512px" viewBox="0 0 512 512" version="1.1" xmlns="http://www.w3.org/2000/svg" xmlns:xlink="http://www.w3.org/1999/xlink">
    <!-- Generator: Sketch 54.1 (76490) - https://sketchapp.com -->
    <title>attach</title>
    <desc>Created with Sketch.</desc>
    <g id="attach" stroke="none" stroke-width="1" fill="none" fill-rule="evenodd">
        <path d="M328.743696,359.739452 C328.743696,404.474517 292.478761,440.739452 247.743696,440.739452 C203.008632,440.739452 166.743696,404.474517 166.743696,359.739452 L166.743696,132.739452 C166.743696,119.484618 177.488862,108.739452 190.743696,108.739452 C203.99853,108.739452 214.743696,119.484618 214.743696,132.739452 L214.743696,359.739452 C214.743696,377.964849 229.5183,392.739452 247.743696,392.739452 C265.969093,392.739452 280.743696,377.964849 280.743696,359.739452 L280.743696,117.739452 C280.743696,80.7363742 250.746775,50.7394524 213.743696,50.7394524 C176.740618,50.7394524 146.743696,80.7363742 146.743696,117.739452 L146.743696,360.739452 C146.743696,416.24407 191.739079,461.239452 247.243696,461.239452 C302.748314,461.239452 347.743696,416.24407 347.743696,360.739452 L347.743696,132.739452 C347.743696,119.484618 358.488862,108.739452 371.743696,108.739452 C384.99853,108.739452 395.743696,119.484618 395.743696,132.739452 L395.743696,364.571484 C395.743696,365.437151 395.697865,366.292113 395.608495,367.134077 C392.259516,446.181951 327.115541,509.239452 247.243696,509.239452 C165.229411,509.239452 98.7436963,442.753738 98.7436963,360.739452 L98.7436963,117.739452 C98.7436963,54.2267062 150.23095,2.73945244 213.743696,2.73945244 C277.256443,2.73945244 328.743696,54.2267062 328.743696,117.739452 L328.743696,359.739452 Z" id="Combined-Shape" fill="#282828"></path>
    </g>
</svg>