<?xml version="1.0" encoding="UTF-8"?>
<svg width="512px" height="512px" viewBox="0 0 512 512" version="1.1" xmlns="http://www.w3.org/2000/svg" xmlns:xlink="http://www.w3.org/1999/xlink">
    <!-- Generator: Sketch 54.1 (76490) - https://sketchapp.com -->
    <title>attach</title>
    <desc>Created with Sketch.</desc>
    <g id="attach" stroke="none" stroke-width="1" fill="none" fill-rule="evenodd">
        <g id="Group" transform="translate(247.089781, 256.186455) rotate(38.000000) translate(-247.089781, -256.186455) translate(98.589781, 2.686455)" fill="#282828">
            <path d="M230,357 C230,401.735065 193.735065,438 149,438 C104.264935,438 68,401.735065 68,357 L68,130 C68,116.745166 78.745166,106 92,106 C105.254834,106 116,116.745166 116,130 L116,357 C116,375.225397 130.774603,390 149,390 C167.225397,390 182,375.225397 182,357 L182,115 C182,77.9969218 152.003078,48 115,48 C77.9969218,48 48,77.9969218 48,115 L48,358 C48,413.504617 92.9953826,458.5 148.5,458.5 C204.004617,458.5 249,413.504617 249,358 L249,130 C249,116.745166 259.745166,106 273,106 C286.254834,106 297,116.745166 297,130 L297,361.832031 C297,362.697698 296.954168,363.552661 296.864799,364.394625 C293.51582,443.442499 228.371844,506.5 148.5,506.5 C66.4857147,506.5 0,440.014285 0,358 L0,115 C0,51.4872538 51.4872538,0 115,0 C178.512746,0 230,51.4872538 230,115 L230,357 Z" id="Combined-Shape"></path>
        </g>
    </g>
</svg>