<?xml version="1.0" encoding="UTF-8"?>
<svg width="512px" height="512px" viewBox="0 0 512 512" version="1.1" xmlns="http://www.w3.org/2000/svg" xmlns:xlink="http://www.w3.org/1999/xlink">
    <!-- Generator: Sketch 54.1 (76490) - https://sketchapp.com -->
    <title>barcode</title>
    <desc>Created with Sketch.</desc>
    <g id="barcode" stroke="none" stroke-width="1" fill="none" fill-rule="evenodd">
        <g id="icons8-barcode" transform="translate(0.000000, 92.000000)" fill="#282828" fill-rule="nonzero">
            <path d="M0,0 L0,328.715953 L36.5714286,328.715953 L36.5714286,0 L0,0 Z M73.1428571,0 L73.1428571,328.715953 L182.857143,328.715953 L182.857143,0 L73.1428571,0 Z M219.428571,0 L219.428571,328.715953 L256,328.715953 L256,0 L219.428571,0 Z M292.571429,0 L292.571429,328.715953 L365.714286,328.715953 L365.714286,0 L292.571429,0 Z M402.285714,0 L402.285714,328.715953 L438.857143,328.715953 L438.857143,0 L402.285714,0 Z M475.428571,0 L475.428571,328.715953 L512,328.715953 L512,0 L475.428571,0 Z" id="Shape"></path>
        </g>
    </g>
</svg>