<?xml version="1.0" encoding="UTF-8"?>
<svg width="512px" height="512px" viewBox="0 0 512 512" version="1.1" xmlns="http://www.w3.org/2000/svg">
    <!-- Generator: Sketch 54.1 (76490) - https://sketchapp.com -->
    <title>barcode</title>
    <desc>Created with Sketch.</desc>
    <g id="barcode" stroke="none" stroke-width="1" fill="none" fill-rule="evenodd">
        <g id="icons8-barcode" fill="#282828" fill-rule="nonzero">
            <path d="M0 92L0 420.715953 36.571429 420.715953 36.571429 92 0 92ZM73.142857 92L73.142857 420.715953 182.857143 420.715953 182.857143 92 73.142857 92ZM219.428571 92L219.428571 420.715953 256 420.715953 256 92 219.428571 92ZM292.571429 92L292.571429 420.715953 365.714286 420.715953 365.714286 92 292.571429 92ZM402.285714 92L402.285714 420.715953 438.857143 420.715953 438.857143 92 402.285714 92ZM475.428571 92L475.428571 420.715953 512 420.715953 512 92 475.428571 92Z"
                  id="Shape"></path>
        </g>
    </g>
</svg>
