<?xml version="1.0" encoding="UTF-8"?>
<svg width="512px" height="512px" viewBox="0 0 512 512" version="1.1" xmlns="http://www.w3.org/2000/svg" xmlns:xlink="http://www.w3.org/1999/xlink">
    <!-- Generator: Sketch 53.2 (72643) - https://sketchapp.com -->
    <title>bars</title>
    <desc>Created with Sketch.</desc>
    <defs>
        <path d="M80.5,152 L431.5,152 C438.956219,152 445,145.931347 445,138.444444 L445,104.555556 C445,97.0686528 438.956219,91 431.5,91 L80.5,91 C73.0437812,91 67,97.0686528 67,104.555556 L67,138.444444 C67,145.931347 73.0437812,152 80.5,152 Z M80.5,287 L431.5,287 C438.956219,287 445,280.931347 445,273.444444 L445,239.555556 C445,232.068653 438.956219,226 431.5,226 L80.5,226 C73.0437812,226 67,232.068653 67,239.555556 L67,273.444444 C67,280.931347 73.0437812,287 80.5,287 Z M80.5,421 L431.5,421 C438.956219,421 445,414.931347 445,407.444444 L445,373.555556 C445,366.068653 438.956219,360 431.5,360 L80.5,360 C73.0437812,360 67,366.068653 67,373.555556 L67,407.444444 C67,414.931347 73.0437812,421 80.5,421 Z" id="path-1"></path>
    </defs>
    <g id="bars" stroke="none" stroke-width="1" fill="none" fill-rule="evenodd">
        <mask id="mask-2" fill="white">
            <use xlink:href="#path-1"></use>
        </mask>
        <use id="Mask" fill="#000000" xlink:href="#path-1"></use>
    </g>
</svg>