<?xml version="1.0" encoding="UTF-8"?>
<svg width="512px" height="512px" viewBox="0 0 512 512" version="1.1" xmlns="http://www.w3.org/2000/svg" xmlns:xlink="http://www.w3.org/1999/xlink">
    <!-- Generator: Sketch 54.1 (76490) - https://sketchapp.com -->
    <title>bars</title>
    <desc>Created with Sketch.</desc>
    <g id="bars" stroke="none" stroke-width="1" fill="none" fill-rule="evenodd">
        <path d="M21.9428571,152 C9.82415178,152 0,141.254834 0,128 C0,114.745166 9.82415178,104 21.9428571,104 L490.057143,104 C502.175848,104 512,114.745166 512,128 C512,141.254834 502.175848,152 490.057143,152 L21.9428571,152 Z M21.9428571,280 C9.82415178,280 0,269.254834 0,256 C0,242.745166 9.82415178,232 21.9428571,232 L490.057143,232 C502.175848,232 512,242.745166 512,256 C512,269.254834 502.175848,280 490.057143,280 L21.9428571,280 Z M21.9428571,408 C9.82415178,408 0,397.254834 0,384 C0,370.745166 9.82415178,360 21.9428571,360 L490.057143,360 C502.175848,360 512,370.745166 512,384 C512,397.254834 502.175848,408 490.057143,408 L21.9428571,408 Z" id="Combined-Shape" fill="#282828"></path>
    </g>
</svg>