<svg width="512px" height="512px" viewBox="0 0 512 512" version="1.1" xmlns="http://www.w3.org/2000/svg" xmlns:xlink="http://www.w3.org/1999/xlink">
    <!-- Generator: Sketch 52.6 (67491) - http://www.bohemiancoding.com/sketch -->
    <title>bell</title>
    <desc>Created with Sketch.</desc>
    <defs>
        <path d="M465.883887,366.059 C443.633887,343.809 415.999887,316.118 415.999887,208 C415.999887,128.606 358.168887,62.731 282.336887,50.17 C286.032606,44.8322036 288.00854,38.492329 287.999887,32 C287.999887,14.327 273.672887,0 255.999887,0 C238.326887,0 223.999887,14.327 223.999887,32 C223.999887,38.75 226.094887,45.008 229.662887,50.17 C153.830887,62.731 95.9998872,128.606 95.9998872,208 C95.9998872,316.118 68.3568872,343.809 46.1068872,366.059 C15.9578872,396.208 37.3248872,448 80.0478872,448 L191.999887,448 C191.999887,483.346 220.653887,512 255.999887,512 C291.345887,512 319.999887,483.346 319.999887,448 L431.942887,448 C474.580887,448 496.093887,396.269 465.883887,366.059 Z M255.999887,472 C260.418165,472 263.999887,475.581722 263.999887,480 C263.999887,484.418278 260.418165,488 255.999887,488 C233.943887,488 215.999887,470.056 215.999887,448 L231.999887,448 C231.999887,461.234 242.765887,472 255.999887,472 Z" id="path-1"/>
    </defs>
    <g id="bell" stroke="none" stroke-width="1" fill="none" fill-rule="evenodd">
        <mask id="mask-2" fill="white">
            <use xlink:href="#path-1"/>
        </mask>
        <use id="Mask" fill="#17191D" xlink:href="#path-1"/>
    </g>
</svg>
