<?xml version="1.0" encoding="UTF-8"?>
<svg width="512px" height="512px" viewBox="0 0 512 512" version="1.1" xmlns="http://www.w3.org/2000/svg" xmlns:xlink="http://www.w3.org/1999/xlink">
    <!-- Generator: Sketch 54.1 (76490) - https://sketchapp.com -->
    <title>body-part</title>
    <desc>Created with Sketch.</desc>
    <g id="body-part" stroke="none" stroke-width="1" fill="none" fill-rule="evenodd">
        <path d="M212.87959,106.72357 L212.755744,106.601632 C201.483231,95.3814979 195,80.24123 195,64 C195,47.75877 201.483231,32.6185021 212.818166,21.3365766 C224.087836,10.2417633 238.961916,4 255,4 C271.038084,4 285.912164,10.2417633 297.244256,21.3983685 C308.516769,32.6185021 315,47.75877 315,64 C315,80.24123 308.516769,95.3814979 297.181834,106.663423 C285.912164,117.758237 271.038084,124 255,124 L254.887311,123.999603 C238.930597,123.887216 224.122391,117.673602 212.87959,106.72357 Z M255.056228,91.9999467 C262.571762,91.9857031 269.393254,89.1157189 274.669593,83.9215828 C279.993878,78.6220385 283,71.601851 283,64 C283,56.398149 279.993878,49.3779615 274.732015,44.1402091 C269.380098,38.8713307 262.537737,36 255,36 C247.462263,36 240.619902,38.8713307 235.330407,44.0784172 C230.006122,49.3779615 227,56.398149 227,64 C227,71.5726327 229.983058,78.5680647 235.269117,83.860399 C240.632046,89.054209 247.503297,91.9327156 255.056228,91.9999467 Z" id="Path" fill="#282828"></path>
        <path d="M328.61688,209.427529 L359.126227,465.154283 C361.397893,484.195192 346.527502,500.945143 327.351562,500.945143 L325.747633,500.945143 C312.169363,500.945143 300.069466,492.375916 295.562143,479.56758 L255.833368,366.671406 L216.02241,479.63623 C211.511019,492.437443 199.41468,501 185.841777,501 L184.080085,501 C165.059388,501 150.237674,484.507358 152.261793,465.594667 L179.722179,209.01403 L87.3271641,192.370993 C72.0875306,189.625891 61,176.362733 61,160.877837 L61,155 C61,137.326888 75.326888,123 93,123 L419,123 C436.673112,123 451,137.326888 451,155 L451,160.825011 C451,176.779456 439.324131,190.006856 424.050965,192.428638 L328.61688,209.427529 Z M418.997977,160.825011 L419,155 L93,155 L93,160.877837 L200.131507,180.175345 C204.067503,180.902709 207.27536,182.983215 209.55484,185.740293 C211.779709,188.495338 213.22992,191.981811 213.22992,195.933554 C213.22992,196.506506 213.177332,197.026633 213.126767,197.597553 L184.080085,469 L185.841777,469 L244.351797,302.976007 C244.768455,301.830103 245.233655,300.686231 246.113489,299.385915 C246.995347,298.136392 248.184641,296.679631 250.411533,295.43214 C251.809155,294.599125 253.777153,294.028205 255.795717,294.028205 C257.81428,294.028205 259.782278,294.599125 261.232488,295.43214 C262.733264,296.210298 263.768839,297.199758 264.545521,298.083567 C266.098884,299.851184 266.772413,301.462358 267.340766,302.971944 L325.747633,468.945143 L327.351562,468.945143 L295.04039,198.115648 C294.987802,197.493934 294.937237,196.868157 294.937237,196.244411 C294.937237,192.343462 296.385425,188.85902 298.612317,186.101943 C300.889774,183.397691 304.152242,181.266391 308.03565,180.589821 L418.997977,160.825011 Z" id="Path" fill="#282828"></path>
    </g>
</svg>