<svg width="40" height="40" viewBox="0 0 40 40" fill="none" xmlns="http://www.w3.org/2000/svg">
<g id="body-part">
<path id="Union" fill-rule="evenodd" clip-rule="evenodd" d="M17.2613 7.76879L17.2707 7.77803C18.122 8.60714 19.2432 9.07762 20.4514 9.08613L20.46 9.08616C21.6744 9.08616 22.8006 8.61355 23.6539 7.77347C24.5122 6.91923 25.0031 5.77283 25.0031 4.54308C25.0031 3.31333 24.5122 2.16694 23.6586 1.31737C22.8006 0.472614 21.6744 0 20.46 0C19.2456 0 18.1194 0.472614 17.2661 1.31269C16.4078 2.16694 15.9169 3.31333 15.9169 4.54308C15.9169 5.77283 16.4078 6.91923 17.2613 7.76879ZM28.5029 37.1741L26.0977 17.0137L33.6213 15.6736C34.8254 15.4827 35.7459 14.4399 35.7459 13.1821V12.7229C35.7459 11.3296 34.6164 10.2002 33.2231 10.2002H7.52274C6.12947 10.2002 5 11.3296 5 12.7229V13.1863C5 14.4071 5.87409 15.4527 7.07552 15.6691L14.3595 16.9811L12.1947 37.2088C12.0351 38.6998 13.2036 40 14.7031 40H14.842C15.912 40 16.8656 39.325 17.2213 38.3158L20.3598 29.4101L23.4918 38.3104C23.8472 39.3201 24.8011 39.9957 25.8715 39.9957H25.998C27.5097 39.9957 28.682 38.6752 28.5029 37.1741Z" fill="#282828"/>
</g>
</svg>
