<?xml version="1.0" encoding="UTF-8"?>
<svg width="512px" height="512px" viewBox="0 0 512 512" version="1.1" xmlns="http://www.w3.org/2000/svg" xmlns:xlink="http://www.w3.org/1999/xlink">
    <!-- Generator: Sketch 52.6 (67491) - http://www.bohemiancoding.com/sketch -->
    <title>calendar</title>
    <desc>Created with Sketch.</desc>
    <defs>
        <path d="M463,160 L39,160 C32.4,160 27,154.6 27,148 L27,112 C27,85.5 48.5,64 75,64 L123,64 L123,12 C123,5.4 128.4,0 135,0 L175,0 C181.6,0 187,5.4 187,12 L187,64 L315,64 L315,12 C315,5.4 320.4,0 327,0 L367,0 C373.6,0 379,5.4 379,12 L379,64 L427,64 C453.5,64 475,85.5 475,112 L475,148 C475,154.6 469.6,160 463,160 Z M39,192 L463,192 C469.6,192 475,197.4 475,204 L475,464 C475,490.5 453.5,512 427,512 L75,512 C48.5,512 27,490.5 27,464 L27,204 C27,197.4 32.4,192 39,192 Z M155,396 C155,389.4 149.6,384 143,384 L103,384 C96.4,384 91,389.4 91,396 L91,436 C91,442.6 96.4,448 103,448 L143,448 C149.6,448 155,442.6 155,436 L155,396 Z M155,268 C155,261.4 149.6,256 143,256 L103,256 C96.4,256 91,261.4 91,268 L91,308 C91,314.6 96.4,320 103,320 L143,320 C149.6,320 155,314.6 155,308 L155,268 Z M283,396 C283,389.4 277.6,384 271,384 L231,384 C224.4,384 219,389.4 219,396 L219,436 C219,442.6 224.4,448 231,448 L271,448 C277.6,448 283,442.6 283,436 L283,396 Z M283,268 C283,261.4 277.6,256 271,256 L231,256 C224.4,256 219,261.4 219,268 L219,308 C219,314.6 224.4,320 231,320 L271,320 C277.6,320 283,314.6 283,308 L283,268 Z M411,396 C411,389.4 405.6,384 399,384 L359,384 C352.4,384 347,389.4 347,396 L347,436 C347,442.6 352.4,448 359,448 L399,448 C405.6,448 411,442.6 411,436 L411,396 Z M411,268 C411,261.4 405.6,256 399,256 L359,256 C352.4,256 347,261.4 347,268 L347,308 C347,314.6 352.4,320 359,320 L399,320 C405.6,320 411,314.6 411,308 L411,268 Z" id="path-1"></path>
    </defs>
    <g id="calendar" stroke="none" stroke-width="1" fill="none" fill-rule="evenodd">
        <mask id="mask-2" fill="white">
            <use xlink:href="#path-1"></use>
        </mask>
        <use id="Mask" fill="#17191D" xlink:href="#path-1"></use>
    </g>
</svg>