<?xml version="1.0" encoding="UTF-8"?>
<svg width="512px" height="512px" viewBox="0 0 512 512" version="1.1" xmlns="http://www.w3.org/2000/svg" xmlns:xlink="http://www.w3.org/1999/xlink">
    <!-- Generator: Sketch 54.1 (76490) - https://sketchapp.com -->
    <title>calendar</title>
    <desc>Created with Sketch.</desc>
    <g id="calendar" stroke="none" stroke-width="1" fill="none" fill-rule="evenodd">
        <path d="M98.4234698,22 C99.6305027,9.8750215 109.86165,0.40625 122.304348,0.40625 C134.747045,0.40625 144.978193,9.8750215 146.185226,22 L365.42347,22 C366.630503,9.8750215 376.86165,0.40625 389.304348,0.40625 C401.747045,0.40625 411.978193,9.8750215 413.185226,22 L470,22 C487.120827,22 501,35.8791728 501,53 L501,481 C501,498.120827 487.120827,512 470,512 L42,512 C24.8791728,512 11,498.120827 11,481 L11,53 C11,35.8791728 24.8791728,22 42,22 L98.4234698,22 Z M146.283892,70.0000084 C145.75963,82.7910864 135.224198,93 122.304348,93 C109.384497,93 98.8490661,82.7910864 98.3248038,70.0000084 L59,70 L59,110.5 L453,110.5 L453,70 L413.283892,70 C412.75963,82.7910864 402.224198,93 389.304348,93 C376.384497,93 365.849066,82.7910864 365.324804,70.0000084 L146.283892,70 Z M453,158.5 L59,158.5 L59,464 L453,464 L453,158.5 Z M189.086957,200.347826 L233.608696,200.347826 L233.608696,244.869565 L189.086957,244.869565 L189.086957,200.347826 Z M278.130435,200.347826 L322.652174,200.347826 L322.652174,244.869565 L278.130435,244.869565 L278.130435,200.347826 Z M367.173913,200.347826 L411.695652,200.347826 L411.695652,244.869565 L367.173913,244.869565 L367.173913,200.347826 Z M100.043478,289.391304 L144.565217,289.391304 L144.565217,333.913043 L100.043478,333.913043 L100.043478,289.391304 Z M189.086957,289.391304 L233.608696,289.391304 L233.608696,333.913043 L189.086957,333.913043 L189.086957,289.391304 Z M278.130435,289.391304 L322.652174,289.391304 L322.652174,333.913043 L278.130435,333.913043 L278.130435,289.391304 Z M367.173913,289.391304 L411.695652,289.391304 L411.695652,333.913043 L367.173913,333.913043 L367.173913,289.391304 Z M100.043478,378.434783 L144.565217,378.434783 L144.565217,422.956522 L100.043478,422.956522 L100.043478,378.434783 Z M189.086957,378.434783 L233.608696,378.434783 L233.608696,422.956522 L189.086957,422.956522 L189.086957,378.434783 Z M278.130435,378.434783 L322.652174,378.434783 L322.652174,422.956522 L278.130435,422.956522 L278.130435,378.434783 Z" id="Combined-Shape" fill="#282828"></path>
    </g>
</svg>