<?xml version="1.0" encoding="UTF-8"?>
<svg width="512px" height="512px" viewBox="0 0 512 512" version="1.1" xmlns="http://www.w3.org/2000/svg" xmlns:xlink="http://www.w3.org/1999/xlink">
    <!-- Generator: Sketch 54.1 (76490) - https://sketchapp.com -->
    <title>chart</title>
    <desc>Created with Sketch.</desc>
    <g id="chart" stroke="none" stroke-width="1" fill="none" fill-rule="evenodd">
        <path d="M465.454545,0 C439.748201,0 418.909091,20.8391098 418.909091,46.5454545 C418.910721,49.1964245 419.138824,51.8424094 419.590912,54.4545466 L341.818182,119.272727 C336.696883,117.37163 331.280904,116.386906 325.818182,116.363636 C316.700332,116.372825 307.785973,119.059778 300.18183,124.090908 L232.590918,90.2727261 C231.101949,65.7256046 210.774042,46.5723803 186.181818,46.5454545 C160.475473,46.5454545 139.636364,67.3845644 139.636364,93.0909091 C139.649535,94.092115 139.695011,95.0926353 139.772719,96.0909079 L67.1363631,144.499991 C60.737079,141.319641 53.6914395,139.655442 46.5454545,139.636364 C20.8391098,139.636364 0,160.475473 0,186.181818 C0,211.888163 20.8391098,232.727273 46.5454545,232.727273 C72.2517993,232.727273 93.0909091,211.888163 93.0909091,186.181818 C93.0767643,185.195775 93.0312866,184.21043 92.9545449,183.227276 L165.5909,134.772727 C171.990186,137.953082 179.035829,139.617284 186.181818,139.636364 C195.299668,139.627175 204.214027,136.940222 211.81817,131.909092 L279.409082,165.727279 C280.898054,190.274398 301.22596,209.42762 325.818182,209.454545 C351.524527,209.454545 372.363636,188.615436 372.363636,162.909091 C372.362007,160.258119 372.133904,157.612133 371.681815,154.999994 L449.454545,90.1818182 C454.575844,92.0829157 459.991824,93.0676392 465.454545,93.0909091 C491.16089,93.0909091 512,72.2517993 512,46.5454545 C512,20.8391098 491.16089,0 465.454545,0 Z M442.181818,186.181818 C429.335273,186.181818 418.909091,196.608 418.909091,209.454545 L418.909091,512 L512,512 L512,209.454545 C512,196.608 501.573818,186.181818 488.727273,186.181818 L442.181818,186.181818 Z M162.909091,232.727273 C150.062545,232.727273 139.636364,243.153455 139.636364,256 L139.636364,512 L232.727273,512 L232.727273,256 C232.727273,243.153455 222.301091,232.727273 209.454545,232.727273 L162.909091,232.727273 Z M302.545455,279.272727 C289.698909,279.272727 279.272727,289.698909 279.272727,302.545455 L279.272727,512 L372.363636,512 L372.363636,302.545455 C372.363636,289.698909 361.937455,279.272727 349.090909,279.272727 L302.545455,279.272727 Z M23.2727273,325.818182 C10.4261818,325.818182 0,336.244364 0,349.090909 L0,512 L93.0909091,512 L93.0909091,349.090909 C93.0909091,336.244364 82.6647273,325.818182 69.8181818,325.818182 L23.2727273,325.818182 Z" id="Shape" fill="#282828"></path>
    </g>
</svg>