<?xml version="1.0" encoding="UTF-8"?>
<svg width="512px" height="512px" viewBox="0 0 512 512" version="1.1" xmlns="http://www.w3.org/2000/svg" xmlns:xlink="http://www.w3.org/1999/xlink">
    <!-- Generator: Sketch 54.1 (76490) - https://sketchapp.com -->
    <title>check-box-empty</title>
    <desc>Created with Sketch.</desc>
    <g id="check-box-empty" stroke="none" stroke-width="1" fill="none" fill-rule="evenodd">
        <path d="M413.919798,429.894737 C422.742808,429.894737 429.894737,422.742808 429.894737,413.919798 L429.894737,101.520992 C429.894737,92.6979818 422.742808,85.5460526 413.919798,85.5460526 L101.520992,85.5460526 C92.6979818,85.5460526 85.5460526,92.6979818 85.5460526,101.520992 L85.5460526,413.919798 C85.5460526,422.742808 92.6979818,429.894737 101.520992,429.894737 L413.919798,429.894737 Z M429.071429,476 L84.9285714,476 C59.0103125,476 38,454.989688 38,429.071429 L38,84.9285714 C38,59.0103125 59.0103125,38 84.9285714,38 L429.071429,38 C454.989688,38 476,59.0103125 476,84.9285714 L476,429.071429 C476,454.989688 454.989688,476 429.071429,476 Z" id="Path" fill="#282828"></path>
    </g>
</svg>