<?xml version="1.0" encoding="UTF-8"?>
<svg width="512px" height="512px" viewBox="0 0 512 512" version="1.1" xmlns="http://www.w3.org/2000/svg" xmlns:xlink="http://www.w3.org/1999/xlink">
    <!-- Generator: Sketch 54.1 (76490) - https://sketchapp.com -->
    <title>check-box</title>
    <desc>Created with Sketch.</desc>
    <g id="check-box" stroke="none" stroke-width="1" fill="none" fill-rule="evenodd">
        <path d="M401.909091,80 L113.090909,80 C95.3606818,80 81,94.3606818 81,112.090909 L81,400.909091 C81,418.639318 95.3606818,433 113.090909,433 L401.909091,433 C419.639318,433 434,418.639318 434,400.909091 L434,112.090909 C434,94.3606818 419.623273,80 401.909091,80 Z M365.116864,203.662318 L243.813227,324.965955 C240.796682,327.9825 236.721136,329.667273 232.469091,329.667273 C228.217045,329.667273 224.125455,327.9825 221.124955,324.965955 L165.72,269.561 C159.446227,263.287227 159.446227,253.1465 165.72,246.872727 C171.993773,240.598955 182.1345,240.598955 188.408273,246.872727 L232.469091,290.933545 L342.428591,180.974045 C348.702364,174.700273 358.843091,174.700273 365.116864,180.974045 C371.390636,187.247818 371.390636,197.388545 365.116864,203.662318 Z" id="Shape" fill="#282828"></path>
    </g>
</svg>