<?xml version="1.0" encoding="UTF-8"?>
<svg width="512px" height="512px" viewBox="0 0 512 512" version="1.1" xmlns="http://www.w3.org/2000/svg" xmlns:xlink="http://www.w3.org/1999/xlink">
    <!-- Generator: Sketch 54.1 (76490) - https://sketchapp.com -->
    <title>chevron-up</title>
    <desc>Created with Sketch.</desc>
    <g id="chevron-up" stroke="none" stroke-width="1" fill="none" fill-rule="evenodd">
        <path d="M255.636786,116.002737 C249.599111,116.09927 243.835865,118.547928 239.567089,122.830348 L7.14652373,355.879444 C1.07481968,361.724718 -1.37100051,370.404609 0.752330209,378.571586 C2.87566093,386.738564 9.23634954,393.116452 17.3813016,395.245522 C25.5262537,397.374593 34.1827338,394.922156 40.0122413,388.834031 L255.999943,172.262232 L471.987649,388.834031 C477.817142,394.922224 486.473655,397.374712 494.618649,395.24565 C502.763643,393.116587 509.124364,386.738666 511.247684,378.571645 C513.371005,370.404625 510.925131,361.724702 504.853357,355.879444 L272.432797,122.830348 C267.986051,118.369514 261.926151,115.906153 255.636786,116.002737 Z" id="Path" fill="#282828"></path>
    </g>
</svg>