<?xml version="1.0" encoding="UTF-8"?>
<svg width="512px" height="512px" viewBox="0 0 512 512" version="1.1" xmlns="http://www.w3.org/2000/svg" xmlns:xlink="http://www.w3.org/1999/xlink">
    <!-- Generator: Sketch 54.1 (76490) - https://sketchapp.com -->
    <title>clipboard</title>
    <desc>Created with Sketch.</desc>
    <g id="clipboard" stroke="none" stroke-width="1" fill="none" fill-rule="evenodd">
        <path d="M255.62963,0 C224.435366,0 198.740741,25.6946328 198.740741,56.8888889 L122.888889,56.8888889 C91.6953875,56.8888889 66,82.5842764 66,113.777778 L66,455.111111 C66,486.304616 91.6953875,512 122.888889,512 L388.37037,512 C419.563876,512 445.259259,486.304616 445.259259,455.111111 L445.259259,113.777778 C445.259259,82.5842764 419.563876,56.8888889 388.37037,56.8888889 L312.518519,56.8888889 C312.518519,25.6946328 286.823893,0 255.62963,0 Z M255.62963,37.9259259 C266.327187,37.9259259 274.592593,46.191324 274.592593,56.8888889 C274.592593,67.5864538 266.327187,75.8518519 255.62963,75.8518519 C244.932072,75.8518519 236.666667,67.5864538 236.666667,56.8888889 C236.666667,46.191324 244.932072,37.9259259 255.62963,37.9259259 Z M122.888889,94.8148148 L198.740741,94.8148148 L198.740741,113.777778 C198.740741,124.245333 207.236148,132.740741 217.703704,132.740741 L293.555556,132.740741 C304.023111,132.740741 312.518519,124.245333 312.518519,113.777778 L312.518519,94.8148148 L388.37037,94.8148148 C399.085013,94.8148148 407.333333,103.063131 407.333333,113.777778 L407.333333,455.111111 C407.333333,465.825754 399.085013,474.074074 388.37037,474.074074 L122.888889,474.074074 C112.174242,474.074074 103.925926,465.825754 103.925926,455.111111 L103.925926,113.777778 C103.925926,103.063131 112.174242,94.8148148 122.888889,94.8148148 Z M179.777778,208.592593 C172.939052,208.495876 166.578013,212.088895 163.130425,217.995811 C159.682838,223.902728 159.682838,231.208383 163.130425,237.1153 C166.578013,243.022217 172.939052,246.615235 179.777778,246.518519 L331.481481,246.518519 C338.320207,246.615235 344.681247,243.022217 348.128834,237.1153 C351.576421,231.208383 351.576421,223.902728 348.128834,217.995811 C344.681247,212.088895 338.320207,208.495876 331.481481,208.592593 L179.777778,208.592593 Z M179.777778,284.444444 C172.939052,284.347728 166.578013,287.940746 163.130425,293.847663 C159.682838,299.754579 159.682838,307.060235 163.130425,312.967152 C166.578013,318.874068 172.939052,322.467087 179.777778,322.37037 L274.592593,322.37037 C281.431318,322.467087 287.792358,318.874068 291.239945,312.967152 C294.687532,307.060235 294.687532,299.754579 291.239945,293.847663 C287.792358,287.940746 281.431318,284.347728 274.592593,284.444444 L179.777778,284.444444 Z M179.777778,360.296296 C172.939052,360.19958 166.578013,363.792598 163.130425,369.699515 C159.682838,375.606431 159.682838,382.912087 163.130425,388.819004 C166.578013,394.72592 172.939052,398.318939 179.777778,398.222222 L331.481481,398.222222 C338.320207,398.318939 344.681247,394.72592 348.128834,388.819004 C351.576421,382.912087 351.576421,375.606431 348.128834,369.699515 C344.681247,363.792598 338.320207,360.19958 331.481481,360.296296 L179.777778,360.296296 Z" id="Shape" fill="#282828"></path>
    </g>
</svg>