<?xml version="1.0" encoding="UTF-8"?>
<svg width="512px" height="512px" viewBox="0 0 512 512" version="1.1" xmlns="http://www.w3.org/2000/svg" xmlns:xlink="http://www.w3.org/1999/xlink">
    <!-- Generator: Sketch 54.1 (76490) - https://sketchapp.com -->
    <title>close</title>
    <desc>Created with Sketch.</desc>
    <g id="close" stroke="none" stroke-width="1" fill="none" fill-rule="evenodd">
        <path d="M222.853796,256.794922 L14.619281,48.5604065 C5.246698,39.1878235 5.246698,23.991864 14.619281,14.619281 C23.991864,5.246698 39.1878235,5.246698 48.5604065,14.619281 L256.794922,222.853796 L465.029437,14.619281 C474.40202,5.246698 489.59798,5.246698 498.970563,14.619281 C508.343146,23.991864 508.343146,39.1878235 498.970563,48.5604065 L290.736047,256.794922 L498.970563,465.029437 C508.343146,474.40202 508.343146,489.59798 498.970563,498.970563 C489.59798,508.343146 474.40202,508.343146 465.029437,498.970563 L256.794922,290.736047 L48.5604065,498.970563 C39.1878235,508.343146 23.991864,508.343146 14.619281,498.970563 C5.246698,489.59798 5.246698,474.40202 14.619281,465.029437 L222.853796,256.794922 Z" id="Combined-Shape" fill="#282828"></path>
    </g>
</svg>