<?xml version="1.0" encoding="UTF-8"?>
<svg width="512px" height="512px" viewBox="0 0 512 512" version="1.1" xmlns="http://www.w3.org/2000/svg" xmlns:xlink="http://www.w3.org/1999/xlink">
    <!-- Generator: Sketch 52.6 (67491) - http://www.bohemiancoding.com/sketch -->
    <title>close</title>
    <desc>Created with Sketch.</desc>
    <g id="close" stroke="none" stroke-width="1" fill="none" fill-rule="evenodd">
        <path d="M313.646203,256 L470.251722,412.605519 C478.74162,421.095417 478.74162,434.860262 470.251722,443.35016 L443.35016,470.251722 C434.860262,478.74162 421.095417,478.74162 412.605519,470.251722 L256,313.646203 L99.3944814,470.251722 C90.904583,478.74162 77.139738,478.74162 68.6498397,470.251722 L41.7482782,443.35016 C33.2583798,434.860262 33.2583798,421.095417 41.7482782,412.605519 L198.353797,256 L41.7482782,99.3944814 C33.2583798,90.904583 33.2583798,77.139738 41.7482782,68.6498397 L68.6498397,41.7482782 C77.139738,33.2583798 90.904583,33.2583798 99.3944814,41.7482782 L256,198.353797 L412.605519,41.7482782 C421.095417,33.2583798 434.860262,33.2583798 443.35016,41.7482782 L470.251722,68.6498397 C478.74162,77.139738 478.74162,90.904583 470.251722,99.3944814 L313.646203,256 Z" id="Combined-Shape" fill="#17191D"></path>
    </g>
</svg>