<?xml version="1.0" encoding="UTF-8"?>
<svg width="512px" height="512px" viewBox="0 0 512 512" version="1.1" xmlns="http://www.w3.org/2000/svg" xmlns:xlink="http://www.w3.org/1999/xlink">
    <!-- Generator: Sketch 52.6 (67491) - http://www.bohemiancoding.com/sketch -->
    <title>cog</title>
    <desc>Created with Sketch.</desc>
    <defs>
        <path d="M445.196201,291.100618 L487.812201,315.699618 C492.679201,318.508618 494.938201,324.317618 493.271201,329.684618 C482.201201,365.326618 463.301201,397.526618 438.582201,424.270618 C434.772111,428.395118 428.613572,429.331023 423.750201,426.524618 L381.166201,401.929618 C363.249266,417.281184 342.650672,429.191002 320.407201,437.059618 L320.407201,486.241618 C320.407283,491.86014 316.512037,496.727847 311.030201,497.959618 C276.074201,505.809618 238.531201,506.215618 201.811201,497.966618 C196.321201,496.733618 192.408201,491.870618 192.408201,486.243618 L192.408201,437.059618 C170.164518,429.191462 149.565843,417.281598 131.649201,401.929618 L89.0652012,426.524618 C84.2018304,429.331023 78.0432912,428.395118 74.2332012,424.270618 C49.5152012,397.526618 30.6142012,365.326618 19.5442012,329.684618 C17.8772012,324.318618 20.1362012,318.509618 25.0032012,315.699618 L67.6202012,291.100618 C63.3397198,267.896708 63.3397198,244.105528 67.6202012,220.901618 L25.0042012,196.302618 C20.1372012,193.493618 17.8782012,187.684618 19.5452012,182.317618 C30.6152012,146.675618 49.5152012,114.475618 74.2342012,87.731618 C78.0442912,83.6071178 84.2028304,82.6712125 89.0662012,85.477618 L131.650201,110.072618 C149.567136,94.7210518 170.16573,82.8112342 192.409201,74.942618 L192.409201,25.759618 C192.409119,20.1410961 196.304365,15.2733888 201.786201,14.041618 C236.742201,6.19161796 274.285201,5.78561796 311.005201,14.034618 C316.495201,15.267618 320.408201,20.130618 320.408201,25.757618 L320.408201,74.941618 C342.651885,82.8097737 363.25056,94.7196381 381.167201,110.071618 L423.751201,85.476618 C428.614572,82.6702125 434.773111,83.6061178 438.583201,87.730618 C463.301201,114.474618 482.202201,146.674618 493.272201,182.316618 C494.939201,187.682618 492.680201,193.491618 487.813201,196.301618 L445.196201,220.900618 C449.476693,244.104864 449.476693,267.896372 445.196201,291.100618 Z M336.408201,256.000618 C336.408201,211.888618 300.520201,176.000618 256.408201,176.000618 C212.296201,176.000618 176.408201,211.888618 176.408201,256.000618 C176.408201,300.112618 212.296201,336.000618 256.408201,336.000618 C300.520201,336.000618 336.408201,300.112618 336.408201,256.000618 Z" id="path-1"></path>
    </defs>
    <g id="cog" stroke="none" stroke-width="1" fill="none" fill-rule="evenodd">
        <mask id="mask-2" fill="white">
            <use xlink:href="#path-1"></use>
        </mask>
        <use id="Mask" fill="#17191D" xlink:href="#path-1"></use>
    </g>
</svg>