<?xml version="1.0" encoding="UTF-8"?>
<svg width="512px" height="512px" viewBox="0 0 512 512" version="1.1" xmlns="http://www.w3.org/2000/svg" xmlns:xlink="http://www.w3.org/1999/xlink">
    <!-- Generator: Sketch 54.1 (76490) - https://sketchapp.com -->
    <title>cog</title>
    <desc>Created with Sketch.</desc>
    <g id="cog" stroke="none" stroke-width="1" fill="none" fill-rule="evenodd">
        <path d="M223.383541,4.00191116 C223.861496,4.00191116 224.339452,4.00191116 224.817407,4.00191116 C225.295363,4.00191116 225.773318,4.00191116 226.251274,4.00191116 L285.517748,4.00191116 C293.105294,3.88240918 299.617433,9.37985213 300.812321,16.9089511 L311.327341,79.0539583 C322.260575,82.4599789 332.895076,86.7025746 342.8724,91.9609982 L394.013631,55.1520325 C400.047815,50.7899348 408.292554,51.4472416 413.609804,56.586148 L455.669883,98.6535375 C460.807911,103.971712 461.465088,112.217884 457.103749,118.253117 L420.779136,170.359315 C425.917164,180.099354 429.860289,190.257664 433.205977,200.95378 L495.818139,211.470627 C503.166708,212.605973 508.603455,218.880224 508.722936,226.289821 L508.722936,285.566598 C508.842432,293.035946 503.584923,299.489465 496.296095,300.86383 L433.683933,311.380677 C430.338244,322.315812 425.976905,332.474123 420.779136,342.453181 L457.581704,394.081341 C461.943044,400.116573 461.285867,408.362745 456.147838,413.68092 L414.08776,455.748309 C408.770509,460.887231 400.52577,461.544523 394.491587,457.182425 L342.8724,420.851498 C333.014573,426.109921 322.619034,430.352517 311.805296,433.758538 L300.812321,496.381583 C299.438196,503.671678 292.985797,508.930102 285.517748,508.810585 L226.251274,508.810585 C218.663727,508.930102 212.151588,503.432659 210.9567,495.903545 L200.919635,434.236576 C189.986401,430.830556 179.3519,426.58796 169.374577,421.329536 L118.233345,457.182425 C112.199162,461.544523 103.954423,460.887231 98.6371723,455.748309 L56.577094,413.68092 C51.4390807,408.362745 50.7818882,400.116573 55.1432277,394.081341 L91.4678408,343.409258 C85.9713533,333.13143 81.5502731,322.674334 78.0850886,311.380677 L16.4288374,300.86383 C9.14002467,299.489465 3.88250723,293.035946 4.00199609,285.566598 L4.00199609,226.289821 C4.12148495,218.880224 9.5582242,212.605973 16.9067928,211.470627 L78.563044,200.95378 C82.0282286,190.018645 86.210331,179.382296 91.4678408,169.403238 L55.6211831,118.253117 C51.2598436,112.217884 51.9170361,103.971712 57.0550494,98.6535375 L99.1151277,56.586148 C104.432378,51.4472416 112.677117,50.7899348 118.711301,55.1520325 L169.852532,91.4829597 C179.889596,86.224536 190.404616,81.9221894 201.397591,78.5759198 L210.9567,16.9089511 C211.91261,10.3956802 216.871402,5.19700746 223.383541,4.00191116 Z M256,120.812581 C181.561554,120.812581 121,181.374135 121,255.812581 C121,330.251028 181.561554,390.812581 256,390.812581 C330.438446,390.812581 391,330.251028 391,255.812581 C391,181.374135 330.438446,120.812581 256,120.812581 Z" id="Combined-Shape" fill="#282828" fill-rule="nonzero"></path>
        <path d="M256,373 C320.617316,373 373,320.617316 373,256 C373,191.382684 320.617316,139 256,139 C191.382684,139 139,191.382684 139,256 C139,320.617316 191.382684,373 256,373 Z M256,341 C209.055796,341 171,302.944204 171,256 C171,209.055796 209.055796,171 256,171 C302.944204,171 341,209.055796 341,256 C341,302.944204 302.944204,341 256,341 Z" id="Oval" fill="#282828"></path>
    </g>
</svg>