<?xml version="1.0" encoding="UTF-8"?>
<svg width="512px" height="512px" viewBox="0 0 512 512" version="1.1" xmlns="http://www.w3.org/2000/svg" xmlns:xlink="http://www.w3.org/1999/xlink">
    <!-- Generator: Sketch 54.1 (76490) - https://sketchapp.com -->
    <title>collapse</title>
    <desc>Created with Sketch.</desc>
    <g id="collapse" stroke="none" stroke-width="1" fill="none" fill-rule="evenodd">
        <path d="M23.3524099,0.010170285 C13.8946807,0.0126545811 5.38144227,5.74639637 1.82257215,14.5107074 C-1.73629798,23.2750185 0.368876706,33.3222022 7.14652373,39.919867 L106.923943,139.716816 L46.8214385,139.716816 C38.4395184,139.598252 30.6430765,144.002916 26.4175229,151.244176 C22.1919694,158.485437 22.1919694,167.441405 26.4175229,174.682666 C30.6430765,181.923926 38.4395184,186.32859 46.8214385,186.210026 L159.490931,186.210026 C166.90757,187.459712 174.470383,185.042913 179.788637,179.723618 C185.10689,174.404324 187.523217,166.84003 186.273775,159.42194 L186.273775,46.730397 C186.359804,40.4468323 183.898978,34.3960597 179.452006,29.9567708 C175.005034,25.5174818 168.950719,23.067826 162.668562,23.1659669 C149.850192,23.3663776 139.614123,33.9091546 139.789663,46.730397 L139.789663,106.844664 L40.0122413,7.04771725 C35.6364345,2.54873805 29.6278046,0.0105361664 23.3524099,0.010170285 Z M487.966563,0.010170285 C481.928308,0.190125411 476.197288,2.71422246 471.987649,7.04771725 L372.210223,106.844664 L372.210223,46.730397 C372.296252,40.4468323 369.835426,34.3960597 365.388454,29.9567708 C360.941482,25.5174818 354.887168,23.067826 348.60501,23.1659669 C335.78664,23.3663776 325.550572,33.9091546 325.726111,46.730397 L325.726111,159.42194 C324.476669,166.84003 326.892996,174.404324 332.211249,179.723618 C337.529502,185.042913 345.092316,187.459712 352.508955,186.210026 L465.178447,186.210026 C473.560367,186.32859 481.356809,181.923926 485.582363,174.682666 C489.807916,167.441405 489.807916,158.485437 485.582363,151.244176 C481.356809,144.002916 473.560367,139.598252 465.178447,139.716816 L405.075931,139.716816 L504.853357,39.919867 C511.727437,33.2366691 513.794315,23.0180534 510.058058,14.1879053 C506.3218,5.35775713 497.548878,-0.272471406 487.966563,0.010170285 Z M162.577778,325.462628 C161.711724,325.490008 160.847879,325.565802 159.990287,325.689655 L46.8214385,325.689655 C38.4395184,325.57109 30.6430765,329.975754 26.4175229,337.217015 C22.1919694,344.458275 22.1919694,353.414244 26.4175229,360.655504 C30.6430765,367.896765 38.4395184,372.301429 46.8214385,372.182864 L106.923943,372.182864 L7.14652373,471.979818 C1.07481968,477.810468 -1.37100051,486.468643 0.752330209,494.615189 C2.87566093,502.761734 9.23634954,509.123666 17.3813016,511.24741 C25.5262537,513.371154 34.1827338,510.924853 40.0122413,504.851959 L139.789663,405.055005 L139.789663,465.169284 C139.671121,473.552844 144.074924,481.350812 151.314767,485.577193 C158.554611,489.803573 167.508827,489.803573 174.74867,485.577193 C181.988514,481.350812 186.392316,473.552844 186.273775,465.169284 L186.273775,351.887486 C187.210662,345.113154 185.117975,338.269849 180.552636,333.17876 C175.987297,328.08767 169.412427,325.265252 162.577778,325.462628 Z M348.741185,325.462628 C342.015461,325.464104 335.620081,328.379288 331.206589,333.455364 C326.793098,338.53144 324.794207,345.270733 325.726111,351.932886 L325.726111,465.169284 C325.60757,473.552844 330.011372,481.350812 337.251216,485.577193 C344.491059,489.803573 353.445275,489.803573 360.685118,485.577193 C367.924962,481.350812 372.328764,473.552844 372.210223,465.169284 L372.210223,405.055005 L471.987649,504.851959 C477.817142,510.92492 486.473655,513.371273 494.618649,511.247537 C502.763643,509.123801 509.124364,502.761836 511.247684,494.615248 C513.371005,486.46866 510.925131,477.810452 504.853357,471.979818 L405.075931,372.182864 L465.178447,372.182864 C473.560367,372.301429 481.356809,367.896765 485.582363,360.655504 C489.807916,353.414244 489.807916,344.458275 485.582363,337.217015 C481.356809,329.975754 473.560367,325.57109 465.178447,325.689655 L351.691857,325.689655 C350.71412,325.551369 349.728565,325.47554 348.741185,325.462628 Z" id="Shape" fill="#282828"></path>
    </g>
</svg>