<?xml version="1.0" encoding="UTF-8"?>
<svg width="512px" height="512px" viewBox="0 0 512 512" version="1.1" xmlns="http://www.w3.org/2000/svg" xmlns:xlink="http://www.w3.org/1999/xlink">
    <!-- Generator: Sketch 54.1 (76490) - https://sketchapp.com -->
    <title>color-dropper</title>
    <desc>Created with Sketch.</desc>
    <g id="color-dropper" stroke="none" stroke-width="1" fill="none" fill-rule="evenodd">
        <path d="M416.009785,0 C391.438298,0 366.874469,9.38374256 348.13251,28.1252264 L277.880179,98.3757896 L271.088272,91.5840699 C267.071687,87.4553372 261.556322,85.1260188 255.796092,85.1256842 C247.114778,85.1279693 239.300422,90.3898495 236.033713,98.4328926 C232.767005,106.475936 234.69936,115.696274 240.920608,121.750977 L247.170822,128.001028 L70.2482357,304.919121 C45.1428253,330.023877 37.9554898,357.502861 32.6219782,378.836365 C27.2884667,400.16987 23.8087793,415.357896 6.24609765,432.920149 C-2.08203255,441.251518 -2.08203255,454.755678 6.24609765,463.087047 L48.9141897,505.754057 C57.2457716,514.081981 70.7502801,514.081981 79.081862,505.754057 C96.6445479,488.191825 111.832957,484.712224 133.167003,479.378847 C154.50106,474.045471 181.980741,466.85832 207.086134,441.753543 L384.008716,264.83545 L390.25893,271.085505 C395.609863,276.658687 403.555737,278.903715 411.032084,276.954754 C418.508431,275.005792 424.346981,269.167391 426.295992,261.691234 C428.245002,254.215076 425.999917,246.269403 420.426594,240.918607 L413.634709,234.126872 L483.887061,163.876324 C521.37098,126.393348 521.37098,65.6081941 483.887061,28.1252264 C465.145101,9.38374256 440.581273,0 416.009785,0 Z M277.338486,158.167926 L353.841052,234.668551 L176.91847,411.586644 C159.355771,429.148876 144.167371,432.628477 122.833325,437.961853 C106.48132,442.049758 86.5663425,449.841352 66.8314539,463.337055 L48.6641803,445.170253 C62.1602279,425.435844 69.9520274,405.52138 74.0400275,389.169803 C79.373539,367.836298 82.8532243,352.648272 100.415908,335.086019 L277.338486,158.167926 Z" id="Shape" fill="#282828"></path>
    </g>
</svg>