<?xml version="1.0" encoding="UTF-8"?>
<svg width="512px" height="512px" viewBox="0 0 512 512" version="1.1" xmlns="http://www.w3.org/2000/svg" xmlns:xlink="http://www.w3.org/1999/xlink">
    <!-- Generator: Sketch 52.6 (67491) - http://www.bohemiancoding.com/sketch -->
    <title>credits</title>
    <desc>Created with Sketch.</desc>
    <defs>
        <path d="M113.777778,171.25 L398.222222,171.25 L398.222222,341.75 L113.777778,341.75 L113.777778,171.25 Z M469.333333,256.5 C469.333333,280.041432 488.435556,299.125 512,299.125 L512,384.375 C512,407.916432 492.897778,427 469.333333,427 L42.6666667,427 C19.1022222,427 0,407.916432 0,384.375 L0,299.125 C23.5644444,299.125 42.6666667,280.041432 42.6666667,256.5 C42.6666667,232.958568 23.5644444,213.875 0,213.875 L0,128.625 C0,105.083568 19.1022222,86 42.6666667,86 L469.333333,86 C492.897778,86 512,105.083568 512,128.625 L512,213.875 C488.435556,213.875 469.333333,232.958568 469.333333,256.5 Z M426.666667,164.145833 C426.666667,152.375117 417.115556,142.833333 405.333333,142.833333 L106.666667,142.833333 C94.8844444,142.833333 85.3333333,152.375117 85.3333333,164.145833 L85.3333333,348.854167 C85.3333333,360.624883 94.8844444,370.166667 106.666667,370.166667 L405.333333,370.166667 C417.115556,370.166667 426.666667,360.624883 426.666667,348.854167 L426.666667,164.145833 Z" id="path-1"></path>
    </defs>
    <g id="credits" stroke="none" stroke-width="1" fill="none" fill-rule="evenodd">
        <mask id="mask-2" fill="white">
            <use xlink:href="#path-1"></use>
        </mask>
        <use id="Mask" fill="#17191D" xlink:href="#path-1"></use>
    </g>
</svg>