<?xml version="1.0" encoding="UTF-8"?>
<svg width="512px" height="512px" viewBox="0 0 512 512" version="1.1" xmlns="http://www.w3.org/2000/svg" xmlns:xlink="http://www.w3.org/1999/xlink">
    <!-- Generator: Sketch 54.1 (76490) - https://sketchapp.com -->
    <title>credits</title>
    <desc>Created with Sketch.</desc>
    <g id="credits" stroke="none" stroke-width="1" fill="none" fill-rule="evenodd">
        <path d="M512,200.353723 L512,97.6307692 C512,75.7347692 494.375385,58 472.615385,58 L39.3846154,58 C17.6246154,58 0,75.7347692 0,97.6307692 L0,200.353723 C22.9021538,208.537477 39.3846154,230.314585 39.3846154,256.153846 C39.3846154,281.993108 22.9021538,303.770215 0,311.953969 L0,414.676923 C0,436.572923 17.6246154,454.307692 39.3846154,454.307692 L472.615385,454.307692 C494.375385,454.307692 512,436.572923 512,414.676923 L512,311.953969 C489.097846,303.770215 472.615385,281.993108 472.615385,256.153846 C472.615385,230.314585 489.097846,208.537477 512,200.353723 Z M424.615385,256.153846 C424.615385,289.207621 439.676811,319.304072 464,339.175893 L464,406.307692 L48,406.307692 L48,339.175893 C72.3231893,319.304072 87.3846154,289.207621 87.3846154,256.153846 C87.3846154,223.100072 72.3231893,193.00362 48,173.131799 L48,106 L464,106 L464,173.131799 C439.676811,193.00362 424.615385,223.100072 424.615385,256.153846 Z" id="Path" fill="#282828"></path>
        <path d="M365.331692,235.565662 L308.184615,278.366892 L329.412923,346.789415 C332.268308,355.963938 321.910154,363.533415 314.112,357.965292 L256,316.511508 L197.888,357.965292 C190.089846,363.533415 179.751385,355.963938 182.587077,346.789415 L203.815385,278.366892 L146.668308,235.565662 C139.008,229.839015 142.966154,217.593108 152.516923,217.474215 L223.744,216.641969 L246.547692,148.734646 C249.6,139.639385 262.4,139.639385 265.452308,148.734646 L288.256,216.641969 L359.483077,217.474215 C369.033846,217.573292 372.992,229.8192 365.331692,235.565662 Z" id="Path" fill="#282828"></path>
    </g>
</svg>