<svg width="40" height="40" viewBox="0 0 40 40" fill="none" xmlns="http://www.w3.org/2000/svg">
<g id="credits">
<path id="Vector" d="M37.3333 16.2453V9.33333C37.3333 7.86 36.14 6.66666 34.6666 6.66666H5.33329C3.85996 6.66666 2.66663 7.86 2.66663 9.33333V16.2453C4.21729 16.796 5.33329 18.2613 5.33329 20C5.33329 21.7387 4.21729 23.204 2.66663 23.7547V30.6667C2.66663 32.14 3.85996 33.3333 5.33329 33.3333H34.6666C36.14 33.3333 37.3333 32.14 37.3333 30.6667V23.7547C35.7826 23.204 34.6666 21.7387 34.6666 20C34.6666 18.2613 35.7826 16.796 37.3333 16.2453ZM27.4026 18.6147L23.5333 21.4947L24.9706 26.0987C25.164 26.716 24.4626 27.2253 23.9346 26.8507L20 24.0613L16.0653 26.8507C15.5373 27.2253 14.8373 26.716 15.0293 26.0987L16.4666 21.4947L12.5973 18.6147C12.0786 18.2293 12.3466 17.4053 12.9933 17.3973L17.816 17.3413L19.36 12.772C19.5666 12.16 20.4333 12.16 20.64 12.772L22.184 17.3413L27.0066 17.3973C27.6533 17.404 27.9213 18.228 27.4026 18.6147Z" fill="#282828"/>
</g>
</svg>
