<?xml version="1.0" encoding="UTF-8"?>
<svg width="512px" height="512px" viewBox="0 0 512 512" version="1.1" xmlns="http://www.w3.org/2000/svg" xmlns:xlink="http://www.w3.org/1999/xlink">
    <!-- Generator: Sketch 54.1 (76490) - https://sketchapp.com -->
    <title>data</title>
    <desc>Created with Sketch.</desc>
    <g id="data" stroke="none" stroke-width="1" fill="none" fill-rule="evenodd">
        <path d="M39.3846154,0 C17.6246154,0 0,17.6246154 0,39.3846154 L0,98.4615385 C0,109.331692 8.82215385,118.153846 19.6923077,118.153846 L413.538462,118.153846 C424.408615,118.153846 433.230769,109.331692 433.230769,98.4615385 L433.230769,39.3846154 C433.230769,17.6246154 415.606154,0 393.846154,0 L39.3846154,0 Z M19.6923077,157.538462 C8.82215385,157.538462 0,166.360615 0,177.230769 L0,256 C0,266.870154 8.82215385,275.692308 19.6923077,275.692308 L197.692298,275.692308 C201.394471,249.836308 219.427998,228.110454 244.653844,220.115377 C247.528921,219.170146 315.628308,196.923077 374.153846,196.923077 C393.728,196.923077 414.326154,199.421538 433.230769,202.769231 L433.230769,177.230769 C433.230769,166.360615 424.408615,157.538462 413.538462,157.538462 L19.6923077,157.538462 Z M374.153846,236.307692 C321.28,236.307692 256.961536,257.500002 256.961536,257.500002 C245.008305,261.280926 236.307692,272.344615 236.307692,285.538462 L236.307692,339.692308 C236.307692,457.846154 362.961546,509.769236 362.961546,509.769236 C366.427392,511.187082 370.176,512 374.153846,512 C378.131692,512 381.8803,511.187082 385.346146,509.769236 C385.346146,509.769236 512,457.846154 512,339.692308 L512,285.538462 C512,272.344615 503.299387,261.280926 491.346156,257.500002 C491.346156,257.500002 427.027692,236.307692 374.153846,236.307692 Z M19.6923077,315.076923 C8.82215385,315.076923 0,323.899077 0,334.769231 L0,393.846154 C0,415.606154 17.6246154,433.230769 39.3846154,433.230769 L220.461529,433.230769 C206.361836,407.079385 196.923077,376.064 196.923077,339.692308 L196.923077,315.076923 L19.6923077,315.076923 Z" id="Shape" fill="#282828"></path>
    </g>
</svg>