<?xml version="1.0" encoding="UTF-8"?>
<svg width="512px" height="512px" viewBox="0 0 512 512" version="1.1" xmlns="http://www.w3.org/2000/svg" xmlns:xlink="http://www.w3.org/1999/xlink">
    <!-- Generator: Sketch 52.6 (67491) - http://www.bohemiancoding.com/sketch -->
    <title>data</title>
    <desc>Created with Sketch.</desc>
    <defs>
        <path d="M475,160 L27,160 C9.327,160 -5,145.673 -5,128 L-5,64 C-5,46.327 9.327,32 27,32 L475,32 C492.673,32 507,46.327 507,64 L507,128 C507,145.673 492.673,160 475,160 Z M427,72 C413.745,72 403,82.745 403,96 C403,109.255 413.745,120 427,120 C440.255,120 451,109.255 451,96 C451,82.745 440.255,72 427,72 Z M363,72 C349.745,72 339,82.745 339,96 C339,109.255 349.745,120 363,120 C376.255,120 387,109.255 387,96 C387,82.745 376.255,72 363,72 Z M475,320 L27,320 C9.327,320 -5,305.673 -5,288 L-5,224 C-5,206.327 9.327,192 27,192 L475,192 C492.673,192 507,206.327 507,224 L507,288 C507,305.673 492.673,320 475,320 Z M427,232 C413.745,232 403,242.745 403,256 C403,269.255 413.745,280 427,280 C440.255,280 451,269.255 451,256 C451,242.745 440.255,232 427,232 Z M363,232 C349.745,232 339,242.745 339,256 C339,269.255 349.745,280 363,280 C376.255,280 387,269.255 387,256 C387,242.745 376.255,232 363,232 Z M475,480 L27,480 C9.327,480 -5,465.673 -5,448 L-5,384 C-5,366.327 9.327,352 27,352 L475,352 C492.673,352 507,366.327 507,384 L507,448 C507,465.673 492.673,480 475,480 Z M427,392 C413.745,392 403,402.745 403,416 C403,429.255 413.745,440 427,440 C440.255,440 451,429.255 451,416 C451,402.745 440.255,392 427,392 Z M363,392 C349.745,392 339,402.745 339,416 C339,429.255 349.745,440 363,440 C376.255,440 387,429.255 387,416 C387,402.745 376.255,392 363,392 Z" id="path-1"></path>
    </defs>
    <g id="data" stroke="none" stroke-width="1" fill="none" fill-rule="evenodd">
        <mask id="mask-2" fill="white">
            <use xlink:href="#path-1"></use>
        </mask>
        <use id="Mask" fill="#17191D" xlink:href="#path-1"></use>
    </g>
</svg>