<?xml version="1.0" encoding="UTF-8"?>
<svg width="512px" height="512px" viewBox="0 0 512 512" version="1.1" xmlns="http://www.w3.org/2000/svg" xmlns:xlink="http://www.w3.org/1999/xlink">
    <!-- Generator: Sketch 54.1 (76490) - https://sketchapp.com -->
    <title>delete</title>
    <desc>Created with Sketch.</desc>
    <g id="delete" stroke="none" stroke-width="1" fill="none" fill-rule="evenodd">
        <path d="M85,144.62963 L426,144.62963 L426,447.62963 C426,478.005291 401.375661,502.62963 371,502.62963 L140,502.62963 C109.624339,502.62963 85,478.005291 85,447.62963 L85,144.62963 Z M133,192.62963 L133,447.62963 C133,451.495623 136.134007,454.62963 140,454.62963 L371,454.62963 C374.865993,454.62963 378,451.495623 378,447.62963 L378,192.62963 L133,192.62963 Z" id="Rectangle" fill="#282828"></path>
        <path d="M281.5,234.62963 L281.5,411.36536 C281.5,424.620194 292.245166,435.36536 305.5,435.36536 C318.754834,435.36536 329.5,424.620194 329.5,411.36536 L329.5,234.62963 C329.5,221.374796 318.754834,210.62963 305.5,210.62963 C292.245166,210.62963 281.5,221.374796 281.5,234.62963 Z" id="Line-8" fill="#282828"></path>
        <path d="M182.5,234.62963 L182.5,411.36536 C182.5,424.620194 193.245166,435.36536 206.5,435.36536 C219.754834,435.36536 230.5,424.620194 230.5,411.36536 L230.5,234.62963 C230.5,221.374796 219.754834,210.62963 206.5,210.62963 C193.245166,210.62963 182.5,221.374796 182.5,234.62963 Z" id="Line-8-Copy" fill="#282828"></path>
        <path d="M217.666667,10 L293.518519,10 C309.37038,10 324.925926,13.1111206 336.185185,24.2222222 C347.444444,35.3333428 351,51.1111159 351,67.4814815 L426.259259,67.4814815 C436.703699,67.4814815 445.222222,76.0000047 445.222222,86.4444444 L445.222222,124.37037 L65.962963,124.37037 L65.962963,86.4444444 C65.962963,76 74.4814862,67.4814815 84.9259259,67.4814815 L160.185185,67.4814815 C160.185185,51.1111159 163.740741,35.3333428 175,24.2222222 C186.259259,13.1111206 201.814824,10 217.666667,10 Z M217.666667,49.1111111 C207.296296,49.1111111 204.037037,51.5555508 202.851852,52.6666667 C201.666667,53.7777825 199.296296,56.8888841 199.296296,67.4814815 L311.888889,67.4814815 C311.888889,56.8888841 309.518519,53.7777825 308.333333,52.6666667 C307.148148,51.5555508 303.888889,49.1111111 293.518519,49.1111111 L217.666667,49.1111111 Z" id="Combined-Shape" fill="#282828"></path>
    </g>
</svg>