<?xml version="1.0" encoding="UTF-8"?>
<svg width="512px" height="512px" viewBox="0 0 512 512" version="1.1" xmlns="http://www.w3.org/2000/svg" xmlns:xlink="http://www.w3.org/1999/xlink">
    <!-- Generator: Sketch 52.6 (67491) - http://www.bohemiancoding.com/sketch -->
    <title>delete</title>
    <desc>Created with Sketch.</desc>
    <defs>
        <path d="M27,84 L27,56 C27,42.7 37.7,32 51,32 L163,32 L172.4,13.3 C176.4,5.1 184.7,0 193.8,0 L308.1,0 C317.2,0 325.5,5.1 329.6,13.3 L339,32 L451,32 C464.3,32 475,42.7 475,56 L475,84 C475,90.6 469.6,96 463,96 L39,96 C32.4,96 27,90.6 27,84 Z M443,140 L443,464 C443,490.5 421.5,512 395,512 L107,512 C80.5,512 59,490.5 59,464 L59,140 C59,133.4 64.4,128 71,128 L431,128 C437.6,128 443,133.4 443,140 Z M171,208 C171,199.2 163.8,192 155,192 C146.2,192 139,199.2 139,208 L139,432 C139,440.8 146.2,448 155,448 C163.8,448 171,440.8 171,432 L171,208 Z M267,208 C267,199.2 259.8,192 251,192 C242.2,192 235,199.2 235,208 L235,432 C235,440.8 242.2,448 251,448 C259.8,448 267,440.8 267,432 L267,208 Z M363,208 C363,199.2 355.8,192 347,192 C338.2,192 331,199.2 331,208 L331,432 C331,440.8 338.2,448 347,448 C355.8,448 363,440.8 363,432 L363,208 Z" id="path-1"></path>
    </defs>
    <g id="delete" stroke="none" stroke-width="1" fill="none" fill-rule="evenodd">
        <mask id="mask-2" fill="white">
            <use xlink:href="#path-1"></use>
        </mask>
        <use id="Mask" fill="#17191D" xlink:href="#path-1"></use>
    </g>
</svg>