<svg width="40" height="40" viewBox="0 0 40 40" fill="none" xmlns="http://www.w3.org/2000/svg">
<g id="delete">
<path id="Path" fill-rule="evenodd" clip-rule="evenodd" d="M6.64062 11.2992H33.2812V34.9711C33.2812 37.3442 31.3575 39.2679 28.9844 39.2679H10.9375C8.5644 39.2679 6.64062 37.3442 6.64062 34.9711V11.2992Z" fill="#282828"/>
<path id="Combined Shape" fill-rule="evenodd" clip-rule="evenodd" d="M13.672 1.89236C14.5516 1.02431 15.7669 0.78125 17.0053 0.78125H22.9312C24.1696 0.78125 25.3849 1.02431 26.2646 1.89236C27.1442 2.76042 27.422 3.99306 27.422 5.27199H33.3016C34.1176 5.27199 34.7831 5.9375 34.7831 6.75347V9.71644H5.15344V6.75347C5.15344 5.9375 5.81895 5.27199 6.63492 5.27199H12.5146C12.5146 3.99306 12.7923 2.76042 13.672 1.89236ZM22.9313 3.8368H17.0054C16.1952 3.8368 15.9405 4.02777 15.848 4.11458C15.7554 4.20138 15.5702 4.44444 15.5702 5.27198H24.3665C24.3665 4.44444 24.1813 4.20138 24.0887 4.11458C23.9961 4.02777 23.7415 3.8368 22.9313 3.8368Z" fill="#282828"/>
</g>
</svg>
