<?xml version="1.0" encoding="UTF-8"?>
<svg width="512px" height="512px" viewBox="0 0 512 512" version="1.1" xmlns="http://www.w3.org/2000/svg" xmlns:xlink="http://www.w3.org/1999/xlink">
    <!-- Generator: Sketch 54.1 (76490) - https://sketchapp.com -->
    <title>download</title>
    <desc>Created with Sketch.</desc>
    <g id="download" stroke="none" stroke-width="1" fill="none" fill-rule="evenodd">
        <path d="M31.099446,296.011645 C19.8394157,296.187619 10.8477539,305.444915 11.001954,316.702862 L11.001954,439.175715 C11.001954,461.487473 29.5184372,480 51.8349536,480 L460.16495,480 C482.48147,480 500.99795,461.487473 500.99795,439.175715 L500.99795,316.702862 C501.10208,309.34151 497.233651,302.49435 490.873962,298.783293 C484.514272,295.072236 476.648628,295.072236 470.288938,298.783293 C463.929248,302.49435 460.06082,309.34151 460.16495,316.702862 L460.16495,439.175715 L51.8349536,439.175715 L51.8349536,316.702862 C51.9105245,311.185453 49.7488636,305.872452 45.8425136,301.974446 C41.9361636,298.076439 36.617877,295.92547 31.099446,296.011645 L31.099446,296.011645 Z" id="Shape" fill="#282828"></path>
        <path d="M255.514027,331.968494 C248.961326,331.86198 242.822068,328.745599 238.867494,323.518461 L155.551596,240.183654 C149.985317,234.838123 147.743116,226.900372 149.689724,219.431688 C151.636332,211.963005 157.467574,206.13044 164.934562,204.18339 C172.401551,202.23634 180.337501,204.47905 185.681819,210.046593 L234.539395,258.915254 L234.539395,54.6159396 C234.430721,46.9299234 238.467983,39.7807765 245.105237,35.9060471 C251.742491,32.0313176 259.951425,32.0313176 266.588679,35.9060471 C273.225932,39.7807765 277.263195,46.9299234 277.15452,54.6159396 L277.15452,258.915254 L326.012101,210.046593 C331.356405,204.478989 339.292386,202.236231 346.759413,204.183274 C354.22644,206.130316 360.057711,211.962912 362.00431,219.431634 C363.950908,226.900357 361.708658,234.838138 356.142315,240.183654 L272.701572,323.643339 C268.605786,328.974489 262.235287,332.060177 255.514027,331.968494 Z" id="Shape" fill="#282828"></path>
    </g>
</svg>