<?xml version="1.0" encoding="UTF-8"?>
<svg width="512px" height="512px" viewBox="0 0 512 512" version="1.1" xmlns="http://www.w3.org/2000/svg" xmlns:xlink="http://www.w3.org/1999/xlink">
    <!-- Generator: Sketch 54.1 (76490) - https://sketchapp.com -->
    <title>edit</title>
    <desc>Created with Sketch.</desc>
    <g id="edit" stroke="none" stroke-width="1" fill="none" fill-rule="evenodd">
        <path d="M395.692308,4.92307692 C384,4.84615877 372.538466,8.99999508 363.692308,17.8461538 L344,38.1538462 L473.846154,168.615385 L493.538462,148.307692 C511.307697,130.538457 511.461534,101.692318 493.538462,83.6923077 L428.307692,18.4615385 C419.307697,9.46154338 407.384615,4.99999508 395.692308,4.92307692 Z M321.846154,56 L291.076923,85.5384615 L426.461538,220.923077 L457.846154,192 L321.846154,56 Z M271.384615,107.076923 L58.4615385,318.153846 C53.5384615,320.692303 50.0000098,325.153851 48.6153846,330.461538 L3.07692308,484.923077 C1.00000098,491.692308 2.84614892,499.153841 7.84616369,504.153856 C12.8461588,509.153851 20.3076923,511.000005 27.0769231,508.923077 L181.538462,463.384615 C188.692303,462.307702 194.615394,457.307687 196.923077,450.461538 L406.769231,242.461538 L377.846154,213.538462 L162.461538,429.538462 L75.6923077,454.769231 L57.2307692,436.307692 L83.6923077,345.846154 L297.230769,132.923077 L271.384615,107.076923 Z M318.153846,154.461538 L102.153846,371.076923 L133.538462,377.846154 L137.846154,406.769231 L354.461538,190.769231 L318.153846,154.461538 Z" id="Shape" fill="#282828"></path>
    </g>
</svg>