<?xml version="1.0" encoding="UTF-8"?>
<svg width="512px" height="512px" viewBox="0 0 512 512" version="1.1" xmlns="http://www.w3.org/2000/svg" xmlns:xlink="http://www.w3.org/1999/xlink">
    <!-- Generator: Sketch 52.6 (67491) - http://www.bohemiancoding.com/sketch -->
    <title>edit</title>
    <desc>Created with Sketch.</desc>
    <defs>
        <path d="M357.866667,102.863059 L438.044444,183.036921 C441.422222,186.414534 441.422222,191.925376 438.044444,195.302989 L243.911111,389.426841 L161.422222,398.58195 C150.4,399.826333 141.066667,390.493456 142.311111,379.471772 L151.466667,296.986912 L345.6,102.863059 C348.977778,99.4854464 354.488889,99.4854464 357.866667,102.863059 Z M501.866667,82.5084978 L458.488889,39.1328384 C444.977778,25.6223872 423.022222,25.6223872 409.422222,39.1328384 L377.955556,70.5979684 C374.577778,73.9755812 374.577778,79.4864231 377.955556,82.8640359 L458.133333,163.037898 C461.511111,166.415511 467.022222,166.415511 470.4,163.037898 L501.866667,131.572768 C515.377778,117.973432 515.377778,96.018949 501.866667,82.5084978 Z M341.333333,336.62942 L341.333333,427.113889 L56.8888889,427.113889 L56.8888889,142.683337 L261.155556,142.683337 C264,142.683337 266.666667,141.527837 268.711111,139.572377 L304.266667,104.018558 C311.022222,97.2633327 306.222222,85.797226 296.711111,85.797226 L42.6666667,85.797226 C19.1111111,85.797226 0,104.907404 0,128.461809 L0,441.335417 C0,464.889822 19.1111111,484 42.6666667,484 L355.555556,484 C379.111111,484 398.222222,464.889822 398.222222,441.335417 L398.222222,301.075601 C398.222222,291.564954 386.755556,286.854073 380,293.520414 L344.444444,329.074233 C342.488889,331.118578 341.333333,333.785114 341.333333,336.62942 Z" id="path-1"></path>
    </defs>
    <g id="edit" stroke="none" stroke-width="1" fill="none" fill-rule="evenodd">
        <mask id="mask-2" fill="white">
            <use xlink:href="#path-1"></use>
        </mask>
        <use id="Mask" fill="#17191D" xlink:href="#path-1"></use>
    </g>
</svg>