<?xml version="1.0" encoding="UTF-8"?>
<svg width="512px" height="512px" viewBox="0 0 512 512" version="1.1" xmlns="http://www.w3.org/2000/svg" xmlns:xlink="http://www.w3.org/1999/xlink">
    <!-- Generator: Sketch 52.6 (67491) - http://www.bohemiancoding.com/sketch -->
    <title>edit</title>
    <desc>Created with Sketch.</desc>
    <defs>
        <path d="M445.653906,164.346094 L408.557812,201.442187 C404.775781,205.224219 398.660156,205.224219 394.878125,201.442187 L305.557812,112.121875 C301.775781,108.339844 301.775781,102.224219 305.557812,98.4421875 L342.653906,61.3460937 C357.701562,46.2984375 382.164062,46.2984375 397.292187,61.3460937 L445.653906,109.707812 C460.782031,124.755469 460.782031,149.217969 445.653906,164.346094 Z M273.692188,130.307812 L62.38125,341.61875 L45.321875,439.388281 C42.9882812,452.585156 54.4953125,464.011719 67.6921875,461.758594 L165.461719,444.61875 L376.772656,233.307812 C380.554688,229.525781 380.554688,223.410156 376.772656,219.628125 L287.452344,130.307812 C283.589844,126.525781 277.474219,126.525781 273.692188,130.307812 Z" id="path-1"></path>
    </defs>
    <g id="edit" stroke="none" stroke-width="1" fill="none" fill-rule="evenodd">
        <mask id="mask-2" fill="white">
            <use xlink:href="#path-1"></use>
        </mask>
        <use id="Mask" fill="#17191D" xlink:href="#path-1"></use>
    </g>
</svg>