<?xml version="1.0" encoding="UTF-8"?>
<svg width="512px" height="512px" viewBox="0 0 512 512" version="1.1" xmlns="http://www.w3.org/2000/svg" xmlns:xlink="http://www.w3.org/1999/xlink">
    <!-- Generator: Sketch 52.6 (67491) - http://www.bohemiancoding.com/sketch -->
    <title>ellipsis-h</title>
    <desc>Created with Sketch.</desc>
    <path d="M306,256 C306,283.638889 283.638889,306 256,306 C228.361111,306 206,283.638889 206,256 C206,228.361111 228.361111,206 256,206 C283.638889,206 306,228.361111 306,256 Z M432,206 C404.361111,206 382,228.361111 382,256 C382,283.638889 404.361111,306 432,306 C459.638889,306 482,283.638889 482,256 C482,228.361111 459.638889,206 432,206 Z M80,206 C52.3611111,206 30,228.361111 30,256 C30,283.638889 52.3611111,306 80,306 C107.638889,306 130,283.638889 130,256 C130,228.361111 107.638889,206 80,206 Z" id="path-1"></path>
</svg>
