<?xml version="1.0" encoding="UTF-8"?>
<svg width="512px" height="512px" viewBox="0 0 512 512" version="1.1" xmlns="http://www.w3.org/2000/svg" xmlns:xlink="http://www.w3.org/1999/xlink">
    <!-- Generator: Sketch 54.1 (76490) - https://sketchapp.com -->
    <title>email</title>
    <desc>Created with Sketch.</desc>
    <g id="email" stroke="none" stroke-width="1" fill="none" fill-rule="evenodd">
        <path d="M512,144.638973 L512.991818,146.179511 L512,146.818056 L512,436 C512,448.702549 501.702549,459 489,459 L23,459 C10.2974508,459 -7.27196081e-13,448.702549 -7.28750393e-13,436 L-7.28750393e-13,146.827404 L-1.11749179,146.098045 L-7.35411732e-13,144.385873 L-7.28750393e-13,74 C-7.30304706e-13,61.2974508 10.2974508,51 23,51 L489,51 C501.702549,51 512,61.2974508 512,74 L512,144.638973 Z M464,120.63344 L464,99 L48,99 L48,120.836797 L254.421273,255.562804 L464,120.63344 Z M464,177.721047 L254.24279,312.765321 L48,178.155805 L48,411 L464,411 L464,177.721047 Z" id="Combined-Shape" fill="#282828"></path>
    </g>
</svg>