<?xml version="1.0" encoding="UTF-8"?>
<svg width="512px" height="512px" viewBox="0 0 512 512" version="1.1" xmlns="http://www.w3.org/2000/svg" xmlns:xlink="http://www.w3.org/1999/xlink">
    <!-- Generator: Sketch 52.6 (67491) - http://www.bohemiancoding.com/sketch -->
    <title>email</title>
    <desc>Created with Sketch.</desc>
    <defs>
        <path d="M427.739844,108.478125 C431.060937,105.838281 436,108.307813 436,112.480469 L436,286.625 C436,309.191406 417.691406,327.5 395.125,327.5 L40.875,327.5 C18.3085938,327.5 0,309.191406 0,286.625 L0,112.565625 C0,108.307812 4.85390625,105.923437 8.26015625,108.563281 C27.3351562,123.380469 52.6265625,142.2 139.485937,205.300781 C157.453906,218.414844 187.769531,246.005469 218,245.835156 C248.400781,246.090625 279.3125,217.903906 296.599219,205.300781 C383.458594,142.2 408.664844,123.295312 427.739844,108.478125 Z M218,218.5 C237.75625,218.840625 266.198438,193.634375 280.504687,183.245313 C393.507031,101.239844 402.107812,94.0867188 428.165625,73.6492188 C433.104687,69.8171875 436,63.85625 436,57.5546875 L436,41.375 C436,18.8085938 417.691406,0.5 395.125,0.5 L40.875,0.5 C18.3085938,0.5 0,18.8085937 0,41.375 L0,57.5546875 C0,63.85625 2.8953125,69.7320313 7.834375,73.6492187 C33.8921875,94.0015625 42.4929688,101.239844 155.495312,183.245313 C169.801562,193.634375 198.24375,218.840625 218,218.5 Z" id="path-1"></path>
    </defs>
    <g id="email" stroke="none" stroke-width="1" fill="none" fill-rule="evenodd">
        <g id="envelope" transform="translate(38.000000, 92.000000)">
            <mask id="mask-2" fill="white">
                <use xlink:href="#path-1"></use>
            </mask>
            <use id="Mask" fill="#17191D" xlink:href="#path-1"></use>
        </g>
    </g>
</svg>