<?xml version="1.0" encoding="UTF-8"?>
<svg width="512px" height="512px" viewBox="0 0 512 512" version="1.1" xmlns="http://www.w3.org/2000/svg" xmlns:xlink="http://www.w3.org/1999/xlink">
    <!-- Generator: Sketch 52.6 (67491) - http://www.bohemiancoding.com/sketch -->
    <title>exchange-alt</title>
    <desc>Created with Sketch.</desc>
    <defs>
        <path d="M0,168.023933 L0,152.023933 C0,138.768933 10.745,128.023933 24,128.023933 L384,128.023933 L384,80.0239328 C384,58.6569328 409.899,47.9819328 424.971,63.0529328 L504.971,143.052933 C514.343,152.425933 514.343,167.621933 504.971,176.993933 L424.971,256.993933 C409.956,272.005933 384,261.479933 384,240.023933 L384,192.023933 L24,192.023933 C10.745,192.023933 0,181.278933 0,168.023933 Z M488,320.023933 L128,320.023933 L128,272.023933 C128,250.709933 102.138,239.943933 87.029,255.052933 L7.029,335.052933 C-2.343,344.425933 -2.343,359.621933 7.029,368.993933 L87.029,448.993933 C102.057,464.020933 128,453.460933 128,432.023933 L128,384.023933 L488,384.023933 C501.255,384.023933 512,373.278933 512,360.023933 L512,344.023933 C512,330.768933 501.255,320.023933 488,320.023933 Z" id="path-1"></path>
    </defs>
    <g id="exchange-alt" stroke="none" stroke-width="1" fill="none" fill-rule="evenodd">
        <mask id="mask-2" fill="white">
            <use xlink:href="#path-1"></use>
        </mask>
        <use id="Mask" fill="#17191D" xlink:href="#path-1"></use>
    </g>
</svg>