<?xml version="1.0" encoding="UTF-8"?>
<svg width="512px" height="512px" viewBox="0 0 512 512" version="1.1" xmlns="http://www.w3.org/2000/svg" xmlns:xlink="http://www.w3.org/1999/xlink">
    <!-- Generator: Sketch 54.1 (76490) - https://sketchapp.com -->
    <title>exercises</title>
    <desc>Created with Sketch.</desc>
    <g id="exercises" stroke="none" stroke-width="1" fill="none" fill-rule="evenodd">
        <path d="M169.841924,0 C112.902574,0 71.248592,55.6798528 87.6229167,109.874999 L115.252865,201.499989 C69.8336403,240.615765 41,298.248043 41,362.666667 C41,432.549461 84.9469464,486.011563 92.2348969,494.458325 C92.9985961,495.50838 93.8100269,496.52332 94.6666667,497.499989 C94.6721879,497.506091 94.9182302,497.791659 94.9182302,497.791659 C94.9322058,497.791652 94.9461813,497.791652 94.9601568,497.791659 C102.333882,505.957061 112.589341,510.9858 123.596353,511.833344 L123.93177,512 L255.666667,512 L387.401568,512 L387.69506,511.833344 C398.731781,511.006711 409.020886,505.976203 416.415099,497.791659 C416.415099,497.791659 416.539262,497.626795 416.540893,497.625003 C417.395517,496.675464 418.206918,495.688363 418.972659,494.666667 C425.917147,486.643861 470.333333,432.891371 470.333333,362.666667 C470.333333,298.248043 441.499693,240.615765 396.080477,201.499989 L423.710417,109.874999 L423.710417,109.833333 C440.050393,55.6514219 398.415986,0 341.491409,0 L255.666667,0 L169.841924,0 Z M169.841924,42.6666667 L255.666667,42.6666667 L341.491409,42.6666667 C370.848042,42.6666667 391.063008,69.6451456 382.621864,97.5833344 L359.016924,175.708331 C328.354582,158.935339 293.141649,149.333333 255.666667,149.333333 C218.191684,149.333333 182.978752,158.935339 152.316409,175.708331 L128.711458,97.5833344 C120.270316,69.6451477 140.485283,42.6666667 169.841924,42.6666667 Z" id="Shape" fill="#282828"></path>
    </g>
</svg>