<?xml version="1.0" encoding="UTF-8"?>
<svg width="512px" height="512px" viewBox="0 0 512 512" version="1.1" xmlns="http://www.w3.org/2000/svg" xmlns:xlink="http://www.w3.org/1999/xlink">
    <!-- Generator: Sketch 54.1 (76490) - https://sketchapp.com -->
    <title>expand</title>
    <desc>Created with Sketch.</desc>
    <g id="expand" stroke="none" stroke-width="1" fill="none" fill-rule="evenodd">
        <path d="M23.3396494,0.00970210069 C16.613554,0.0111749528 10.2178196,2.92644107 5.8040831,8.002661 C1.39034662,13.0788809 -0.60865619,19.8183671 0.323297942,26.4807119 L0.323297942,139.720341 C0.204750196,148.104141 4.608795,155.902331 11.8490375,160.128833 C19.0892799,164.355334 28.043989,164.355334 35.2842315,160.128833 C42.524474,155.902331 46.9285188,148.104141 46.809971,139.720341 L46.809971,79.6043555 L146.592894,179.40415 C152.422708,185.477285 161.079699,187.923707 169.225141,185.799911 C177.370584,183.676114 183.731655,177.313967 185.855092,169.167146 C187.97853,161.020325 185.532521,152.36187 179.460413,146.53107 L79.6775016,46.731264 L139.783317,46.731264 C148.165699,46.8498318 155.962571,42.4450418 160.188357,35.2035744 C164.414143,27.9621069 164.414143,19.0058827 160.188357,11.7644152 C155.962571,4.52294777 148.165699,0.118157829 139.783317,0.236725632 L26.290463,0.236725632 C25.3126783,0.0984397658 24.3270768,0.0226116157 23.3396494,0.00970210069 Z M487.9794,0.00970210069 C487.113299,0.0370793945 486.249405,0.112872206 485.391766,0.236725632 L372.216683,0.236725632 C363.834301,0.118157829 356.037429,4.52294777 351.811643,11.7644152 C347.585857,19.0058827 347.585857,27.9621069 351.811643,35.2035744 C356.037429,42.4450418 363.834301,46.8498318 372.216683,46.731264 L432.32251,46.731264 L332.539587,146.53107 C326.467479,152.36187 324.02147,161.020325 326.144908,169.167146 C328.268345,177.313967 334.629416,183.676114 342.774858,185.799911 C350.920301,187.923707 359.577292,185.477285 365.407106,179.40415 L465.190029,79.6043555 L465.190029,139.720341 C465.071481,148.104141 469.475526,155.902331 476.715768,160.128833 C483.956011,164.355334 492.91072,164.355334 500.150962,160.128833 C507.391205,155.902331 511.79525,148.104141 511.676702,139.720341 L511.676702,26.4353077 C512.613638,19.6607835 510.520835,12.8172847 505.955245,7.72605151 C501.389655,2.63481835 494.814424,-0.187679116 487.9794,0.00970210069 Z M162.572688,325.471461 C156.534099,325.651425 150.802762,328.175599 146.592894,332.509223 L46.809971,432.309029 L46.809971,372.193032 C46.8960053,365.909288 44.4350442,359.858341 39.9878271,355.418925 C35.5406099,350.979509 29.4859617,348.529783 23.2034574,348.627926 C10.3843808,348.828343 0.147747526,359.371423 0.323297942,372.193032 L0.323297942,484.887796 C-0.926212451,492.306097 1.49024701,499.870606 6.80879208,505.190052 C12.1273371,510.509498 19.6905661,512.926368 27.1076127,511.676647 L139.783317,511.676647 C148.165699,511.795215 155.962571,507.390425 160.188357,500.148958 C164.414143,492.90749 164.414143,483.951266 160.188357,476.709799 C155.962571,469.468331 148.165699,465.063541 139.783317,465.182109 L79.6775016,465.182109 L179.460413,365.382303 C186.334875,358.698915 188.401869,348.480005 184.665406,339.649602 C180.928942,330.819199 172.155534,325.188809 162.572688,325.471461 Z M348.746352,325.471461 C339.288102,325.473949 330.774397,331.207858 327.215334,339.97242 C323.656271,348.736982 325.761565,358.784452 332.539587,365.382303 L432.32251,465.182109 L372.216683,465.182109 C363.834301,465.063541 356.037429,469.468331 351.811643,476.709799 C347.585857,483.951266 347.585857,492.90749 351.811643,500.148958 C356.037429,507.390425 363.834301,511.795215 372.216683,511.676647 L484.892383,511.676647 C492.30943,512.926369 499.87266,510.509501 505.191206,505.190054 C510.509753,499.870608 512.926213,492.306098 511.676702,484.887796 L511.676702,372.193032 C511.762736,365.909288 509.301775,359.858341 504.854558,355.418925 C500.407341,350.979509 494.352693,348.529783 488.070188,348.627926 C475.251112,348.828343 465.014478,359.371423 465.190029,372.193032 L465.190029,432.309029 L365.407106,332.509223 C361.031059,328.010109 355.022096,325.471829 348.746352,325.471461 Z" id="Shape" fill="#282828"></path>
    </g>
</svg>