<?xml version="1.0" encoding="UTF-8"?>
<svg width="512px" height="512px" viewBox="0 0 512 512" version="1.1" xmlns="http://www.w3.org/2000/svg" xmlns:xlink="http://www.w3.org/1999/xlink">
    <!-- Generator: Sketch 53.2 (72643) - https://sketchapp.com -->
    <title>expand</title>
    <desc>Created with Sketch.</desc>
    <defs>
        <path d="M512,50.3236755 L512,164.035729 C512,183.103537 488.934891,192.449527 475.59782,179.114233 L443.872634,147.387269 L227.505741,363.754162 C219.177957,372.081946 205.677405,372.081946 197.349621,363.754162 L177.245838,343.650379 C168.918054,335.322595 168.918054,321.821154 177.245838,313.494259 L393.614508,97.1255893 L361.892875,65.4021795 C348.502495,52.0117998 357.9862,29 376.971379,29 L490.676325,29 C502.453213,29 512,38.5467872 512,50.3236755 Z M361.601656,269.714313 L347.387371,283.928598 C343.388792,287.927245 341.142553,293.350621 341.142857,299.005513 L341.142857,427.142857 L56.8571429,427.142857 L56.8571429,142.857143 L291.392857,142.857143 C297.047364,142.856821 302.470234,140.61066 306.468884,136.612629 L320.68317,122.398344 C334.114781,108.965844 324.601871,86 305.607143,86 L42.6428571,86 C19.0915625,86 0,105.091562 0,128.642857 L0,441.357143 C0,464.908437 19.0915625,484 42.6428571,484 L355.357143,484 C378.908437,484 398,464.908437 398,441.357143 L398,284.790339 C398,265.794723 375.033268,256.281813 361.601656,269.714313 Z" id="path-1"></path>
    </defs>
    <g id="expand" stroke="none" stroke-width="1" fill="none" fill-rule="evenodd">
        <mask id="mask-2" fill="white">
            <use xlink:href="#path-1"></use>
        </mask>
        <use id="Mask" fill="#000000" xlink:href="#path-1"></use>
    </g>
</svg>