<?xml version="1.0" encoding="UTF-8"?>
<svg width="512px" height="512px" viewBox="0 0 512 512" version="1.1" xmlns="http://www.w3.org/2000/svg" xmlns:xlink="http://www.w3.org/1999/xlink">
    <!-- Generator: Sketch 54.1 (76490) - https://sketchapp.com -->
    <title>file-video</title>
    <desc>Created with Sketch.</desc>
    <g id="file-video" stroke="none" stroke-width="1" fill="none" fill-rule="evenodd">
        <path d="M326.439015,331.126154 L227.2432,390.281846 C224.112369,392.349538 220.565415,393.846154 216.523077,393.846154 C205.584985,393.846154 196.707692,385.024 196.707692,374.153846 L196.707692,256 C196.707692,245.129846 205.584985,236.307692 216.523077,236.307692 C220.565415,236.307692 224.112369,237.804308 227.2432,239.872 L326.439015,299.027692 C331.729723,302.572308 335.415385,308.263385 335.415385,315.076923 C335.415385,321.890462 331.729723,327.581538 326.439015,331.126154 Z M311,65.0048219 L311,135.977385 C311.068867,135.991512 311.152594,136 311.253473,136 L382.868439,135.988529 L311,65.0048219 Z M411.204519,183.983991 L311.257317,184 C284.793628,184 263,162.971346 263,136.594134 L263,48.0205483 L118.286099,48.0205483 C111.106397,48.0205483 105.286099,53.8408465 105.286099,61.0205483 L105.286099,451 C105.286099,458.179702 111.106397,464 118.284259,464 L398.030528,463.978554 C405.207289,463.978554 411.026368,458.162846 411.030527,450.984354 L411.204519,183.983991 Z M118.286099,0.0205482549 L313.51237,0.0205482549 L459.23062,143.944944 L459.224079,153.982437 L459.030518,451.013901 C459.011005,484.689462 431.706095,511.978554 398.032368,511.978554 L118.286099,512 C84.596729,512 57.2860988,484.68937 57.2860988,451 L57.2860988,61.0205483 C57.2860988,27.3311785 84.596729,0.0205482549 118.286099,0.0205482549 Z" id="Combined-Shape" fill="#282828"></path>
    </g>
</svg>