<svg width="40" height="40" viewBox="0 0 40 40" fill="none" xmlns="http://www.w3.org/2000/svg">
<g id="file-image">
<path id="Vector" d="M9.33329 2.66667C7.85996 2.66667 6.66663 3.86 6.66663 5.33333V34.6667C6.66663 36.14 7.85996 37.3333 9.33329 37.3333H30.6666C32.14 37.3333 33.3333 36.14 33.3333 34.6667V12.6667C33.3333 12.3133 33.1933 11.9746 32.9427 11.724L24.276 3.05729C24.0253 2.80663 23.6866 2.66667 23.3333 2.66667H9.33329ZM22.6666 5.20573L30.7942 13.3333H24C23.264 13.3333 22.6666 12.736 22.6666 12V5.20573ZM13.3333 13.3333C14.8066 13.3333 16 14.5267 16 16C16 17.4733 14.8066 18.6667 13.3333 18.6667C11.86 18.6667 10.6666 17.4733 10.6666 16C10.6666 14.5267 11.86 13.3333 13.3333 13.3333ZM16 24.0026C16.8256 24.0026 17.6512 24.3179 18.2812 24.9479L20 26.6667L20.0208 26.6458L21.5807 28.2083C22.1434 28.771 23.0519 28.7658 23.6145 28.2031C24.1772 27.6405 24.1772 26.7255 23.6145 26.1615L22.0937 24.6406C23.3563 23.7096 25.1381 23.8048 26.2812 24.9479L29.3333 28V32H10.6666V28L13.7187 24.9479C14.3487 24.3179 15.1743 24.0026 16 24.0026Z" fill="#282828"/>
</g>
</svg>
