<svg aria-hidden="true" focusable="false" data-prefix="fas" data-icon="file-image" role="img"
		 xmlns="http://www.w3.org/2000/svg" viewBox="0 0 512 512">
	<path fill="currentColor"
				d="M448 121.941V128H320V0h6.059a24 24 0 0 1 16.97 7.029l97.941 97.941a24.002 24.002 0 0 1 7.03 16.971zM312 160c-13.2 0-24-10.8-24-24V0H88C74.745 0 64 10.745 64 24v464c0 13.255 10.745 24 24 24h336c13.255 0 24-10.745 24-24V160H312z m-135.455 16c26.51 0 48 21.49 48 48s-21.49 48-48 48-48-21.49-48-48 21.491-48 48-48z m208 240h-256l0.485-48.485L168.545 328c4.686-4.686 11.799-4.201 16.485 0.485L224.545 368 328.06 264.485c4.686-4.686 12.284-4.686 16.971 0L384.545 304v112z"></path>
</svg>