<?xml version="1.0" encoding="UTF-8"?>
<svg width="512px" height="512px" viewBox="0 0 512 512" version="1.1" xmlns="http://www.w3.org/2000/svg" xmlns:xlink="http://www.w3.org/1999/xlink">
    <!-- Generator: Sketch 54.1 (76490) - https://sketchapp.com -->
    <title>file-image</title>
    <desc>Created with Sketch.</desc>
    <g id="file-image" stroke="none" stroke-width="1" fill="none" fill-rule="evenodd">
        <path d="M310.713901,64.9842737 L310.713901,135.956837 C310.782768,135.970963 310.866495,135.979452 310.967375,135.979452 L382.58234,135.967981 L310.713901,64.9842737 Z M410.91842,183.963443 L310.971219,183.979452 C284.507529,183.979452 262.713901,162.950798 262.713901,136.573586 L262.713901,48 L118,48 C110.820298,48 105,53.8202983 105,61 L105,450.979452 C105,458.159153 110.820298,463.979452 117.99816,463.979452 L397.74443,463.958006 C404.92119,463.958006 410.740269,458.142298 410.744429,450.963806 L410.91842,183.963443 Z M118,0 L313.226271,7.99360578e-15 L458.944521,143.924396 L458.937981,153.961888 L458.744419,450.993352 C458.724906,484.668914 431.419997,511.958006 397.74627,511.958006 L118,511.979452 C84.3106303,511.979452 57,484.668821 57,450.979452 L57,61 C57,27.3106303 84.3106303,5.85642645e-15 118,0 Z" id="Combined-Shape" fill="#282828"></path>
        <path d="M172.5,189 C191.56125,189 207,204.215 207,223 C207,241.785 191.56125,257 172.5,257 C153.43875,257 138,241.785 138,223 C138,204.215 153.43875,189 172.5,189 Z M207.571429,325 C218.187143,325 228.801777,329.021537 236.901794,337.056669 L259,358.977859 L259.267857,358.712147 L279.323663,378.640509 C286.557949,385.816845 298.23892,385.750421 305.473223,378.574085 C312.707509,371.397749 312.707509,359.727701 305.473223,352.534359 L285.919634,333.137421 C302.153457,321.263374 325.06192,322.477382 339.758937,337.056669 L379,375.983394 L379,427 L139,427 L139,375.983394 L178.241063,337.056669 C186.34108,329.021537 196.955714,325 207.571429,325 Z" id="Shape" fill="#282828"></path>
    </g>
</svg>