<svg width="40" height="40" viewBox="0 0 40 40" fill="none" xmlns="http://www.w3.org/2000/svg">
<g id="file-video">
<path id="Vector" d="M32.9426 11.724L24.276 3.05733C24.0253 2.80667 23.6866 2.66667 23.3333 2.66667H9.33329C7.85996 2.66667 6.66663 3.86 6.66663 5.33333V34.6667C6.66663 36.14 7.85996 37.3333 9.33329 37.3333H30.6666C32.14 37.3333 33.3333 36.14 33.3333 34.6667V12.6667C33.3333 12.3133 33.1933 11.9747 32.9426 11.724ZM24.7293 25.0867L18.0546 29.092C17.844 29.232 17.6053 29.3333 17.3333 29.3333C16.5973 29.3333 16 28.736 16 28V20C16 19.264 16.5973 18.6667 17.3333 18.6667C17.6053 18.6667 17.844 18.768 18.0546 18.908L24.7293 22.9133C25.0853 23.1533 25.3333 23.5387 25.3333 24C25.3333 24.4613 25.0853 24.8467 24.7293 25.0867ZM24 13.3333C23.264 13.3333 22.6666 12.736 22.6666 12V5.20533L30.7946 13.3333H24Z" fill="#282828"/>
</g>
</svg>
