<?xml version="1.0" encoding="UTF-8"?>
<svg width="512px" height="512px" viewBox="0 0 512 512" version="1.1" xmlns="http://www.w3.org/2000/svg" xmlns:xlink="http://www.w3.org/1999/xlink">
    <!-- Generator: Sketch 52.6 (67491) - http://www.bohemiancoding.com/sketch -->
    <title>filter-alt</title>
    <desc>Created with Sketch.</desc>
    <g id="filter-alt" stroke="none" stroke-width="1" fill="none" fill-rule="evenodd">
        <path d="M89.0851675,131.999997 C101.928751,103.129886 130.863582,83 164.5,83 C198.136418,83 227.071249,103.129886 239.914833,131.999997 L239.914848,132 L488,132 C501.255,132 512,142.745 512,156 L512,172 C512,185.255 501.255,196 488,196 L241.178745,196 C229.049919,226.466048 199.289722,248 164.5,248 C129.71028,248 99.9500833,226.46605 87.8212624,196.000001 L24,196 C10.745,196 0,185.255 0,172 L0,156 C0,142.745 10.745,132 24,132 L89.085152,132 L89.0851675,131.999997 Z M165,206 C187.09139,206 205,188.09139 205,166 C205,143.90861 187.09139,126 165,126 C142.90861,126 125,143.90861 125,166 C125,188.09139 142.90861,206 165,206 Z M422.914833,318.999997 L422.914848,319 L488,319 C501.255,319 512,329.745 512,343 L512,359 C512,372.255 501.255,383 488,383 L424.178738,383.000001 C412.049917,413.46605 382.28972,435 347.5,435 C312.710278,435 282.950081,413.466048 270.821255,383 L24,383 C10.745,383 0,372.255 0,359 L0,343 C0,329.745 10.745,319 24,319 L272.085152,319 L272.085167,318.999997 C284.928751,290.129886 313.863582,270 347.5,270 C381.136418,270 410.071249,290.129886 422.914833,318.999997 Z M347,393 C369.09139,393 387,375.09139 387,353 C387,330.90861 369.09139,313 347,313 C324.90861,313 307,330.90861 307,353 C307,375.09139 324.90861,393 347,393 Z" id="Combined-Shape" fill="#17191D"></path>
    </g>
</svg>