<?xml version="1.0" encoding="UTF-8"?>
<svg width="512px" height="512px" viewBox="0 0 512 512" version="1.1" xmlns="http://www.w3.org/2000/svg" xmlns:xlink="http://www.w3.org/1999/xlink">
    <!-- Generator: Sketch 54.1 (76490) - https://sketchapp.com -->
    <title>filter-alt</title>
    <desc>Created with Sketch.</desc>
    <g id="filter-alt" stroke="none" stroke-width="1" fill="none" fill-rule="evenodd">
        <path d="M362.540217,21 C334.985529,21 311.504449,38.9812049 302.611345,63.6767414 L21.6115229,63.6767414 C13.9270772,63.5679096 6.77939104,67.6110099 2.9054533,74.2578601 C-0.968484434,80.9047104 -0.968484434,89.1255139 2.9054533,95.7723642 C6.77939104,102.419214 13.9270772,106.462315 21.6115229,106.353483 L302.611345,106.353483 C311.504449,131.049019 334.985529,149.030224 362.540217,149.030224 C390.094905,149.030224 413.575985,131.049019 422.469089,106.353483 L490.388477,106.353483 C498.072923,106.462315 505.220609,102.419214 509.094547,95.7723642 C512.968484,89.1255139 512.968484,80.9047104 509.094547,74.2578601 C505.220609,67.6110099 498.072923,63.5679096 490.388477,63.6767414 L422.469089,63.6767414 C413.575985,38.9812049 390.094905,21 362.540217,21 Z M362.540217,63.6767414 C374.12817,63.6767414 382.9624,72.4001128 383.598551,83.806494 C383.551359,84.6254509 383.551359,85.4464515 383.598551,86.2654084 C382.942391,97.6508311 374.11383,106.353483 362.540217,106.353483 C350.952264,106.353483 342.118034,97.6301115 341.481882,86.2237303 C341.529075,85.4047734 341.529075,84.5837728 341.481882,83.7648159 C342.138042,72.3793932 350.966604,63.6767414 362.540217,63.6767414 Z M192.07587,191.706966 C164.521182,191.706966 141.040093,209.688171 132.146998,234.383707 L21.6115229,234.383707 C13.9270772,234.274875 6.77939104,238.317976 2.9054533,244.964826 C-0.968484434,251.611676 -0.968484434,259.83248 2.9054533,266.47933 C6.77939104,273.12618 13.9270772,277.169281 21.6115229,277.060449 L132.146998,277.060449 C141.040093,301.755985 164.521182,319.73719 192.07587,319.73719 C219.630558,319.73719 243.111638,301.755985 252.004742,277.060449 L490.388477,277.060449 C498.072923,277.169281 505.220609,273.12618 509.094547,266.47933 C512.968484,259.83248 512.968484,251.611676 509.094547,244.964826 C505.220609,238.317976 498.072923,234.274875 490.388477,234.383707 L252.004742,234.383707 C243.111638,209.688171 219.630558,191.706966 192.07587,191.706966 Z M192.07587,234.383707 C203.663823,234.383707 212.498053,243.107089 213.134204,254.513451 C213.087011,255.332412 213.087011,256.153417 213.134204,256.972378 C212.478044,268.357786 203.649483,277.060449 192.07587,277.060449 C180.487917,277.060449 171.653687,268.337067 171.017535,256.930705 C171.064729,256.111743 171.064729,255.290739 171.017535,254.471777 C171.673695,243.08637 180.502257,234.383707 192.07587,234.383707 Z M277.308043,362.413932 C249.753355,362.413932 226.272275,380.395136 217.379171,405.090673 L21.6115229,405.090673 C13.9270772,404.981841 6.77939104,409.024941 2.9054533,415.671792 C-0.968484434,422.318642 -0.968484434,430.539445 2.9054533,437.186296 C6.77939104,443.833146 13.9270772,447.876246 21.6115229,447.767414 L217.379171,447.767414 C226.272275,472.462951 249.753355,490.444156 277.308043,490.444156 C304.862731,490.444156 328.343812,472.462951 337.236915,447.767414 L490.388477,447.767414 C498.072923,447.876246 505.220609,443.833146 509.094547,437.186296 C512.968484,430.539445 512.968484,422.318642 509.094547,415.671792 C505.220609,409.024941 498.072923,404.981841 490.388477,405.090673 L337.236915,405.090673 C328.343812,380.395136 304.862731,362.413932 277.308043,362.413932 Z M277.308043,405.090673 C288.895997,405.090673 297.730226,413.814055 298.366378,425.220417 C298.319185,426.039378 298.319185,426.860383 298.366378,427.679344 C297.710218,439.064752 288.881656,447.767414 277.308043,447.767414 C265.72009,447.767414 256.885861,439.044032 256.249709,427.63767 C256.296902,426.818709 256.296902,425.997704 256.249709,425.178743 C256.905869,413.793335 265.73443,405.090673 277.308043,405.090673 Z" id="Shape" fill="#282828"></path>
    </g>
</svg>