<?xml version="1.0" encoding="UTF-8"?>
<svg width="512px" height="512px" viewBox="0 0 512 512" version="1.1" xmlns="http://www.w3.org/2000/svg" xmlns:xlink="http://www.w3.org/1999/xlink">
    <!-- Generator: Sketch 54.1 (76490) - https://sketchapp.com -->
    <title>form</title>
    <desc>Created with Sketch.</desc>
    <g id="form" stroke="none" stroke-width="1" fill="none" fill-rule="evenodd">
        <path d="M354.745946,256 C343.899295,256 335.096216,247.177846 335.096216,236.307692 C335.096216,225.437538 343.899295,216.615385 354.745946,216.615385 C365.592597,216.615385 374.395676,225.437538 374.395676,236.307692 C374.395676,247.177846 365.592597,256 354.745946,256 Z M354.745946,334.769231 C343.899295,334.769231 335.096216,325.947077 335.096216,315.076923 C335.096216,304.206769 343.899295,295.384615 354.745946,295.384615 C365.592597,295.384615 374.395676,304.206769 374.395676,315.076923 C374.395676,325.947077 365.592597,334.769231 354.745946,334.769231 Z M354.745946,413.538462 C343.899295,413.538462 335.096216,404.716308 335.096216,393.846154 C335.096216,382.976 343.899295,374.153846 354.745946,374.153846 C365.592597,374.153846 374.395676,382.976 374.395676,393.846154 C374.395676,404.716308 365.592597,413.538462 354.745946,413.538462 Z M158.248649,413.538462 C147.401998,413.538462 138.598919,404.716308 138.598919,393.846154 C138.598919,382.976 147.401998,374.153846 158.248649,374.153846 L276.147027,374.153846 C286.993678,374.153846 295.796757,382.976 295.796757,393.846154 C295.796757,404.716308 286.993678,413.538462 276.147027,413.538462 L158.248649,413.538462 Z M158.248649,334.769231 C147.401998,334.769231 138.598919,325.947077 138.598919,315.076923 C138.598919,304.206769 147.401998,295.384615 158.248649,295.384615 L276.147027,295.384615 C286.993678,295.384615 295.796757,304.206769 295.796757,315.076923 C295.796757,325.947077 286.993678,334.769231 276.147027,334.769231 L158.248649,334.769231 Z M158.248649,256 C147.401998,256 138.598919,247.177846 138.598919,236.307692 C138.598919,225.437538 147.401998,216.615385 158.248649,216.615385 L276.147027,216.615385 C286.993678,216.615385 295.796757,225.437538 295.796757,236.307692 C295.796757,247.177846 286.993678,256 276.147027,256 L158.248649,256 Z M311,65.0048219 L311,135.977385 C311.068867,135.991512 311.152594,136 311.253473,136 L382.868439,135.988529 L311,65.0048219 Z M411.204519,183.983991 L311.257317,184 C284.793628,184 263,162.971346 263,136.594134 L263,48.0205483 L118.286099,48.0205483 C111.106397,48.0205483 105.286099,53.8408465 105.286099,61.0205483 L105.286099,451 C105.286099,458.179702 111.106397,464 118.284259,464 L398.030528,463.978554 C405.207289,463.978554 411.026368,458.162846 411.030527,450.984354 L411.204519,183.983991 Z M118.286099,0.0205482549 L313.51237,0.0205482549 L459.23062,143.944944 L459.224079,153.982437 L459.030518,451.013901 C459.011005,484.689462 431.706095,511.978554 398.032368,511.978554 L118.286099,512 C84.596729,512 57.2860988,484.68937 57.2860988,451 L57.2860988,61.0205483 C57.2860988,27.3311785 84.596729,0.0205482549 118.286099,0.0205482549 Z" id="Combined-Shape" fill="#282828"></path>
    </g>
</svg>