<svg width="40" height="40" viewBox="0 0 40 40" fill="none" xmlns="http://www.w3.org/2000/svg">
<g id="form">
<path id="Vector" d="M32.9426 10.3907L25.6093 3.05733C25.3586 2.80667 25.02 2.66667 24.6666 2.66667H9.33329C7.85996 2.66667 6.66663 3.86 6.66663 5.33333V34.6667C6.66663 36.14 7.85996 37.3333 9.33329 37.3333H30.6666C32.14 37.3333 33.3333 36.14 33.3333 34.6667V11.3333C33.3333 10.98 33.1933 10.6413 32.9426 10.3907ZM13.3333 20C12.5973 20 12 19.4027 12 18.6667C12 17.9307 12.5973 17.3333 13.3333 17.3333C14.0693 17.3333 14.6666 17.9307 14.6666 18.6667C14.6666 19.4027 14.0693 20 13.3333 20ZM13.3333 25.3333C12.5973 25.3333 12 24.736 12 24C12 23.264 12.5973 22.6667 13.3333 22.6667C14.0693 22.6667 14.6666 23.264 14.6666 24C14.6666 24.736 14.0693 25.3333 13.3333 25.3333ZM13.3333 30.6667C12.5973 30.6667 12 30.0693 12 29.3333C12 28.5973 12.5973 28 13.3333 28C14.0693 28 14.6666 28.5973 14.6666 29.3333C14.6666 30.0693 14.0693 30.6667 13.3333 30.6667ZM26.6666 30.6667H18.6666C17.9306 30.6667 17.3333 30.0693 17.3333 29.3333C17.3333 28.5973 17.9306 28 18.6666 28H26.6666C27.4026 28 28 28.5973 28 29.3333C28 30.0693 27.4026 30.6667 26.6666 30.6667ZM26.6666 25.3333H18.6666C17.9306 25.3333 17.3333 24.736 17.3333 24C17.3333 23.264 17.9306 22.6667 18.6666 22.6667H26.6666C27.4026 22.6667 28 23.264 28 24C28 24.736 27.4026 25.3333 26.6666 25.3333ZM26.6666 20H18.6666C17.9306 20 17.3333 19.4027 17.3333 18.6667C17.3333 17.9307 17.9306 17.3333 18.6666 17.3333H26.6666C27.4026 17.3333 28 17.9307 28 18.6667C28 19.4027 27.4026 20 26.6666 20ZM25.3333 12C24.5973 12 24 11.4027 24 10.6667V5.20533L30.7946 12H25.3333Z" fill="#282828"/>
</g>
</svg>
