<svg width="41" height="40" viewBox="0 0 41 40" fill="none" xmlns="http://www.w3.org/2000/svg">
<g id="groups">
<path id="Vector" d="M12 5.33333C8.3187 5.33333 5.33337 8.31867 5.33337 12V13.3333C5.33337 17.0147 8.3187 20 12 20C15.6814 20 18.6667 17.0147 18.6667 13.3333V12C18.6667 8.31867 15.6814 5.33333 12 5.33333ZM28 5.33333C24.3187 5.33333 21.3334 8.31867 21.3334 12V13.3333C21.3334 17.0147 24.3187 20 28 20C31.6814 20 34.6667 17.0147 34.6667 13.3333V12C34.6667 8.31867 31.6814 5.33333 28 5.33333ZM28 8C30.2054 8 32 9.79467 32 12V13.3333C32 15.5387 30.2054 17.3333 28 17.3333C25.7947 17.3333 24 15.5387 24 13.3333V12C24 9.79467 25.7947 8 28 8ZM11.9974 22.6667C7.62676 22.6667 2.01962 25.1654 0.406284 27.8854C-0.589716 29.5654 0.358825 32 1.99483 32H17.9948H22.0052H38.0052C39.6412 32 40.5911 29.5654 39.5938 27.8854C37.9791 25.1654 32.3681 22.6667 27.9974 22.6667C25.3969 22.6667 22.3746 23.5621 20 24.8516C17.6248 23.5615 14.5987 22.6667 11.9974 22.6667ZM27.9974 25.3333C31.6908 25.3333 36.2768 27.5208 37.2995 29.2448C37.3142 29.2688 37.3202 29.3 37.3256 29.3333H23.9896C23.9773 28.8369 23.858 28.3349 23.5912 27.8854C23.3287 27.4429 22.9307 27.0122 22.4792 26.5911C24.1879 25.8574 26.196 25.3333 27.9974 25.3333Z" fill="#282828"/>
</g>
</svg>
