<?xml version="1.0" encoding="UTF-8"?>
<svg width="512px" height="512px" viewBox="0 0 512 512" version="1.1" xmlns="http://www.w3.org/2000/svg" xmlns:xlink="http://www.w3.org/1999/xlink">
    <!-- Generator: Sketch 54.1 (76490) - https://sketchapp.com -->
    <title>groups</title>
    <desc>Created with Sketch.</desc>
    <g id="groups" stroke="none" stroke-width="1" fill="none" fill-rule="evenodd">
        <path d="M256,331 C167.082155,331 95,258.917845 95,170 C95,81.0821553 167.082155,9 256,9 C344.917845,9 417,81.0821553 417,170 C417,258.917845 344.917845,331 256,331 Z M256,283 C318.408177,283 369,232.408177 369,170 C369,107.591823 318.408177,57 256,57 C193.591823,57 143,107.591823 143,170 C143,232.408177 193.591823,283 256,283 Z M505.756107,463.674092 C514.026466,474.032267 512.333958,489.133677 501.975783,497.404037 C491.617609,505.674396 476.516198,503.981888 468.245839,493.623713 C437.589029,455.22773 352.994524,427 256.140456,427 C159.034506,427 74.2743354,455.377614 43.8271443,493.885405 C35.6061624,504.282812 20.5129757,506.047153 10.1155683,497.826171 C-0.281839121,489.60519 -2.04618059,474.512003 6.17480131,464.114595 C47.4313564,411.935766 145.806124,379 256.140456,379 C366.154649,379 464.296557,411.748265 505.756107,463.674092 Z" id="Combined-Shape" fill="#282828"></path>
    </g>
</svg>