<?xml version="1.0" encoding="UTF-8"?>
<svg width="512px" height="512px" viewBox="0 0 512 512" version="1.1" xmlns="http://www.w3.org/2000/svg" xmlns:xlink="http://www.w3.org/1999/xlink">
    <!-- Generator: Sketch 54.1 (76490) - https://sketchapp.com -->
    <title>History</title>
    <desc>Created with Sketch.</desc>
    <g id="History" stroke="none" stroke-width="1" fill="none" fill-rule="evenodd">
        <path d="M99.834116 158.536623C134.242344 100.998164 196.377348 65 264.80796 65 370.831809 65 456.760728 150.74876 456.760728 256.5 456.760728 362.25124 370.831809 448 264.80796 448 215.631051 448 169.420001 429.507888 134.135409 396.777341 124.417723 387.763062 109.232466 388.333286 100.218188 398.050971 91.203909 407.768656 91.774133 422.953913 101.491818 431.968192 145.569784 472.855611 203.406688 496 264.80796 496 397.318951 496 504.760728 388.783487 504.760728 256.5 504.760728 124.216513 397.318951 17 264.80796 17 181.417717 17 105.443329 59.831661 61.863206 128.661184L50.892066 66.399457C49.707668 58.773418 44.493284 52.384423 37.259903 49.696464 30.026522 47.008505 21.904426 48.4416 16.025997 53.443059 10.147569 58.444517 7.431366 66.232816 8.924924 73.804305L29.37443 189.856219C29.615665 196.40629 32.857168 202.480413 38.163732 206.32614 43.616879 210.256399 50.605164 211.382719 57.018058 209.364943L173.239222 188.858415C180.864965 187.672348 187.254633 182.4562 189.943956 175.221658 192.633279 167.987116 191.202021 159.864653 186.202168 153.986819 181.202315 148.108984 173.415148 145.394252 165.843903 146.889599L99.834116 158.536623Z" id="Combined-Shape" fill="#282828"></path>
        <path d="M280.119625,174.023621 C280.13267,160.768794 269.398085,150.013057 256.143258,150.000012 C242.88843,149.986966 232.132694,160.721551 232.119648,173.976379 L232.000012,295.530065 C231.992775,302.882836 235.356394,309.833211 241.127116,314.389751 L294.646648,356.648565 C305.049519,364.862632 320.141529,363.088255 328.355596,352.685384 C336.569663,342.282512 334.795286,327.190502 324.392415,318.976435 L280.011449,283.933397 L280.119625,174.023621 Z" id="Line-3" fill="#282828"></path>
    </g>
</svg>
