<?xml version="1.0" encoding="UTF-8"?>
<svg width="512px" height="512px" viewBox="0 0 512 512" version="1.1" xmlns="http://www.w3.org/2000/svg" xmlns:xlink="http://www.w3.org/1999/xlink">
    <!-- Generator: Sketch 52.6 (67491) - http://www.bohemiancoding.com/sketch -->
    <title>home</title>
    <desc>Created with Sketch.</desc>
    <defs>
        <path d="M56,156 L156,156 L156,56 L56,56 L56,156 L56,156 Z M206,456 L306,456 L306,356 L206,356 L206,456 L206,456 Z M56,456 L156,456 L156,356 L56,356 L56,456 L56,456 Z M56,306 L156,306 L156,206 L56,206 L56,306 L56,306 Z M206,306 L306,306 L306,206 L206,206 L206,306 L206,306 Z M356,56 L356,156 L456,156 L456,56 L356,56 L356,56 Z M206,156 L306,156 L306,56 L206,56 L206,156 L206,156 Z M356,306 L456,306 L456,206 L356,206 L356,306 L356,306 Z M356,456 L456,456 L456,356 L356,356 L356,456 L356,456 Z" id="path-1"></path>
    </defs>
    <g id="home" stroke="none" stroke-width="1" fill="none" fill-rule="evenodd">
        <mask id="mask-2" fill="white">
            <use xlink:href="#path-1"></use>
        </mask>
        <use id="Mask" fill="#17191D" xlink:href="#path-1"></use>
    </g>
</svg>