<?xml version="1.0" encoding="UTF-8"?>
<svg width="512px" height="512px" viewBox="0 0 512 512" version="1.1" xmlns="http://www.w3.org/2000/svg" xmlns:xlink="http://www.w3.org/1999/xlink">
    <!-- Generator: Sketch 54.1 (76490) - https://sketchapp.com -->
    <title>home</title>
    <desc>Created with Sketch.</desc>
    <g id="home" stroke="none" stroke-width="1" fill="none" fill-rule="evenodd">
        <path d="M61.5,8 C31.9527659,8 8,31.9527659 8,61.5 C8,91.0472341 31.9527659,115 61.5,115 C91.0472341,115 115,91.0472341 115,61.5 C115,31.9527659 91.0472341,8 61.5,8 L61.5,8 Z M256.5,8 C226.952766,8 203,31.9527659 203,61.5 C203,91.0472341 226.952766,115 256.5,115 C286.047234,115 310,91.0472341 310,61.5 C310,31.9527659 286.047234,8 256.5,8 Z M450.5,8 C420.952766,8 397,31.9527659 397,61.5 C397,91.0472341 420.952766,115 450.5,115 C480.047234,115 504,91.0472341 504,61.5 C504,31.9527659 480.047234,8 450.5,8 Z M61.5,203 C31.9527659,203 8,226.952766 8,256.5 C8,286.047234 31.9527659,310 61.5,310 C91.0472341,310 115,286.047234 115,256.5 C115,226.952766 91.0472341,203 61.5,203 Z M256.5,203 C226.952766,203 203,226.952766 203,256.5 C203,286.047234 226.952766,310 256.5,310 C286.047234,310 310,286.047234 310,256.5 C310,226.952766 286.047234,203 256.5,203 Z M450.5,197 C420.952766,197 397,220.952766 397,250.5 C397,280.047234 420.952766,304 450.5,304 C480.047234,304 504,280.047234 504,250.5 C504,220.952766 480.047234,197 450.5,197 Z M61.5,397 C31.9527659,397 8,420.952766 8,450.5 C8,480.047234 31.9527659,504 61.5,504 C91.0472341,504 115,480.047234 115,450.5 C115,420.952766 91.0472341,397 61.5,397 Z M256.5,397 C226.952766,397 203,420.952766 203,450.5 C203,480.047234 226.952766,504 256.5,504 C286.047234,504 310,480.047234 310,450.5 C310,420.952766 286.047234,397 256.5,397 Z M450.5,397 C420.952766,397 397,420.952766 397,450.5 C397,480.047234 420.952766,504 450.5,504 C480.047234,504 504,480.047234 504,450.5 C504,420.952766 480.047234,397 450.5,397 Z" id="Shape" fill="#282828"></path>
    </g>
</svg>