<?xml version="1.0" encoding="UTF-8"?>
<svg width="512px" height="512px" viewBox="0 0 512 512" version="1.1" xmlns="http://www.w3.org/2000/svg" xmlns:xlink="http://www.w3.org/1999/xlink">
    <!-- Generator: Sketch 52.6 (67491) - http://www.bohemiancoding.com/sketch -->
    <title>home</title>
    <desc>Created with Sketch.</desc>
    <defs>
        <path d="M85.3333333,170.666667 L170.666667,170.666667 L170.666667,85.3333333 L85.3333333,85.3333333 L85.3333333,170.666667 L85.3333333,170.666667 Z M213.333333,426.666667 L298.666667,426.666667 L298.666667,341.333333 L213.333333,341.333333 L213.333333,426.666667 L213.333333,426.666667 Z M85.3333333,426.666667 L170.666667,426.666667 L170.666667,341.333333 L85.3333333,341.333333 L85.3333333,426.666667 L85.3333333,426.666667 Z M85.3333333,298.666667 L170.666667,298.666667 L170.666667,213.333333 L85.3333333,213.333333 L85.3333333,298.666667 L85.3333333,298.666667 Z M213.333333,298.666667 L298.666667,298.666667 L298.666667,213.333333 L213.333333,213.333333 L213.333333,298.666667 L213.333333,298.666667 Z M341.333333,85.3333333 L341.333333,170.666667 L426.666667,170.666667 L426.666667,85.3333333 L341.333333,85.3333333 L341.333333,85.3333333 Z M213.333333,170.666667 L298.666667,170.666667 L298.666667,85.3333333 L213.333333,85.3333333 L213.333333,170.666667 L213.333333,170.666667 Z M341.333333,298.666667 L426.666667,298.666667 L426.666667,213.333333 L341.333333,213.333333 L341.333333,298.666667 L341.333333,298.666667 Z M341.333333,426.666667 L426.666667,426.666667 L426.666667,341.333333 L341.333333,341.333333 L341.333333,426.666667 L341.333333,426.666667 Z" id="path-1"></path>
    </defs>
    <g id="home" stroke="none" stroke-width="1" fill="none" fill-rule="evenodd">
        <mask id="mask-2" fill="white">
            <use xlink:href="#path-1"></use>
        </mask>
        <use id="Mask" fill="#17191D" xlink:href="#path-1"></use>
    </g>
</svg>