<?xml version="1.0" encoding="UTF-8"?>
<svg width="512px" height="512px" viewBox="0 0 512 512" version="1.1" xmlns="http://www.w3.org/2000/svg" xmlns:xlink="http://www.w3.org/1999/xlink">
    <!-- Generator: Sketch 54.1 (76490) - https://sketchapp.com -->
    <title>info</title>
    <desc>Created with Sketch.</desc>
    <g id="info" stroke="none" stroke-width="1" fill="none" fill-rule="evenodd">
        <path d="M256,0 C114.624,0 0,114.624 0,256 C0,397.376 114.624,512 256,512 C397.376,512 512,397.376 512,256 C512,114.624 397.376,0 256,0 Z M277.333333,384 L234.666667,384 L234.666667,234.666667 L277.333333,234.666667 L277.333333,384 Z M256,181.333333 C238.336,181.333333 224,166.997333 224,149.333333 C224,131.669333 238.336,117.333333 256,117.333333 C273.664,117.333333 288,131.669333 288,149.333333 C288,166.997333 273.664,181.333333 256,181.333333 Z" id="Shape" fill="#282828"></path>
    </g>
</svg>