<?xml version="1.0" encoding="UTF-8"?>
<svg width="512px" height="512px" viewBox="0 0 512 512" version="1.1" xmlns="http://www.w3.org/2000/svg" xmlns:xlink="http://www.w3.org/1999/xlink">
    <!-- Generator: Sketch 52.6 (67491) - http://www.bohemiancoding.com/sketch -->
    <title>info</title>
    <desc>Created with Sketch.</desc>
    <defs>
        <path d="M256,8 C119.043,8 8,119.083 8,256 C8,392.997 119.043,504 256,504 C392.957,504 504,392.997 504,256 C504,119.083 392.957,8 256,8 Z M256,118 C279.196,118 298,136.804 298,160 C298,183.196 279.196,202 256,202 C232.804,202 214,183.196 214,160 C214,136.804 232.804,118 256,118 Z M312,372 C312,378.627 306.627,384 300,384 L212,384 C205.373,384 200,378.627 200,372 L200,348 C200,341.373 205.373,336 212,336 L224,336 L224,272 L212,272 C205.373,272 200,266.627 200,260 L200,236 C200,229.373 205.373,224 212,224 L276,224 C282.627,224 288,229.373 288,236 L288,336 L300,336 C306.627,336 312,341.373 312,348 L312,372 Z" id="path-1"></path>
    </defs>
    <g id="info" stroke="none" stroke-width="1" fill="none" fill-rule="evenodd">
        <mask id="mask-2" fill="white">
            <use xlink:href="#path-1"></use>
        </mask>
        <use id="Mask" fill="#17191D" xlink:href="#path-1"></use>
    </g>
</svg>