<?xml version="1.0" encoding="UTF-8"?>
<svg width="512px" height="512px" viewBox="0 0 512 512" version="1.1" xmlns="http://www.w3.org/2000/svg" xmlns:xlink="http://www.w3.org/1999/xlink">
    <!-- Generator: Sketch 54.1 (76490) - https://sketchapp.com -->
    <title>instagram</title>
    <desc>Created with Sketch.</desc>
    <g id="instagram" stroke="none" stroke-width="1" fill="none" fill-rule="evenodd">
        <path d="M149.291667,0 C66.9663339,0 0,67.0283328 0,149.374997 L0,362.708331 C0,445.033664 67.0283328,512 149.374997,512 L362.708331,512 C445.033664,512 512,444.971669 512,362.625003 L512,149.291667 C512,66.9663339 444.971669,0 362.625003,0 L149.291667,0 Z M405.333333,85.3333333 C417.109333,85.3333333 426.666667,94.8906667 426.666667,106.666667 C426.666667,118.442667 417.109333,128 405.333333,128 C393.557333,128 384,118.442667 384,106.666667 C384,94.8906667 393.557333,85.3333333 405.333333,85.3333333 Z M256,128 C326.592,128 384,185.408 384,256 C384,326.592 326.592,384 256,384 C185.408,384 128,326.592 128,256 C128,185.408 185.408,128 256,128 Z M256,170.666667 C208.871701,170.666667 170.666667,208.871701 170.666667,256 C170.666667,303.128299 208.871701,341.333333 256,341.333333 C303.128299,341.333333 341.333333,303.128299 341.333333,256 C341.333333,208.871701 303.128299,170.666667 256,170.666667 Z" id="Shape" fill="#282828"></path>
    </g>
</svg>