<?xml version="1.0" encoding="UTF-8"?>
<svg width="512px" height="512px" viewBox="0 0 512 512" version="1.1" xmlns="http://www.w3.org/2000/svg" xmlns:xlink="http://www.w3.org/1999/xlink">
    <!-- Generator: Sketch 53.2 (72643) - https://sketchapp.com -->
    <title>instagram</title>
    <desc>Created with Sketch.</desc>
    <g id="instagram" stroke="none" stroke-width="1" fill="none" fill-rule="evenodd">
        <path d="M176.684749,64.1911396 C197.312186,63.2499696 315.528815,63.2499696 336.156251,64.1911396 C356.740698,65.1300065 370.799137,68.3995358 383.100366,73.1806178 C395.817676,78.122144 406.602747,84.7348995 417.354808,95.4861926 C428.106101,106.238254 434.718856,117.023324 439.66115,129.740634 C444.441465,142.041864 447.710994,156.100302 448.649861,176.684749 C449.591031,197.312186 449.813657,203.898072 449.813657,256.420884 C449.813657,308.942928 449.591031,315.528815 448.649861,336.156251 C447.710994,356.740698 444.441465,370.799137 439.66115,383.100366 C434.718856,395.817676 428.106101,406.602747 417.354808,417.354808 C406.602747,428.106101 395.817676,434.718856 383.100366,439.66115 C370.799137,444.441465 356.740698,447.710994 336.156251,448.649861 C315.528815,449.591031 308.942928,449.813657 256.420884,449.813657 C203.898072,449.813657 197.312186,449.591031 176.684749,448.649861 C156.100302,447.710994 142.041864,444.441465 129.740634,439.66115 C117.023324,434.718856 106.238254,428.106101 95.4861926,417.354808 C84.7348995,406.602747 78.122144,395.817676 73.1806178,383.100366 C68.3995358,370.799137 65.1300065,356.740698 64.1911396,336.156251 C63.2499696,315.528815 63.0273437,308.942928 63.0273437,256.420884 C63.0273437,203.898072 63.2499696,197.312186 64.1911396,176.684749 C65.1300065,156.100302 68.3995358,142.041864 73.1806178,129.740634 C78.122144,117.023324 84.7348995,106.238254 95.4861926,95.4861926 C106.238254,84.7348995 117.023324,78.122144 129.740634,73.1806178 C142.041864,68.3995358 156.100302,65.1300065 176.684749,64.1911396 Z M255.920883,320.218219 C220.409685,320.218219 191.622781,291.431315 191.622781,255.920883 C191.622781,220.409685 220.409685,191.622781 255.920883,191.622781 C291.431315,191.622781 320.218219,220.409685 320.218219,255.920883 C320.218219,291.431315 291.431315,320.218219 255.920883,320.218219 Z M255.920883,156.86732 C201.214587,156.86732 156.86732,201.214587 156.86732,255.920883 C156.86732,310.626413 201.214587,354.97368 255.920883,354.97368 C310.626413,354.97368 354.97368,310.626413 354.97368,255.920883 C354.97368,201.214587 310.626413,156.86732 255.920883,156.86732 Z M382.034717,152.953875 C382.034717,140.169905 371.671095,129.806283 358.887125,129.806283 C346.103921,129.806283 335.740298,140.169905 335.740298,152.953875 C335.740298,165.737845 346.103921,176.100702 358.887125,176.100702 C371.671095,176.100702 382.034717,165.737845 382.034717,152.953875 Z" id="Combined-Shape" fill="#000000"></path>
    </g>
</svg>