<?xml version="1.0" encoding="UTF-8"?>
<svg width="512px" height="512px" viewBox="0 0 512 512" version="1.1" xmlns="http://www.w3.org/2000/svg" xmlns:xlink="http://www.w3.org/1999/xlink">
    <!-- Generator: Sketch 54.1 (76490) - https://sketchapp.com -->
    <title>location</title>
    <desc>Created with Sketch.</desc>
    <g id="location" stroke="none" stroke-width="1" fill="none" fill-rule="evenodd">
        <path d="M255.602722,0 C352.896828,0 431.205445,79.6893466 431.205445,178.27308 C431.205445,228.535016 396.515594,307.712754 345.297161,388.514874 C329.459251,413.517132 314.830989,434.8929 300.877379,453.840827 C295.515021,461.122496 290.45071,467.778795 285.271112,474.405582 C283.318074,476.904302 281.442881,479.279422 279.25269,482.03513 C278.778967,482.63117 275.373945,486.907176 274.531239,487.970554 L255.488384,512 L236.586643,487.859395 C235.686611,486.709907 231.861445,481.850552 231.897367,481.896248 C229.692636,479.091696 227.843639,476.725474 225.907851,474.224847 C220.732186,467.538983 215.689806,460.856909 210.3468,453.552416 C196.399636,434.485064 181.791387,413.054595 165.966183,388.037969 C114.732848,306.936502 80,227.862962 80,178.27308 C80,79.6893528 158.308629,0 255.602722,0 Z M261.982641,425.198012 C275.271034,407.153398 289.261761,386.709238 304.495743,362.660363 C351.028013,289.251126 382.902117,216.500179 382.902117,178.27308 C382.902117,106.179391 326.028838,48.3033277 255.602722,48.3033277 C185.176619,48.3033277 128.303328,106.179398 128.303328,178.27308 C128.303328,215.808421 160.261438,288.564932 206.795519,362.227573 C222.027078,386.305752 236.02311,406.838092 249.33349,425.034886 C251.496026,427.991318 253.605812,430.839175 255.696052,433.62621 C257.760827,430.89395 259.846215,428.099114 261.982641,425.198012 Z" id="Path" fill="#282828"></path>
        <path d="M256.5,118 C222.687008,118 195,145.747078 195,179.5 C195,213.252937 222.687008,241 256.5,241 C290.312992,241 318,213.252937 318,179.5 C318,145.747078 290.312992,118 256.5,118 Z" id="Path" fill="#282828"></path>
    </g>
</svg>