<svg width="42" height="42" viewBox="0 0 42 42" fill="none" xmlns="http://www.w3.org/2000/svg">
<g id="measurements">
<path id="Rectangle" fill-rule="evenodd" clip-rule="evenodd" d="M38.733 9.34375L32.6563 3.26705C31.1918 1.80259 28.8175 1.80259 27.353 3.26705L3.26717 27.3529C1.8027 28.8173 1.8027 31.1917 3.26717 32.6562L9.34387 38.7329C10.8083 40.1973 13.1827 40.1973 14.6472 38.7329L38.733 14.6471C40.1975 13.1826 40.1975 10.8082 38.733 9.34375ZM5.91882 30.0045L30.0046 5.91863L36.0813 11.9953L11.9955 36.0812L5.91882 30.0045Z" fill="#282828"/>
<path id="Path" fill-rule="evenodd" clip-rule="evenodd" d="M28.659 7.18364L31.1632 9.68572C31.6748 10.1969 31.6748 11.023 31.1632 11.5342C30.9081 11.7891 30.5731 11.9172 30.2382 11.9172C29.9033 11.9172 29.5683 11.7891 29.3132 11.5342L26.809 9.03209C26.1888 9.65173 25.4902 10.3498 24.7339 11.1054L25.9298 12.3002C26.4413 12.8114 26.4413 13.6375 25.9298 14.1487C25.6746 14.4036 25.3397 14.5317 25.0048 14.5317C24.6698 14.5317 24.3349 14.4036 24.0798 14.1487L22.8839 12.9539C22.214 13.6232 21.5193 14.3173 20.8089 15.0272L23.3131 17.5292C23.8246 18.0404 23.8246 18.8666 23.3131 19.3777C23.0579 19.6326 22.723 19.7607 22.3881 19.7607C22.0531 19.7607 21.7182 19.6326 21.463 19.3777L18.9589 16.8756C18.2693 17.5645 17.5746 18.2587 16.8838 18.9489L18.0796 20.1437C18.5912 20.6549 18.5912 21.4811 18.0796 21.9922C17.8245 22.2471 17.4896 22.3752 17.1546 22.3752C16.8197 22.3752 16.4848 22.2471 16.2296 21.9922L15.0338 20.7974C14.3233 21.5072 13.6286 22.2014 12.9587 22.8707L15.4629 25.3728C15.9745 25.8839 15.9745 26.7101 15.4629 27.2212C15.2078 27.4761 14.8729 27.6042 14.5379 27.6042C14.203 27.6042 13.868 27.4761 13.6129 27.2212L11.1087 24.7191C10.3525 25.4747 9.65382 26.1728 9.03366 26.7924L10.2295 27.9873C10.7411 28.4984 10.7411 29.3246 10.2295 29.8357C9.97437 30.0906 9.63943 30.2188 9.30449 30.2188C8.96955 30.2188 8.63461 30.0906 8.37948 29.8357L7.18365 28.6409C6.5818 29.2422 29.2609 6.5823 28.659 7.18364Z" fill="#282828"/>
</g>
</svg>
