<?xml version="1.0" encoding="UTF-8"?>
<svg width="512px" height="512px" viewBox="0 0 512 512" version="1.1" xmlns="http://www.w3.org/2000/svg" xmlns:xlink="http://www.w3.org/1999/xlink">
    <!-- Generator: Sketch 54.1 (76490) - https://sketchapp.com -->
    <title>measurements</title>
    <desc>Created with Sketch.</desc>
    <g id="measurements" stroke="none" stroke-width="1" fill="none" fill-rule="evenodd">
        <rect id="Rectangle" stroke="#282828" stroke-width="48" stroke-linejoin="round" transform="translate(256.000000, 256.000000) rotate(45.000000) translate(-256.000000, -256.000000)" x="177" y="14" width="158" height="484" rx="24"></rect>
        <path d="M354.035273,79.1505474 L386.088954,111.177212 C392.637015,117.719754 392.637015,128.294912 386.088954,134.837454 C382.823297,138.100359 378.536075,139.740177 374.248853,139.740177 C369.961632,139.740177 365.67441,138.100359 362.408753,134.837454 L330.355072,102.81079 C322.417013,110.742158 313.474136,119.677497 303.794393,129.349081 L319.101115,144.642901 C325.649176,151.185443 325.649176,161.760601 319.101115,168.303143 C315.835458,171.566047 311.548236,173.205866 307.261014,173.205866 C302.973792,173.205866 298.686571,171.566047 295.420914,168.303143 L280.114192,153.009323 C271.539749,161.576539 262.647113,170.46168 253.553514,179.547614 L285.607195,211.574279 C292.155256,218.116821 292.155256,228.691979 285.607195,235.234521 C282.341538,238.497425 278.054316,240.137244 273.767095,240.137244 C269.479873,240.137244 265.192651,238.497425 261.926994,235.234521 L229.873313,203.207856 C221.047665,212.026065 212.155029,220.911206 203.312635,229.746148 L218.619356,245.039968 C225.167417,251.58251 225.167417,262.157667 218.619356,268.70021 C215.353699,271.963114 211.066477,273.602933 206.779255,273.602933 C202.492034,273.602933 198.204812,271.963114 194.939155,268.70021 L179.632433,253.40639 C170.538834,262.492324 161.646198,271.377465 153.071755,279.944681 L185.125436,311.971346 C191.673497,318.513888 191.673497,329.089045 185.125436,335.631588 C181.859779,338.894492 177.572557,340.534311 173.285336,340.534311 C168.998114,340.534311 164.710892,338.894492 161.445235,335.631588 L129.391554,303.604923 C119.711811,313.276507 110.768935,322.211846 102.830876,330.143215 L118.137597,345.437034 C124.685658,351.979577 124.685658,362.554734 118.137597,369.097277 C114.87194,372.360181 110.584718,374 106.297496,374 C102.010275,374 97.7230529,372.360181 94.4573957,369.097277 L79.1506744,353.803457 C71.4470729,361.500565 361.738874,71.453439 354.035273,79.1505474 Z" id="Path" fill="#282828"></path>
    </g>
</svg>
