<?xml version="1.0" encoding="UTF-8"?>
<svg width="512px" height="512px" viewBox="0 0 512 512" version="1.1" xmlns="http://www.w3.org/2000/svg" xmlns:xlink="http://www.w3.org/1999/xlink">
    <!-- Generator: Sketch 52.6 (67491) - http://www.bohemiancoding.com/sketch -->
    <title>measurements</title>
    <desc>Created with Sketch.</desc>
    <g id="measurements" stroke="none" stroke-width="1" fill="none" fill-rule="evenodd">
        <g id="ruler-horizontal-solid" transform="translate(0.000000, 142.000000)" fill="#000000">
            <path d="M483.555556,0 L440.888889,0 L440.888889,78.2222222 C440.888889,82.1511111 437.706667,85.3333333 433.777778,85.3333333 L419.555556,85.3333333 C415.626667,85.3333333 412.444444,82.1511111 412.444444,78.2222222 L412.444444,0 L355.555556,0 L355.555556,78.2222222 C355.555556,82.1511111 352.373333,85.3333333 348.444444,85.3333333 L334.222222,85.3333333 C330.293333,85.3333333 327.111111,82.1511111 327.111111,78.2222222 L327.111111,0 L270.222222,0 L270.222222,78.2222222 C270.222222,82.1511111 267.04,85.3333333 263.111111,85.3333333 L248.888889,85.3333333 C244.96,85.3333333 241.777778,82.1511111 241.777778,78.2222222 L241.777778,0 L184.888889,0 L184.888889,78.2222222 C184.888889,82.1511111 181.706667,85.3333333 177.777778,85.3333333 L163.555556,85.3333333 C159.626667,85.3333333 156.444444,82.1511111 156.444444,78.2222222 L156.444444,0 L99.5555556,0 L99.5555556,78.2222222 C99.5555556,82.1511111 96.3733333,85.3333333 92.4444444,85.3333333 L78.2222222,85.3333333 C74.2933333,85.3333333 71.1111111,82.1511111 71.1111111,78.2222222 L71.1111111,0 L28.4444444,0 C12.7377778,0 0,12.7377778 0,28.4444444 L0,199.111111 C0,214.817778 12.7377778,227.555556 28.4444444,227.555556 L483.555556,227.555556 C499.262222,227.555556 512,214.817778 512,199.111111 L512,28.4444444 C512,12.7377778 499.262222,0 483.555556,0 Z" id="Path"></path>
        </g>
    </g>
</svg>