<?xml version="1.0" encoding="UTF-8"?>
<svg width="512px" height="512px" viewBox="0 0 512 512" version="1.1" xmlns="http://www.w3.org/2000/svg" xmlns:xlink="http://www.w3.org/1999/xlink">
    <g id="note" stroke="none" stroke-width="1" fill="none" fill-rule="evenodd">
        <path d="M359.001926,49.8186549 L359.001926,156.981879 C359.070796,156.996006 359.154526,157.004495 359.25541,157.004495 L461.655195,156.988093 L359.001926,49.8186549 Z M464,204.989645 L359.259254,205.006422 C332.794502,205.006422 311,183.976924 311,157.598653 L311,48 L48,48 L48,464 L464,464 L464,204.989645 Z M48,0 L377.75,0 L512,140.15625 L512,464 C512,490.509668 490.509668,512 464,512 L48,512 C21.490332,512 3.24649801e-15,490.509668 0,464 L0,48 C-3.24649801e-15,21.490332 21.490332,4.86974701e-15 48,0 Z" id="Combined-Shape" fill="#282828"></path>
    </g>
</svg>
