<svg width="40" height="40" viewBox="0 0 40 40" fill="none" xmlns="http://www.w3.org/2000/svg">
<g id="note">
<path id="Vector" d="M9.33331 5.33327C7.14002 5.33327 5.33331 7.13997 5.33331 9.33327V30.6666C5.33331 32.8599 7.14002 34.6666 9.33331 34.6666H26C26.3536 34.6665 26.6927 34.526 26.9427 34.276L34.276 26.9426C34.5261 26.6926 34.6666 26.3535 34.6666 25.9999V9.33327C34.6666 7.13997 32.8599 5.33327 30.6666 5.33327H9.33331ZM9.33331 7.99993H30.6666C31.42 7.99993 32 8.57989 32 9.33327V25.3333H28C26.5266 25.3333 25.3333 26.5266 25.3333 27.9999V31.9999H9.33331C8.57994 31.9999 7.99998 31.42 7.99998 30.6666V9.33327C7.99998 8.57989 8.57994 7.99993 9.33331 7.99993ZM13.3333 14.6666C13.1566 14.6641 12.9812 14.6967 12.8173 14.7626C12.6533 14.8285 12.5041 14.9263 12.3782 15.0504C12.2524 15.1744 12.1525 15.3223 12.0843 15.4853C12.0161 15.6483 11.981 15.8232 11.981 15.9999C11.981 16.1766 12.0161 16.3516 12.0843 16.5146C12.1525 16.6776 12.2524 16.8254 12.3782 16.9495C12.5041 17.0735 12.6533 17.1714 12.8173 17.2372C12.9812 17.3031 13.1566 17.3358 13.3333 17.3333H18.6666C18.8433 17.3358 19.0187 17.3031 19.1827 17.2372C19.3467 17.1714 19.4959 17.0735 19.6217 16.9495C19.7475 16.8254 19.8475 16.6776 19.9157 16.5146C19.9839 16.3516 20.019 16.1766 20.019 15.9999C20.019 15.8232 19.9839 15.6483 19.9157 15.4853C19.8475 15.3223 19.7475 15.1744 19.6217 15.0504C19.4959 14.9263 19.3467 14.8285 19.1827 14.7626C19.0187 14.6967 18.8433 14.6641 18.6666 14.6666H13.3333ZM24 14.6666C23.8233 14.6641 23.6479 14.6967 23.4839 14.7626C23.32 14.8285 23.1707 14.9263 23.0449 15.0504C22.9191 15.1744 22.8192 15.3223 22.751 15.4853C22.6828 15.6483 22.6477 15.8232 22.6477 15.9999C22.6477 16.1766 22.6828 16.3516 22.751 16.5146C22.8192 16.6776 22.9191 16.8254 23.0449 16.9495C23.1707 17.0735 23.32 17.1714 23.4839 17.2372C23.6479 17.3031 23.8233 17.3358 24 17.3333H26.6666C26.8433 17.3358 27.0187 17.3031 27.1827 17.2372C27.3467 17.1714 27.4959 17.0735 27.6217 16.9495C27.7475 16.8254 27.8475 16.6776 27.9157 16.5146C27.9839 16.3516 28.019 16.1766 28.019 15.9999C28.019 15.8232 27.9839 15.6483 27.9157 15.4853C27.8475 15.3223 27.7475 15.1744 27.6217 15.0504C27.4959 14.9263 27.3467 14.8285 27.1827 14.7626C27.0187 14.6967 26.8433 14.6641 26.6666 14.6666H24ZM13.3333 19.9999C13.1566 19.9974 12.9812 20.0301 12.8173 20.096C12.6533 20.1618 12.5041 20.2597 12.3782 20.3837C12.2524 20.5078 12.1525 20.6556 12.0843 20.8186C12.0161 20.9816 11.981 21.1566 11.981 21.3333C11.981 21.51 12.0161 21.6849 12.0843 21.8479C12.1525 22.0109 12.2524 22.1588 12.3782 22.2828C12.5041 22.4069 12.6533 22.5047 12.8173 22.5706C12.9812 22.6365 13.1566 22.6691 13.3333 22.6666H24C24.1767 22.6691 24.3521 22.6365 24.516 22.5706C24.68 22.5047 24.8292 22.4069 24.9551 22.2828C25.0809 22.1588 25.1808 22.0109 25.249 21.8479C25.3172 21.6849 25.3523 21.51 25.3523 21.3333C25.3523 21.1566 25.3172 20.9816 25.249 20.8186C25.1808 20.6556 25.0809 20.5078 24.9551 20.3837C24.8292 20.2597 24.68 20.1618 24.516 20.096C24.3521 20.0301 24.1767 19.9974 24 19.9999H13.3333Z" fill="#282828"/>
</g>
</svg>
