<?xml version="1.0" encoding="UTF-8"?>
<svg width="512px" height="512px" viewBox="0 0 512 512" version="1.1" xmlns="http://www.w3.org/2000/svg" xmlns:xlink="http://www.w3.org/1999/xlink">
    <!-- Generator: Sketch 52.6 (67491) - http://www.bohemiancoding.com/sketch -->
    <title>nutrition-plan</title>
    <desc>Created with Sketch.</desc>
    <defs>
        <path d="M255.9,15.2014288 C256.7,19.9014288 272,109.701429 272,144.001429 C272,196.301429 244.2,233.601429 203.1,248.601429 L216,486.701429 C216.7,500.401429 205.8,512.001429 192,512.001429 L128,512.001429 C114.3,512.001429 103.3,500.501429 104,486.701429 L116.9,248.601429 C75.7,233.601429 48,196.201429 48,144.001429 C48,109.601429 63.3,19.9014288 64.1,15.2014288 C67.3,-5.09857121 109.4,-5.39857121 112,16.3014288 L112,157.501429 C113.3,160.901429 127.1,160.701429 128,157.501429 C129.4,132.201429 135.9,18.3014288 136,15.7014288 C139.3,-5.09857121 180.7,-5.09857121 183.9,15.7014288 C184.1,18.4014288 190.5,132.201429 191.9,157.501429 C192.8,160.701429 206.7,160.901429 207.9,157.501429 L207.9,16.3014288 C210.5,-5.29857121 252.7,-5.09857121 255.9,15.2014288 Z M375.1,300.901429 L360.1,486.001429 C358.9,500.001429 370,512.001429 384,512.001429 L440,512.001429 C453.3,512.001429 464,501.301429 464,488.001429 L464,24.0014288 C464,10.8014288 453.3,0.00142878746 440,0.00142878746 C357.5,0.00142878746 218.6,178.501429 375.1,300.901429 Z" id="path-1"></path>
    </defs>
    <g id="nutrition-plan" stroke="none" stroke-width="1" fill="none" fill-rule="evenodd">
        <mask id="mask-2" fill="white">
            <use xlink:href="#path-1"></use>
        </mask>
        <use id="Mask" fill="#17191D" xlink:href="#path-1"></use>
    </g>
</svg>