<?xml version="1.0" encoding="UTF-8"?>
<svg width="512px" height="512px" viewBox="0 0 512 512" version="1.1" xmlns="http://www.w3.org/2000/svg" xmlns:xlink="http://www.w3.org/1999/xlink">
    <!-- Generator: Sketch 54.1 (76490) - https://sketchapp.com -->
    <title>nutrition</title>
    <desc>Created with Sketch.</desc>
    <g id="nutrition" stroke="none" stroke-width="1" fill="none" fill-rule="evenodd">
        <g id="icons8-food" transform="translate(0.000000, 30.000000)" fill="#282828" fill-rule="nonzero">
            <path d="M39.3846154,0 C39.3846154,0 0,78.7692308 0,157.538462 C0,228.328054 34.6070193,286.549327 118.153846,294.38462 L118.153846,378.923087 L53.9230759,394.461538 L53.9230759,394.499998 C44.3403355,397.040209 38.1395157,406.307492 39.4471914,416.134576 C40.754867,425.961659 49.1633638,433.284902 59.0769231,433.230769 L134.538461,433.230769 C136.665061,433.582258 138.834938,433.582258 140.961538,433.230769 L216.615385,433.230769 C226.58749,433.36268 235.084195,426.019482 236.398408,416.133475 C237.71262,406.247467 231.429467,396.939484 221.769236,394.461538 L157.538462,378.923087 L157.538462,294.38462 C241.085282,286.549327 275.692308,228.328054 275.692308,157.538462 C275.692308,78.7692308 236.307692,0 236.307692,0 L137.846154,0 L39.3846154,0 Z M334.769231,0 C323.899077,0 315.076923,8.82215385 315.076923,19.6923077 L315.076923,133.61538 C315.076923,179.738506 345.428007,221.184591 388.615385,232.8077 L374.153846,390.423079 L374.307682,390.423079 C374.206769,391.561332 374.155442,392.703438 374.153846,393.846154 C374.153846,415.597676 391.786939,433.230769 413.538462,433.230769 C435.289984,433.230769 452.923077,415.597676 452.923077,393.846154 C452.90869,392.702878 452.844524,391.560772 452.730762,390.423079 L452.769241,390.423079 L438.346161,233.038454 C480.692992,222.03073 512,183.633841 512,137.846154 L512,19.6923077 C512,8.82215385 503.177846,0 492.307692,0 C481.437538,0 472.615385,8.82215385 472.615385,19.6923077 L472.615385,118.153846 C472.615385,129.043692 463.793231,137.846154 452.923077,137.846154 C442.052923,137.846154 433.230769,129.043692 433.230769,118.153846 L433.230769,19.6923077 C433.230769,8.82215385 424.408615,0 413.538462,0 C402.668308,0 393.846154,8.82215385 393.846154,19.6923077 L393.846154,118.153846 C393.846154,129.043692 385.024,137.846154 374.153846,137.846154 C363.283692,137.846154 354.461538,129.043692 354.461538,118.153846 L354.461538,19.6923077 C354.461538,8.82215385 345.639385,0 334.769231,0 Z M413.384625,236.230774 C413.435943,236.230853 413.487163,236.269214 413.538462,236.269233 L413.538462,354.461538 C413.487183,354.461438 413.435904,354.461438 413.384625,354.461538 L413.384625,236.230774 Z" id="Shape"></path>
        </g>
    </g>
</svg>