<svg width="40" height="40" viewBox="0 0 40 40" fill="none" xmlns="http://www.w3.org/2000/svg">
<path d="M9.33335 3C7.86002 3 6.66669 4.19333 6.66669 5.66667V33.6667C6.66669 35.14 7.86002 36.3333 9.33335 36.3333H30.6667C32.14 36.3333 33.3334 35.14 33.3334 33.6667V13C33.3334 12.6467 33.1934 12.308 32.9427 12.0573L24.2761 3.39062C24.0254 3.13996 23.6867 3 23.3334 3H9.33335ZM22.6667 5.53906L30.7943 13.6667H24C23.264 13.6667 22.6667 13.0693 22.6667 12.3333V5.53906ZM12.7578 19.2266C13.1672 19.2266 13.5702 19.2651 13.9662 19.3411C14.3622 19.4171 14.7154 19.5638 15.0261 19.7865C15.3367 20.0091 15.5918 20.3226 15.7865 20.7266C15.9811 21.1319 16.0781 21.6593 16.0781 22.3073C16.0795 22.894 15.9974 23.3901 15.8334 23.7995C15.668 24.2088 15.4492 24.5421 15.1745 24.7995C14.8985 25.0568 14.5788 25.2434 14.2188 25.3594C13.8574 25.4754 13.4881 25.5339 13.1068 25.5339H12.9323C12.851 25.5339 12.7677 25.5314 12.6797 25.526C12.5917 25.5207 12.5033 25.5171 12.4193 25.5078C12.3353 25.4998 12.2756 25.4885 12.2396 25.4792V28.6927H10.5599V19.4531C10.8799 19.3825 11.2319 19.3265 11.6146 19.2865C11.9959 19.2465 12.3765 19.2266 12.7578 19.2266ZM19.5313 19.2266C20.2686 19.2266 20.8843 19.341 21.3776 19.5677C21.871 19.7944 22.2678 20.1127 22.5651 20.526C22.8638 20.9394 23.0726 21.4357 23.1979 22.013C23.3219 22.5904 23.3854 23.2372 23.3854 23.9479C23.3854 24.5972 23.3257 25.2166 23.2057 25.8073C23.0857 26.398 22.8756 26.9179 22.5729 27.3672C22.2689 27.8165 21.8598 28.1734 21.3438 28.4401C20.8278 28.7068 20.1811 28.8411 19.3985 28.8411C19.2838 28.8411 19.1257 28.8349 18.9297 28.8255C18.735 28.8162 18.5311 28.8076 18.3177 28.7943C18.1044 28.7809 17.8991 28.7659 17.7031 28.7526C17.5085 28.7393 17.3567 28.7244 17.25 28.7057V19.3594C17.41 19.3327 17.5917 19.3128 17.7917 19.2995C17.9904 19.2861 18.1943 19.2737 18.4037 19.2604C18.6117 19.2471 18.8158 19.2384 19.0104 19.2344C19.2064 19.2304 19.3793 19.2266 19.5313 19.2266ZM24.7188 19.3594H29.3854V20.9062H26.4011V23.3333H29.1459V24.8802H26.4011V28.6927H24.7188V19.3594ZM12.9193 20.7187C12.6446 20.7187 12.4183 20.7425 12.2396 20.7865V23.974C12.2929 23.9926 12.3924 24.0075 12.5391 24.0208C12.6857 24.0342 12.7878 24.0391 12.8412 24.0391C13.0358 24.0391 13.2224 24.0143 13.4011 23.9609C13.5784 23.9076 13.7364 23.8168 13.8724 23.6875C14.0111 23.5582 14.1219 23.3803 14.2005 23.1536C14.2819 22.927 14.3203 22.6409 14.3203 22.2943C14.3203 22.0009 14.2817 21.7509 14.2057 21.5469C14.1297 21.3429 14.0291 21.1799 13.9011 21.0599C13.7717 20.9399 13.6211 20.8528 13.4531 20.7995C13.2838 20.7461 13.106 20.7188 12.9193 20.7187ZM19.7057 20.7734C19.5644 20.7734 19.4201 20.7759 19.2735 20.7812C19.1281 20.7852 19.0123 20.7952 18.9323 20.8125V27.2396C18.9603 27.2476 19.0063 27.2564 19.0729 27.2604C19.1396 27.2644 19.2118 27.2694 19.2865 27.2734C19.3611 27.2774 19.4307 27.2825 19.4974 27.2865C19.5641 27.2905 19.6114 27.2943 19.638 27.2943C20.038 27.2943 20.3664 27.1997 20.625 27.013C20.881 26.8264 21.0865 26.5763 21.2318 26.2656C21.3785 25.955 21.4791 25.5967 21.5365 25.1927C21.5938 24.7887 21.625 24.3633 21.625 23.9193C21.625 23.5099 21.5988 23.117 21.5495 22.7344C21.5042 22.353 21.4095 22.0159 21.2709 21.7266C21.1322 21.4386 20.9395 21.2072 20.6875 21.0339C20.4342 20.8605 20.1044 20.7734 19.7057 20.7734Z" fill="#282828"/>
</svg>
