<?xml version="1.0" encoding="UTF-8"?>
<svg width="512px" height="512px" viewBox="0 0 512 512" version="1.1" xmlns="http://www.w3.org/2000/svg" xmlns:xlink="http://www.w3.org/1999/xlink">
    <!-- Generator: Sketch 54.1 (76490) - https://sketchapp.com -->
    <title>phone</title>
    <desc>Created with Sketch.</desc>
    <g id="phone" stroke="none" stroke-width="1" fill="none" fill-rule="evenodd">
        <path d="M383.44049,331.433668 C374.402651,326.135621 363.294569,326.246925 354.301252,331.589493 L308.755889,358.725291 C298.560495,364.802463 285.827383,364.09012 276.477895,356.788609 C260.316637,344.166791 234.293895,322.93008 211.654778,300.290944 C189.01566,277.651809 167.778966,251.629047 155.157157,235.467776 C147.855652,226.118281 147.14331,213.385159 153.220478,203.189757 L180.356253,157.644358 C185.721079,148.651034 185.7656,137.4539 180.467557,128.416054 L113.640978,14.2631677 C107.163119,3.22185883 94.2964423,-2.20975278 81.852719,0.839963576 C69.7651666,3.77837641 54.0713832,10.9463229 37.6207364,27.4192433 C-13.8904905,78.9305108 -41.2488733,165.814036 152.463614,359.526676 C346.176102,553.239316 433.037297,525.903172 484.570785,474.369644 C501.065953,457.874463 508.211633,442.158407 511.172304,430.048584 C514.177497,417.627112 508.834932,404.849468 497.815893,398.393864 C470.301685,382.299375 410.954697,347.550418 383.44049,331.433668 Z" id="Path" fill="#282828"></path>
    </g>
</svg>