<?xml version="1.0" encoding="UTF-8"?>
<svg width="512px" height="512px" viewBox="0 0 512 512" version="1.1" xmlns="http://www.w3.org/2000/svg" xmlns:xlink="http://www.w3.org/1999/xlink">
    <!-- Generator: Sketch 54.1 (76490) - https://sketchapp.com -->
    <title>photo</title>
    <desc>Created with Sketch.</desc>
    <g id="photo" stroke="none" stroke-width="1" fill="none" fill-rule="evenodd">
        <path d="M52.7692308,80.2759371 L52.7692308,62.0769231 L172.461538,62.0769231 L172.461538,79.9716599 L453.153846,79.9716599 C486.205186,79.9716599 513,106.724106 513,139.761134 L513,390.287449 C513,423.324477 486.205186,450.076923 453.153846,450.076923 L58.8461538,450.076923 C25.7948143,450.076923 -1,423.324477 -1,390.287449 L-1,139.761134 C-1,108.774597 22.5719161,83.3167288 52.7692308,80.2759371 Z M124.461538,127.97166 L100.769231,127.97166 L58.8461538,127.97166 C52.2874934,127.97166 47,133.250793 47,139.761134 L47,390.287449 C47,396.79779 52.2874934,402.076923 58.8461538,402.076923 L453.153846,402.076923 C459.712507,402.076923 465,396.79779 465,390.287449 L465,139.761134 C465,133.250793 459.712507,127.97166 453.153846,127.97166 L124.461538,127.97166 Z M325,165 C380.785667,165 426,210.214333 426,266 C426,321.768833 380.785667,367 325,367 C269.214333,367 224,321.768833 224,266 C224,210.214333 269.214333,165 325,165 Z M123,182 L157,182 C166.384,182 174,189.392 174,198.5 C174,207.608 166.384,215 157,215 L123,215 C113.616,215 106,207.608 106,198.5 C106,189.392 113.616,182 123,182 Z M325,199 C287.996922,199 258,228.996922 258,266 C258,303.003078 287.996922,333 325,333 C362.003078,333 392,303.003078 392,266 C392,228.996922 362.003078,199 325,199 Z" id="Combined-Shape" fill="#282828"></path>
    </g>
</svg>