<svg width="40" height="40" viewBox="0 0 40 40" fill="none" xmlns="http://www.w3.org/2000/svg">
<g id="photo">
<path id="Vector" d="M16.3151 5.33334C15.3044 5.33334 14.3816 5.90329 13.9296 6.80729L13.4036 7.85938C12.9516 8.76204 12.0275 9.33334 11.0182 9.33334H5.33329C3.85996 9.33334 2.66663 10.5267 2.66663 12V29.3333C2.66663 30.8067 3.85996 32 5.33329 32H34.6666C36.14 32 37.3333 30.8067 37.3333 29.3333V12C37.3333 10.5267 36.14 9.33334 34.6666 9.33334H28.9817C27.9711 9.33334 27.0483 8.76338 26.5963 7.85938L26.0703 6.80729C25.6183 5.90463 24.6942 5.33334 23.6849 5.33334H16.3151ZM7.99996 6.66667C7.26396 6.66667 6.66663 7.264 6.66663 8H10.6666C10.6666 7.264 10.0693 6.66667 9.33329 6.66667H7.99996ZM20 10.6667C25.1466 10.6667 29.3333 14.8533 29.3333 20C29.3333 25.1467 25.1466 29.3333 20 29.3333C14.8533 29.3333 10.6666 25.1467 10.6666 20C10.6666 14.8533 14.8533 10.6667 20 10.6667ZM32 12C32.736 12 33.3333 12.5973 33.3333 13.3333C33.3333 14.0693 32.736 14.6667 32 14.6667C31.264 14.6667 30.6666 14.0693 30.6666 13.3333C30.6666 12.5973 31.264 12 32 12ZM20 13.3333C18.2318 13.3333 16.5362 14.0357 15.2859 15.286C14.0357 16.5362 13.3333 18.2319 13.3333 20C13.3333 21.7681 14.0357 23.4638 15.2859 24.714C16.5362 25.9643 18.2318 26.6667 20 26.6667C21.7681 26.6667 23.4638 25.9643 24.714 24.714C25.9642 23.4638 26.6666 21.7681 26.6666 20C26.6666 18.2319 25.9642 16.5362 24.714 15.286C23.4638 14.0357 21.7681 13.3333 20 13.3333Z" fill="#282828"/>
</g>
</svg>
