<?xml version="1.0" encoding="UTF-8"?>
<svg width="512px" height="512px" viewBox="0 0 512 512" version="1.1" xmlns="http://www.w3.org/2000/svg" xmlns:xlink="http://www.w3.org/1999/xlink">
    <!-- Generator: Sketch 54.1 (76490) - https://sketchapp.com -->
    <title>printer</title>
    <desc>Created with Sketch.</desc>
    <g id="printer" stroke="none" stroke-width="1" fill="none" fill-rule="evenodd">
        <path d="M436,377 L465,377 L465,193 L48,193 L48,377 L76,377 L76,265 L436,265 L436,377 Z M436,425 L436,513 L76,513 L76,425 L33,425 C14.7746033,425 2.23196738e-15,410.225397 0,392 L0,178 C-2.23196738e-15,159.774603 14.7746033,145 33,145 L76,145 L76,0 L436,0 L436,145 L480,145 C498.225397,145 513,159.774603 513,178 L513,392 C513,410.225397 498.225397,425 480,425 L436,425 Z M388,145 L388,48 L124,48 L124,145 L388,145 Z M124,313 L124,465 L388,465 L388,313 L124,313 Z" id="Combined-Shape" fill="#282828"></path>
        <circle id="Oval" fill="#282828" cx="414" cy="228" r="22"></circle>
        <path d="M155.667562,359.173913 C149.040145,359.173913 143.667562,353.80133 143.667562,347.173913 C143.667562,340.546496 149.040145,335.173913 155.667562,335.173913 L356.332438,335.173913 C362.959855,335.173913 368.332438,340.546496 368.332438,347.173913 C368.332438,353.80133 362.959855,359.173913 356.332438,359.173913 L155.667562,359.173913 Z M155.667562,443.173913 C149.040145,443.173913 143.667562,437.80133 143.667562,431.173913 C143.667562,424.546496 149.040145,419.173913 155.667562,419.173913 L356.332438,419.173913 C362.959855,419.173913 368.332438,424.546496 368.332438,431.173913 C368.332438,437.80133 362.959855,443.173913 356.332438,443.173913 L155.667562,443.173913 Z M155.667562,401.173913 C149.040145,401.173913 143.667562,395.80133 143.667562,389.173913 C143.667562,382.546496 149.040145,377.173913 155.667562,377.173913 L289.785156,377.173913 C296.412573,377.173913 301.785156,382.546496 301.785156,389.173913 C301.785156,395.80133 296.412573,401.173913 289.785156,401.173913 L155.667562,401.173913 Z" id="Combined-Shape" fill="#282828"></path>
    </g>
</svg>