<svg width="40" height="40" viewBox="0 0 40 40" fill="none" xmlns="http://www.w3.org/2000/svg">
<path d="M7.99998 5.33333C6.52665 5.33333 5.33331 6.52666 5.33331 7.99999V32C5.33331 33.4733 6.52665 34.6667 7.99998 34.6667H10.0755C9.61683 33.8787 9.33331 32.976 9.33331 32V7.99999C9.33331 7.02399 9.61683 6.12133 10.0755 5.33333H7.99998ZM14.6666 5.33333C13.1933 5.33333 12 6.52666 12 7.99999V32C12 33.4733 13.1933 34.6667 14.6666 34.6667H32C33.4733 34.6667 34.6666 33.4733 34.6666 32V7.99999C34.6666 6.52666 33.4733 5.33333 32 5.33333H14.6666ZM23.3333 10.6667C26.2746 10.6667 28.6666 13.0587 28.6666 16C28.6666 18.2867 27.2391 19.6053 26.0911 20.6667C25.2085 21.4813 24.6666 22.016 24.6666 22.6667H22C22 20.8147 23.2652 19.6457 24.2812 18.7057C25.3466 17.7217 26 17.0653 26 16C26 14.5293 24.804 13.3333 23.3333 13.3333C21.8626 13.3333 20.6666 14.5293 20.6666 16H18C18 13.0587 20.392 10.6667 23.3333 10.6667ZM23.3385 26.1979C24.5839 26.1979 25.3333 26.8664 25.3333 28.0104C25.3333 29.1344 24.5839 29.8021 23.3385 29.8021C22.0825 29.8021 21.3333 29.1344 21.3333 28.0104C21.3333 26.8664 22.0825 26.1979 23.3385 26.1979Z" fill="#282828"/>
</svg>
