<?xml version="1.0" encoding="UTF-8"?>
<svg width="512px" height="512px" viewBox="0 0 512 512" version="1.1" xmlns="http://www.w3.org/2000/svg" xmlns:xlink="http://www.w3.org/1999/xlink">
    <!-- Generator: Sketch 54.1 (76490) - https://sketchapp.com -->
    <title>repeat</title>
    <desc>Created with Sketch.</desc>
    <g id="repeat" stroke="none" stroke-width="1" fill="none" fill-rule="evenodd">
        <path d="M412.926612,158.536623 C378.518384,100.998164 316.38338,65 247.952768,65 C141.928919,65 56,150.74876 56,256.5 C56,362.25124 141.928919,448 247.952768,448 C297.129677,448 343.340727,429.507888 378.625319,396.777341 C388.343005,387.763062 403.528262,388.333286 412.54254,398.050971 C421.556819,407.768656 420.986595,422.953913 411.26891,431.968192 C367.190944,472.855611 309.35404,496 247.952768,496 C115.441777,496 8,388.783487 8,256.5 C8,124.216513 115.441777,17 247.952768,17 C331.343011,17 407.317399,59.8316607 450.897522,128.661184 L461.868662,66.3994566 C463.05306,58.7734178 468.267444,52.3844232 475.500825,49.6964642 C482.734206,47.0085053 490.856302,48.4416001 496.734731,53.4430587 C502.613159,58.4445174 505.329362,66.2328161 503.835804,73.8043055 L483.386298,189.856219 C483.145063,196.40629 479.90356,202.480413 474.596996,206.32614 C469.143849,210.256399 462.155564,211.382719 455.74267,209.364943 L339.521506,188.858415 C331.895763,187.672348 325.506095,182.4562 322.816772,175.221658 C320.127449,167.987116 321.558707,159.864653 326.55856,153.986819 C331.558413,148.108984 339.34558,145.394252 346.916825,146.889599 L412.926612,158.536623 Z" id="Combined-Shape" fill="#282828"></path>
    </g>
</svg>