<?xml version="1.0" encoding="UTF-8"?>
<svg width="512px" height="512px" viewBox="0 0 512 512" version="1.1" xmlns="http://www.w3.org/2000/svg" xmlns:xlink="http://www.w3.org/1999/xlink">
    <!-- Generator: Sketch 52.6 (67491) - http://www.bohemiancoding.com/sketch -->
    <title>repeat</title>
    <desc>Created with Sketch.</desc>
    <defs>
        <path d="M256.455,8.00040321 C322.724,8.11940321 382.892,34.2334032 427.314,76.6854032 L463.029,40.9704032 C478.149,25.8514032 504,36.5594032 504,57.9414032 L504,192.000403 C504,205.255403 493.255,216.000403 480,216.000403 L345.941,216.000403 C324.559,216.000403 313.851,190.149403 328.97,175.029403 L370.72,133.279403 C339.856,104.380403 299.919,88.3724032 257.49,88.0064032 C165.092,87.2084032 87.207,161.983403 88.006,257.448403 C88.764,348.009403 162.184,424.000403 256,424.000403 C297.127,424.000403 335.997,409.322403 366.629,382.444403 C371.372,378.283403 378.535,378.536403 382.997,382.997403 L422.659,422.659403 C427.531,427.531403 427.29,435.474403 422.177,440.092403 C378.202,479.813403 319.926,504.000403 256,504.000403 C119.034,504.000403 8.001,392.967403 8,256.002403 C7.999,119.193403 119.646,7.75540321 256.455,8.00040321 Z" id="path-1"></path>
    </defs>
    <g id="repeat" stroke="none" stroke-width="1" fill="none" fill-rule="evenodd">
        <mask id="mask-2" fill="white">
            <use xlink:href="#path-1"></use>
        </mask>
        <use id="Mask" fill="#17191D" xlink:href="#path-1"></use>
    </g>
</svg>