<?xml version="1.0" encoding="UTF-8"?>
<svg width="512px" height="512px" viewBox="0 0 512 512" version="1.1" xmlns="http://www.w3.org/2000/svg" xmlns:xlink="http://www.w3.org/1999/xlink">
    <!-- Generator: Sketch 54.1 (76490) - https://sketchapp.com -->
    <title>search</title>
    <desc>Created with Sketch.</desc>
    <g id="search" stroke="none" stroke-width="1" fill="none" fill-rule="evenodd">
        <path d="M213.204358,0 C95.7073743,0 0,95.7073743 0,213.204358 C0,330.701343 95.7073743,426.408715 213.204358,426.408715 C264.298953,426.408715 311.222609,408.264726 347.997824,378.146242 L475.295814,505.444232 C480.643332,511.013999 488.584137,513.257652 496.055715,511.309885 C503.527292,509.362117 509.362117,503.527292 511.309885,496.055715 C513.257652,488.584137 511.013999,480.643332 505.444232,475.295814 L378.146242,347.997824 C408.264726,311.222609 426.408715,264.298953 426.408715,213.204358 C426.408715,95.7073743 330.701343,0 213.204358,0 Z M213.5,43 C307.916996,43 384,119.083012 384,213.5 C384,307.916996 307.916996,384 213.5,384 C119.083012,384 43,307.916996 43,213.5 C43,119.083012 119.083012,43 213.5,43 Z" id="Shape" fill="#282828"></path>
    </g>
</svg>