<?xml version="1.0" encoding="UTF-8"?>
<svg width="512px" height="512px" viewBox="0 0 512 512" version="1.1" xmlns="http://www.w3.org/2000/svg" xmlns:xlink="http://www.w3.org/1999/xlink">
    <!-- Generator: Sketch 54.1 (76490) - https://sketchapp.com -->
    <title>send</title>
    <desc>Created with Sketch.</desc>
    <g id="send" stroke="none" stroke-width="1" fill="none" fill-rule="evenodd">
        <path d="M56.8333319,17 C34.8339901,17 17,34.8339908 17,56.8333333 L17,176.333333 C17.0265637,193.241502 27.7246677,208.290587 43.6852214,213.871589 C47.9076519,215.37065 52.3527405,216.146566 56.8333319,216.166667 C56.9759634,216.167433 57.118598,216.167433 57.2612295,216.166667 L295.833323,256 L57.2612295,295.872231 C57.1186679,295.858496 56.9760333,295.84553 56.8333319,295.833333 C52.3396722,295.849054 47.881067,296.625033 43.6463201,298.128411 C27.7011157,303.722578 17.0207648,318.768624 17,335.666667 L17,455.166667 C17,477.166009 34.8339901,495 56.8333319,495 C63.7685823,494.986885 70.580238,493.163292 76.5943988,489.709635 L76.6332981,489.709635 L482.863264,274.360677 L482.902161,274.282883 C490.227844,271.15596 494.98604,263.965117 494.999982,256 C495.010584,247.997258 490.230197,240.76539 482.863264,237.639323 L76.6332981,22.2903646 C70.6076956,18.8301601 63.7817748,17.0063383 56.8333319,17 Z" id="Path" fill="#282828"></path>
    </g>
</svg>