<?xml version="1.0" encoding="UTF-8"?>
<svg width="512px" height="512px" viewBox="0 0 512 512" version="1.1" xmlns="http://www.w3.org/2000/svg" xmlns:xlink="http://www.w3.org/1999/xlink">
    <!-- Generator: Sketch 54.1 (76490) - https://sketchapp.com -->
    <title>send</title>
    <desc>Created with Sketch.</desc>
    <g id="send" stroke="none" stroke-width="1" fill="none" fill-rule="evenodd">
        <path d="M124.830373,-50.0029586 C102.831032,-50.0029586 84.9970414,-32.1689678 84.9970414,-10.1696253 L84.9970414,109.330375 C85.0236051,126.238544 95.7217091,141.287629 111.682263,146.868631 C115.904693,148.367692 120.349782,149.143607 124.830373,149.163708 C124.973005,149.164474 125.115639,149.164474 125.258271,149.163708 L363.830364,188.997041 L125.258271,228.869272 C125.115709,228.855537 124.973075,228.842571 124.830373,228.830375 C120.336714,228.846096 115.878108,229.622075 111.643362,231.125452 C95.6981571,236.71962 85.0178062,251.765665 84.9970414,268.663708 L84.9970414,388.163708 C84.9970414,410.163051 102.831032,427.997041 124.830373,427.997041 C131.765624,427.983926 138.577279,426.160333 144.59144,422.706677 L144.630339,422.706677 L550.860306,207.357718 L550.899203,207.279924 C558.224886,204.153002 562.983082,196.962158 562.997024,188.997041 C563.007625,180.994299 558.227238,173.762431 550.860306,170.636364 L144.630339,-44.712594 C138.604737,-48.1727985 131.778816,-49.9966203 124.830373,-50.0029586 Z" id="Path" fill="#282828" transform="translate(323.997041, 188.997041) rotate(-45.000000) translate(-323.997041, -188.997041) "></path>
    </g>
</svg>