<?xml version="1.0" encoding="UTF-8"?>
<svg width="512px" height="512px" viewBox="0 0 512 512" version="1.1" xmlns="http://www.w3.org/2000/svg" xmlns:xlink="http://www.w3.org/1999/xlink">
    <!-- Generator: Sketch 54.1 (76490) - https://sketchapp.com -->
    <title>share</title>
    <desc>Created with Sketch.</desc>
    <g id="share" stroke="none" stroke-width="1" fill="none" fill-rule="evenodd">
        <path d="M425.333333,2 C378.573225,2 340.666667,39.9065578 340.666667,86.6666667 C340.704404,92.6180212 341.369539,98.5488102 342.651042,104.360677 L150.414719,200.478838 C134.373513,182.010755 111.128635,171.383235 86.6666667,171.333333 C39.9065578,171.333333 2,209.239891 2,256 C2,302.760109 39.9065578,340.666667 86.6666667,340.666667 C111.136502,340.639112 134.397733,330.026081 150.456057,311.5625 L342.568365,407.639312 C341.314659,413.454139 340.67724,419.384898 340.666667,425.333333 C340.666667,472.093442 378.573225,510 425.333333,510 C472.093442,510 510,472.093442 510,425.333333 C510,378.573225 472.093442,340.666667 425.333333,340.666667 C400.863498,340.694222 377.602267,351.307252 361.543943,369.770833 L169.431635,273.694021 C170.685341,267.879194 171.32276,261.948435 171.333333,256 C171.292694,250.062476 170.627576,244.145699 169.348958,238.347339 L361.585281,142.229167 C377.634127,160.681883 400.877932,171.29384 425.333333,171.333333 C472.093442,171.333333 510,133.426775 510,86.6666667 C510,39.9065578 472.093442,2 425.333333,2 Z" id="Path" fill="#282828"></path>
    </g>
</svg>