<?xml version="1.0" encoding="UTF-8"?>
<svg width="512px" height="512px" viewBox="0 0 512 512" version="1.1" xmlns="http://www.w3.org/2000/svg" xmlns:xlink="http://www.w3.org/1999/xlink">
    <!-- Generator: Sketch 52.6 (67491) - http://www.bohemiancoding.com/sketch -->
    <title>sort</title>
    <desc>Created with Sketch.</desc>
    <defs>
        <path d="M329 42L343 42C354 42 363 51 363 62L363 363 403 363C421 363 430 385 417 397L350 464C342 472 330 472 322 464L255 397C242 385 251 363 269 363L309 363 309 62C309 51 318 42 329 42ZM203 450L203 149 243 149C261 149 270 127 257 115L190 48C182 40 170 40 162 48L95 115C82 127 91 149 109 149L149 149 149 450C149 461 158 470 169 470L183 470C194 470 203 461 203 450Z" id="path-1"></path>
    </defs>
    <g id="sort" stroke="none" stroke-width="1" fill="none" fill-rule="evenodd">
        <mask id="mask-2" fill="white">
            <use xlink:href="#path-1"></use>
        </mask>
        <use id="Mask" fill="#17191D" xlink:href="#path-1"></use>
    </g>
</svg>
