<?xml version="1.0" encoding="UTF-8"?>
<svg width="512px" height="512px" viewBox="0 0 512 512" version="1.1" xmlns="http://www.w3.org/2000/svg" xmlns:xlink="http://www.w3.org/1999/xlink">
    <!-- Generator: Sketch 52.6 (67491) - http://www.bohemiancoding.com/sketch -->
    <title>sort</title>
    <desc>Created with Sketch.</desc>
    <defs>
        <path d="M329.305607 42L342.687661 42C353.773856 42 362.760741 50.982148 362.760741 62.0625L362.760741 363 402.906903 363C420.777799 363 429.706138 384.649945 417.10108 397.249195L350.190811 464.124195C342.351437 471.958602 329.641831 471.958602 321.803293 464.124195L254.893025 397.249195C242.337313 384.697594 251.141031 363 269.086365 363L309.232527 363 309.232527 62.0625C309.232527 50.982148 318.219412 42 329.305607 42ZM202.758414 449.9375L202.758414 149 242.90298 149C260.72884 149 269.732932 127.380984 257.096593 114.750805L190.188983 47.875805C182.34992 40.041398 169.640819 40.041398 161.802593 47.875805L94.894982 114.750805C82.327224 127.313273 91.159028 149 109.087759 149L149.232325 149 149.232325 449.9375C149.232325 461.017852 158.218854 470 169.304608 470L182.68613 470C193.771885 470 202.758414 461.017852 202.758414 449.9375Z" id="path-1"></path>
    </defs>
    <g id="sort" stroke="none" stroke-width="1" fill="none" fill-rule="evenodd">
        <mask id="mask-2" fill="white">
            <use xlink:href="#path-1"></use>
        </mask>
        <use id="Mask" fill="#17191D" xlink:href="#path-1"></use>
    </g>
</svg>
