<?xml version="1.0" encoding="UTF-8"?>
<svg width="512px" height="512px" viewBox="0 0 512 512" version="1.1" xmlns="http://www.w3.org/2000/svg" xmlns:xlink="http://www.w3.org/1999/xlink">
    <!-- Generator: Sketch 54.1 (76490) - https://sketchapp.com -->
    <title>sort</title>
    <desc>Created with Sketch.</desc>
    <g id="sort" stroke="none" stroke-width="1" fill="none" fill-rule="evenodd">
        <path d="M106.514027,21.0019869 C99.9613258,21.1085015 93.8220681,24.224882 89.8674939,29.4520203 L6.55159628,112.786827 C0.985316985,118.132358 -1.25688441,126.070109 0.689723592,133.538793 C2.6363316,141.007476 8.46757371,146.840041 15.9345624,148.787091 C23.401551,150.734141 31.337501,148.491431 36.6818192,142.923888 L85.5393953,94.0552266 L85.5393953,298.354541 C85.4307205,306.040558 89.4679834,313.189704 96.105237,317.064434 C102.742491,320.939163 110.951425,320.939163 117.588679,317.064434 C124.225932,313.189704 128.263195,306.040558 128.15452,298.354541 L128.15452,94.0552266 L177.012101,142.923888 C182.356405,148.491492 190.292386,150.73425 197.759413,148.787207 C205.22644,146.840165 211.057711,141.007569 213.00431,133.538847 C214.950908,126.070124 212.708658,118.132343 207.142315,112.786827 L123.701572,29.3271424 C119.605786,23.9959917 113.235287,20.9103041 106.514027,21.0019869 Z M405.152833,21.2933679 C393.384991,21.2933679 383.84527,30.8352535 383.84527,42.6057659 C383.84527,54.3762782 393.384991,63.9181638 405.152833,63.9181638 C416.920675,63.9181638 426.460395,54.3762782 426.460395,42.6057659 C426.460395,30.8352535 416.920675,21.2933679 405.152833,21.2933679 Z M405.152833,106.54296 C393.384991,106.54296 383.84527,116.084845 383.84527,127.855358 C383.84527,139.62587 393.384991,149.167756 405.152833,149.167756 C416.920675,149.167756 426.460395,139.62587 426.460395,127.855358 C426.460395,116.084845 416.920675,106.54296 405.152833,106.54296 Z M404.819902,191.501169 C393.068436,191.684904 383.68434,201.350483 383.84527,213.10495 L383.84527,417.404275 L334.98769,368.535607 C330.976094,364.410955 325.467575,362.083936 319.714493,362.083598 C311.043954,362.085879 303.239296,367.342554 299.976642,375.377642 C296.713989,383.412729 298.643947,392.623948 304.857476,398.672659 L388.214983,482.049105 C392.234448,487.32459 398.480196,490.427775 405.111482,490.444091 C411.742769,490.460407 418.003704,487.387994 422.049069,482.132351 C422.076958,482.090825 422.104701,482.049202 422.132297,482.007481 L505.44819,398.672659 C511.014595,393.327157 513.256893,385.389345 511.310301,377.920585 C509.36371,370.451824 503.532408,364.619199 496.065342,362.672166 C488.598276,360.725133 480.662265,362.967939 475.317976,368.535607 L426.460395,417.404275 L426.460395,213.10495 C426.539264,207.344201 424.283259,201.796876 420.20642,197.726952 C416.12958,193.657029 410.579181,191.411193 404.819902,191.501169 Z M106.846958,362.291735 C95.0791159,362.291735 85.5393953,371.833621 85.5393953,383.604133 C85.5393953,395.374646 95.0791159,404.916531 106.846958,404.916531 C118.6148,404.916531 128.15452,395.374646 128.15452,383.604133 C128.15452,371.833621 118.6148,362.291735 106.846958,362.291735 Z M106.846958,447.541327 C95.0791159,447.541327 85.5393953,457.083213 85.5393953,468.853725 C85.5393953,480.624237 95.0791159,490.166123 106.846958,490.166123 C118.6148,490.166123 128.15452,480.624237 128.15452,468.853725 C128.15452,457.083213 118.6148,447.541327 106.846958,447.541327 Z" id="Shape" fill="#282828"></path>
    </g>
</svg>