<svg width="40" height="40" viewBox="0 0 40 40" fill="none" xmlns="http://www.w3.org/2000/svg">
<path d="M7.66667 4.99995C6.19333 4.99995 5 6.19329 5 7.66662V10.3333C5 11.8066 6.19333 13 7.66667 13H31.6667C33.14 13 34.3333 11.8066 34.3333 10.3333V7.66662C34.3333 6.19329 33.14 4.99995 31.6667 4.99995H7.66667ZM9 7.66662C9.736 7.66662 10.3333 8.26395 10.3333 8.99995C10.3333 9.73595 9.736 10.3333 9 10.3333C8.264 10.3333 7.66667 9.73595 7.66667 8.99995C7.66667 8.26395 8.264 7.66662 9 7.66662ZM7.66667 15.6666C6.19333 15.6666 5 16.86 5 18.3333V21C5 22.4733 6.19333 23.6666 7.66667 23.6666H31.6667C33.14 23.6666 34.3333 22.4733 34.3333 21V18.3333C34.3333 16.86 33.14 15.6666 31.6667 15.6666H7.66667ZM9 18.3333C9.736 18.3333 10.3333 18.9306 10.3333 19.6666C10.3333 20.4026 9.736 21 9 21C8.264 21 7.66667 20.4026 7.66667 19.6666C7.66667 18.9306 8.264 18.3333 9 18.3333ZM7.66667 26.3333C6.19333 26.3333 5 27.5266 5 29V31.6666C5 33.14 6.19333 34.3333 7.66667 34.3333H31.6667C33.14 34.3333 34.3333 33.14 34.3333 31.6666V29C34.3333 27.5266 33.14 26.3333 31.6667 26.3333H7.66667ZM9 29C9.736 29 10.3333 29.5973 10.3333 30.3333C10.3333 31.0693 9.736 31.6666 9 31.6666C8.264 31.6666 7.66667 31.0693 7.66667 30.3333C7.66667 29.5973 8.264 29 9 29Z" fill="#282828"/>
</svg>
