<?xml version="1.0" encoding="UTF-8"?>
<svg width="512px" height="512px" viewBox="0 0 512 512" version="1.1" xmlns="http://www.w3.org/2000/svg" xmlns:xlink="http://www.w3.org/1999/xlink">
    <!-- Generator: Sketch 54.1 (76490) - https://sketchapp.com -->
    <title>star</title>
    <desc>Created with Sketch.</desc>
    <g id="star" stroke="none" stroke-width="1" fill="none" fill-rule="evenodd">
        <path d="M336.255666,167.170795 L474.329658,168.773852 C510.739996,169.198973 525.787189,215.628808 496.627905,237.371387 L385.796343,320.093711 L426.975292,452.386665 C437.778001,487.147182 398.354272,515.860137 368.624335,494.739973 L256.005138,414.645102 L143.377524,494.719618 C113.671464,515.856311 74.2107419,487.111196 85.0255357,452.358947 L126.201252,320.076388 L15.3787459,237.360821 C-13.7895942,215.611486 1.25759808,169.181651 37.669519,168.756511 L175.74193,167.153473 L219.953359,35.8871704 C231.619649,1.35553055 280.431263,1.37137539 292.053562,35.932152 L336.255666,167.170795 Z M255.99588,79.8198531 L215.945204,198.732665 C212.677156,208.435689 203.632891,215.01292 193.394987,215.131783 L68.0948891,216.586533 L168.676871,291.658789 C176.86121,297.767405 180.304375,308.372794 177.269112,318.123988 L139.940411,438.047491 L242.04858,365.451952 C250.407128,359.5093 261.611712,359.51017 269.969337,365.45412 L372.054895,438.057462 L334.728482,318.14131 C331.693219,308.390116 335.136385,297.784727 343.320723,291.676111 L443.902709,216.603855 L318.602607,215.149105 C308.364703,215.030242 299.320438,208.453011 296.052391,198.749987 L255.99588,79.8198531 Z" id="Path" fill="#282828"></path>
    </g>
</svg>