<?xml version="1.0" encoding="UTF-8"?>
<svg width="512px" height="512px" viewBox="0 0 512 512" version="1.1" xmlns="http://www.w3.org/2000/svg" xmlns:xlink="http://www.w3.org/1999/xlink">
    <!-- Generator: Sketch 52.6 (67491) - http://www.bohemiancoding.com/sketch -->
    <title>success</title>
    <desc>Created with Sketch.</desc>
    <defs>
        <path d="M499,256 C499,392.967 387.967,504 251,504 C114.033,504 3,392.967 3,256 C3,119.033 114.033,8 251,8 C387.967,8 499,119.033 499,256 Z M222.314,387.314 L406.314,203.314 C412.562,197.066 412.562,186.935 406.314,180.687 L383.687,158.06 C377.439,151.811 367.308,151.811 361.059,158.06 L211,308.118 L140.941,238.059 C134.693,231.811 124.562,231.811 118.313,238.059 L95.686,260.686 C89.438,266.934 89.438,277.065 95.686,283.313 L199.686,387.313 C205.935,393.562 216.065,393.562 222.314,387.314 Z" id="path-1"></path>
    </defs>
    <g id="success" stroke="none" stroke-width="1" fill="none" fill-rule="evenodd">
        <mask id="mask-2" fill="white">
            <use xlink:href="#path-1"></use>
        </mask>
        <use id="Mask" fill="#17191D" xlink:href="#path-1"></use>
    </g>
</svg>