<?xml version="1.0" encoding="UTF-8"?>
<svg width="512px" height="512px" viewBox="0 0 512 512" version="1.1" xmlns="http://www.w3.org/2000/svg" xmlns:xlink="http://www.w3.org/1999/xlink">
    <!-- Generator: Sketch 54.1 (76490) - https://sketchapp.com -->
    <title>success</title>
    <desc>Created with Sketch.</desc>
    <g id="success" stroke="none" stroke-width="1" fill="none" fill-rule="evenodd">
        <path d="M256,512 C397.384896,512 512,397.384896 512,256 C512,114.615104 397.384896,0 256,0 C114.615104,0 0,114.615104 0,256 C0,397.384896 114.615104,512 256,512 Z M404.748158,184.761559 L237.859412,351.475388 C233.709268,355.621182 228.10216,357.936652 222.252224,357.936652 C216.402287,357.936652 210.773104,355.621182 206.645035,351.475388 L130.419263,275.329508 C121.787848,266.70714 121.787848,252.770216 130.419263,244.147848 C139.050678,235.525479 153.002224,235.525479 161.633639,244.147848 L222.252224,304.702897 L373.533781,153.579899 C382.165197,144.95753 396.116743,144.95753 404.748158,153.579899 C413.379573,162.202267 413.379573,176.139191 404.748158,184.761559 Z" id="Shape" fill="#282828"></path>
    </g>
</svg>