<svg width="40" height="40" viewBox="0 0 40 40" fill="none" xmlns="http://www.w3.org/2000/svg">
<g id="tag">
<path id="Vector" d="M20.7618 4C19.9816 4 19.2013 4.29705 18.607 4.89287L4.89258 18.6073C3.70247 19.7974 3.70247 21.7267 4.89258 22.9168L17.0832 35.1074C18.2733 36.2975 20.2026 36.2975 21.3927 35.1074L35.1071 21.393C35.7029 20.7987 36 20.0184 36 19.2382V8.57147C36 5.20534 34.7949 4 31.4288 4H20.7618ZM29.9047 7.04765C31.5885 7.04765 32.9524 8.41147 32.9524 10.0953C32.9524 11.7791 31.5885 13.1429 29.9047 13.1429C28.2209 13.1429 26.8571 11.7791 26.8571 10.0953C26.8571 8.41147 28.2209 7.04765 29.9047 7.04765Z" fill="#282828"/>
</g>
</svg>
