<?xml version="1.0" encoding="UTF-8"?>
<svg width="512px" height="512px" viewBox="0 0 512 512" version="1.1" xmlns="http://www.w3.org/2000/svg" xmlns:xlink="http://www.w3.org/1999/xlink">
    <!-- Generator: Sketch 54.1 (76490) - https://sketchapp.com -->
    <title>tag</title>
    <desc>Created with Sketch.</desc>
    <g id="tag" stroke="none" stroke-width="1" fill="none" fill-rule="evenodd">
        <path d="M324.237648,192.451175 C307.445104,175.658631 307.445104,148.432537 324.237648,131.639992 C341.030193,114.847448 368.256287,114.847448 385.048832,131.639992 C401.841376,148.432537 401.841376,175.658631 385.048832,192.451175 C368.256287,209.24372 341.030193,209.24372 324.237648,192.451175 Z M498,224.737815 C498,231.106446 495.468713,237.213945 490.963551,241.715386 L238.492869,493.977572 C229.121892,503.340809 213.936743,503.340809 204.565767,493.977572 L22.036449,311.598992 C12.654517,302.224808 12.654517,287.018033 22.036449,277.643849 L280.871622,19.0224284 C285.371924,14.5258431 291.473413,12 297.835173,12 L474,12 C487.254834,12 498,22.745166 498,36 L498,224.737815 Z M450,214.790881 L450,60 L307.770492,60 L72.9551547,294.62142 L221.529318,443.072886 L450,214.790881 Z" id="Combined-Shape" fill="#282828"></path>
    </g>
</svg>