<?xml version="1.0" encoding="UTF-8"?>
<svg width="512px" height="512px" viewBox="0 0 512 512" version="1.1" xmlns="http://www.w3.org/2000/svg" xmlns:xlink="http://www.w3.org/1999/xlink">
    <!-- Generator: Sketch 54.1 (76490) - https://sketchapp.com -->
    <title>tag</title>
    <desc>Created with Sketch.</desc>
    <g id="tag" stroke="none" stroke-width="1" fill="none" fill-rule="evenodd">
        <path d="M145.671665,76.4691891 L287.409748,-46.5394532 C293.872194,-52.1479436 303.47852,-52.1502833 309.9437,-46.5449416 L451.827238,76.4687586 C455.590807,79.7317908 457.752615,84.4663685 457.752615,89.4459328 L457.752615,459.072997 C457.752615,468.561038 450.056753,476.252615 440.563426,476.252615 L156.941804,476.252615 C147.448477,476.252615 139.752615,468.561038 139.752615,459.072997 L139.752615,89.4408749 C139.752615,84.4642335 141.911896,79.7321378 145.671665,76.4691891 Z M191.320183,105.110448 L191.320183,424.713762 L406.185047,424.713762 L406.185047,105.125621 L298.690981,11.9277561 L191.320183,105.110448 Z M298.399062,171.960461 C274.650817,171.960461 255.399062,152.708706 255.399062,128.960461 C255.399062,105.212217 274.650817,85.9604615 298.399062,85.9604615 C322.147306,85.9604615 341.399062,105.212217 341.399062,128.960461 C341.399062,152.708706 322.147306,171.960461 298.399062,171.960461 Z" id="Combined-Shape" fill="#282828" transform="translate(298.752615, 212.752615) rotate(-315.000000) translate(-298.752615, -212.752615) "></path>
    </g>
</svg>