<svg width="40" height="40" viewBox="0 0 40 40" fill="none" xmlns="http://www.w3.org/2000/svg">
<g id="thumbs-up">
<path id="Path" fill-rule="evenodd" clip-rule="evenodd" d="M23.7396 6.36344C23.7396 9.67719 21.5669 11.5359 20.9556 13.75H29.4657C32.2596 13.75 34.4347 15.9177 34.4478 18.2889C34.4548 19.6903 33.8165 21.199 32.8216 22.1324L32.8123 22.141C33.6352 23.9642 33.5014 26.5189 32.0337 28.3495C32.7599 30.3726 32.0279 32.8577 30.6632 34.1899C31.0227 35.5648 30.8509 36.7348 30.1488 37.6768C28.4413 39.9677 24.2094 40 20.6307 40L20.3927 39.9999C16.3531 39.9986 13.047 38.6251 10.3905 37.5214C9.05552 36.9668 7.31007 36.2802 5.98575 36.2575C5.43862 36.2481 5 35.8312 5 35.3202V18.6194C5 18.3694 5.10725 18.1295 5.29766 17.9537C8.61172 14.8955 10.0368 11.6578 12.7531 9.11687C13.9916 7.95812 14.442 6.20781 14.8774 4.51516C15.2495 3.06977 16.0276 0 17.7161 0C19.7239 0 23.7396 0.625 23.7396 6.36344Z" fill="#282828"/>
</g>
</svg>
