<?xml version="1.0" encoding="UTF-8"?>
<svg width="512px" height="512px" viewBox="0 0 512 512" version="1.1" xmlns="http://www.w3.org/2000/svg" xmlns:xlink="http://www.w3.org/1999/xlink">
    <!-- Generator: Sketch 54.1 (76490) - https://sketchapp.com -->
    <title>thumbs-up</title>
    <desc>Created with Sketch.</desc>
    <g id="thumbs-up" stroke="none" stroke-width="1" fill="none" fill-rule="evenodd">
        <path d="M175.5,0 L165.209963,71.6196099 L116.722656,161.99578 C102.434156,188.610216 74.6886875,205.2 44.4921875,205.2 L32,205.2 L32,471.96 L73,471.96 C99.2605,498.24612 134.851063,513 171.976562,513 L380.5,513 C403.143675,513 421.5,494.625766 421.5,471.96 L421.5,450.317802 C445.330054,445.448803 462.45935,424.485134 462.5,400.14 C462.478881,387.591457 457.863585,375.485865 449.527354,366.113674 C469.623009,358.674305 482.974444,339.506848 483,318.06 C482.981111,301.898834 475.355156,286.691445 462.419927,277.02 C475.355156,267.348555 482.981111,252.141166 483,235.98 C483,207.647792 460.054593,184.68 431.75,184.68 L237,184.68 C237,184.68 257.5,117.66168 257.5,102.6 C257.5,56.40948 257.5,0 196,0 L175.5,0 Z" id="Path" fill="#282828"></path>
    </g>
</svg>