<?xml version="1.0" encoding="UTF-8"?>
<svg width="512px" height="512px" viewBox="0 0 512 512" version="1.1" xmlns="http://www.w3.org/2000/svg" xmlns:xlink="http://www.w3.org/1999/xlink">
    <!-- Generator: Sketch 53.2 (72643) - https://sketchapp.com -->
    <title>thumbs-up</title>
    <desc>Created with Sketch.</desc>
    <g id="thumbs-up" stroke="none" stroke-width="1" fill="none" fill-rule="evenodd">
        <path d="M304.44054,93.6884995 C304.44054,133.249626 278.502795,155.440269 271.20487,181.872803 L372.80153,181.872803 C406.15705,181.872803 432.124758,207.751316 432.280564,236.060429 C432.36446,252.791084 424.743936,270.802328 412.865708,281.94615 L412.755844,282.048746 C422.579628,303.815014 420.982614,334.314091 403.459405,356.168964 C412.129623,380.321062 403.390491,409.989109 387.097751,425.894331 C391.390413,442.307871 389.338964,456.276821 380.957387,467.522306 C360.572737,494.87261 310.049565,495.257812 267.325694,495.257812 L264.484228,495.25688 C216.257201,495.241024 176.787284,478.84334 145.072722,465.667179 C129.135541,459.045988 108.297454,450.849478 92.4871154,450.578064 C85.9552381,450.466141 80.71875,445.488356 80.71875,439.387608 L80.71875,240.005722 C80.71875,237.021103 81.9991577,234.156801 84.2723309,232.058241 C123.83713,195.548887 140.849974,156.895271 173.278647,126.560349 C188.06426,112.726639 193.441573,91.830574 198.640109,71.6228371 C203.081585,54.367075 212.372032,17.71875 232.529965,17.71875 C256.500157,17.71875 304.44054,25.1802979 304.44054,93.6884995 Z" id="Path" fill="#000000"></path>
    </g>
</svg>