<?xml version="1.0" encoding="UTF-8"?>
<svg width="512px" height="512px" viewBox="0 0 512 512" version="1.1" xmlns="http://www.w3.org/2000/svg" xmlns:xlink="http://www.w3.org/1999/xlink">
    <!-- Generator: Sketch 54.1 (76490) - https://sketchapp.com -->
    <title>timer</title>
    <desc>Created with Sketch.</desc>
    <g id="timer" stroke="none" stroke-width="1" fill="none" fill-rule="evenodd">
        <path d="M183.285714,0 L183.285714,48.7619048 L329.571429,48.7619048 L329.571429,0 L183.285714,0 Z M256.428571,73.1428571 C135.07352,73.1428571 37,171.216377 37,292.571429 C37,413.926473 135.07352,512 256.428571,512 C377.783616,512 475.857143,413.926473 475.857143,292.571429 C475.857143,238.968101 456.680866,189.930296 424.85714,151.857142 L461.5238,108.190476 L424.190467,76.8095232 L389.380952,118.190475 C352.485769,90.0400226 306.511485,73.1428571 256.428571,73.1428571 Z M256.428571,121.904762 C351.771432,121.904762 427.095238,197.228576 427.095238,292.571429 C427.095238,387.914289 351.771432,463.238095 256.428571,463.238095 C161.085719,463.238095 85.7619048,387.914289 85.7619048,292.571429 C85.7619048,197.228576 161.085719,121.904762 256.428571,121.904762 Z M232.047619,170.666667 L232.047619,250.428562 C216.987266,259.123625 207.697418,275.181276 207.666667,292.571429 C207.666667,319.501885 229.498115,341.333333 256.428571,341.333333 C283.359028,341.333333 305.190476,319.501885 305.190476,292.571429 C305.176706,275.164258 295.884584,259.084529 280.809524,250.380946 L280.809524,170.666667 L232.047619,170.666667 Z" id="Shape" fill="#282828"></path>
    </g>
</svg>