<?xml version="1.0" encoding="UTF-8"?>
<svg width="512px" height="512px" viewBox="0 0 512 512" version="1.1" xmlns="http://www.w3.org/2000/svg" xmlns:xlink="http://www.w3.org/1999/xlink">
    <!-- Generator: Sketch 53.2 (72643) - https://sketchapp.com -->
    <title>twitter</title>
    <desc>Created with Sketch.</desc>
    <g id="twitter" stroke="none" stroke-width="1" fill="none" fill-rule="evenodd">
        <path d="M178.82368,425.0352 C335.80544,425.0352 421.66784,294.97913 421.66784,182.195093 C421.66784,178.501074 421.66784,174.823696 421.41824,171.162957 C438.121994,159.081035 452.540955,144.121401 464,126.984494 C448.422948,133.88668 431.898599,138.413132 414.97856,140.41275 C432.79574,129.746389 446.130695,112.970054 452.50176,93.2058578 C435.747901,103.147348 417.418751,110.153615 398.30528,113.922312 C371.849057,85.7911023 329.81037,78.9058898 295.7621,97.1275063 C261.71383,115.349123 244.123616,154.145941 252.85504,191.762933 C184.229945,188.322663 120.292077,155.909711 76.9536,102.590661 C54.3002827,141.588259 65.8711584,191.47772 103.37792,216.52284 C89.7953736,216.120284 76.5089687,212.456311 64.64,205.840138 C64.64,206.189572 64.64,206.555646 64.64,206.92172 C64.6511177,247.549149 93.2899448,282.541523 133.1136,290.586244 C120.54823,294.013029 107.364541,294.513955 94.57536,292.050539 C105.756574,326.817955 137.799001,350.635405 174.31424,351.32123 C144.091591,375.073301 106.75683,387.967352 68.31744,387.928619 C61.5267154,387.915583 54.7425956,387.504431 48,386.69728 C87.0313822,411.744664 132.446559,425.03049 178.82368,424.968641" id="Path" fill="#000000"></path>
    </g>
</svg>