<?xml version="1.0" encoding="UTF-8"?>
<svg width="512px" height="512px" viewBox="0 0 512 512" version="1.1" xmlns="http://www.w3.org/2000/svg" xmlns:xlink="http://www.w3.org/1999/xlink">
    <!-- Generator: Sketch 54.1 (76490) - https://sketchapp.com -->
    <title>twitter</title>
    <desc>Created with Sketch.</desc>
    <g id="twitter" stroke="none" stroke-width="1" fill="none" fill-rule="evenodd">
        <path d="M512,97.9216865 C493.155186,106.235048 472.912273,111.829451 451.66509,114.352801 C473.365178,101.44264 490.004538,81.001551 497.841775,56.6287316 C477.559478,68.5804111 455.071728,77.2654286 431.126803,81.9600327 C411.966924,61.675431 384.674436,49 354.467597,49 C296.45629,49 249.432868,95.7308712 249.432868,153.337575 C249.432868,161.514011 250.378062,169.494838 252.150302,177.104008 C164.857659,172.761499 87.4698665,131.214254 35.6417061,68.071829 C26.622976,83.485779 21.4440983,101.403518 21.4440983,120.55359 C21.4440983,156.741163 39.9738472,188.684032 68.1524557,207.384204 C50.9420407,206.836501 34.7358948,202.141897 20.5776701,194.337117 C20.5776701,194.787017 20.5776701,195.197795 20.5776701,195.647694 C20.5776701,246.212492 56.7707396,288.385685 104.837814,297.950941 C96.0356909,300.337365 86.7412792,301.60882 77.1514942,301.60882 C70.3972924,301.60882 63.8006231,300.943751 57.4008692,299.750539 C70.7714319,341.199981 109.563786,371.382373 155.523864,372.223489 C119.586785,400.215066 74.2962194,416.900471 25.0673436,416.900471 C16.5999769,416.900471 8.23106804,416.41145 0,415.433408 C46.4917503,445.028974 101.687166,462.301205 161.017807,462.301205 C354.231299,462.301205 459.856775,303.310614 459.856775,165.426181 C459.856775,160.907624 459.758317,156.408629 459.561401,151.929194 C480.099688,137.199874 497.920542,118.832235 512,97.9216865 Z" id="Path" fill="#282828"></path>
    </g>
</svg>