<?xml version="1.0" encoding="UTF-8"?>
<svg width="512px" height="512px" viewBox="0 0 512 512" version="1.1" xmlns="http://www.w3.org/2000/svg" xmlns:xlink="http://www.w3.org/1999/xlink">
    <!-- Generator: Sketch 54.1 (76490) - https://sketchapp.com -->
    <title>upload</title>
    <desc>Created with Sketch.</desc>
    <g id="upload" stroke="none" stroke-width="1" fill="none" fill-rule="evenodd">
        <path d="M31.099446,296.011645 C19.8394157,296.187619 10.8477539,305.444915 11.001954,316.702862 L11.001954,439.175715 C11.001954,461.487473 29.5184372,480 51.8349536,480 L460.16495,480 C482.48147,480 500.99795,461.487473 500.99795,439.175715 L500.99795,316.702862 C501.10208,309.34151 497.233651,302.49435 490.873962,298.783293 C484.514272,295.072236 476.648628,295.072236 470.288938,298.783293 C463.929248,302.49435 460.06082,309.34151 460.16495,316.702862 L460.16495,439.175715 L51.8349536,439.175715 L51.8349536,316.702862 C51.9105245,311.185453 49.7488636,305.872452 45.8425136,301.974446 C41.9361636,298.076439 36.617877,295.92547 31.099446,296.011645 L31.099446,296.011645 Z" id="Shape" fill="#282828"></path>
        <path d="M255.514027,33.0019869 C248.961326,33.1085015 242.822068,36.224882 238.867494,41.4520203 L155.551596,124.786827 C149.985317,130.132358 147.743116,138.070109 149.689724,145.538793 C151.636332,153.007476 157.467574,158.840041 164.934562,160.787091 C172.401551,162.734141 180.337501,160.491431 185.681819,154.923888 L234.539395,106.055227 L234.539395,310.354541 C234.430721,318.040558 238.467983,325.189704 245.105237,329.064434 C251.742491,332.939163 259.951425,332.939163 266.588679,329.064434 C273.225932,325.189704 277.263195,318.040558 277.15452,310.354541 L277.15452,106.055227 L326.012101,154.923888 C331.356405,160.491492 339.292386,162.73425 346.759413,160.787207 C354.22644,158.840165 360.057711,153.007569 362.00431,145.538847 C363.950908,138.070124 361.708658,130.132343 356.142315,124.786827 L272.701572,41.3271424 C268.605786,35.9959917 262.235287,32.9103041 255.514027,33.0019869 Z" id="Shape" fill="#282828"></path>
    </g>
</svg>