<?xml version="1.0" encoding="UTF-8"?>
<svg width="512px" height="512px" viewBox="0 0 512 512" version="1.1" xmlns="http://www.w3.org/2000/svg" xmlns:xlink="http://www.w3.org/1999/xlink">
    <!-- Generator: Sketch 54.1 (76490) - https://sketchapp.com -->
    <title>user</title>
    <desc>Created with Sketch.</desc>
    <g id="user" stroke="none" stroke-width="1" fill="none" fill-rule="evenodd">
        <g id="Group" transform="translate(0.000000, 9.000000)" fill="#282828">
            <path d="M254.887943,322 C343.805787,322 415.887943,249.917845 415.887943,161 C415.887943,72.0821553 343.805787,0 254.887943,0 C165.970098,0 93.8879426,72.0821553 93.8879426,161 C93.8879426,249.917845 165.970098,322 254.887943,322 Z M254.887943,274 C192.479766,274 141.887943,223.408177 141.887943,161 C141.887943,98.5918233 192.479766,48 254.887943,48 C317.296119,48 367.887943,98.5918233 367.887943,161 C367.887943,223.408177 317.296119,274 254.887943,274 Z" id="Oval"></path>
            <path d="M504.756107,454.68916 C463.296557,402.763332 365.154649,370.015067 255.140456,370.015067 C144.806124,370.015067 46.4313564,402.950834 5.17480131,455.129663 C-3.04618059,465.52707 -1.28183912,480.620257 9.11556829,488.841239 C19.5129757,497.062221 34.6061624,495.297879 42.8271443,484.900472 C73.2743354,446.392681 158.034506,418.015067 255.140456,418.015067 C351.994524,418.015067 436.589029,446.242797 467.245839,484.63878 C475.516198,494.996955 490.617609,496.689464 500.975783,488.419104 C511.333958,480.148745 513.026466,465.047334 504.756107,454.68916 Z" id="Shape"></path>
        </g>
    </g>
</svg>