<?xml version="1.0" encoding="UTF-8"?>
<svg width="512px" height="512px" viewBox="0 0 512 512" version="1.1" xmlns="http://www.w3.org/2000/svg" xmlns:xlink="http://www.w3.org/1999/xlink">
    <!-- Generator: Sketch 53.2 (72643) - https://sketchapp.com -->
    <title>view</title>
    <desc>Created with Sketch.</desc>
    <defs>
        <path d="M480.69204,236.531288 C435.662429,160.08969 351.681425,109 255.999989,109 C160.278623,109 76.3159873,160.125641 31.3079384,236.531288 C24.2306872,248.545214 24.2306872,263.455585 31.3079384,275.469511 C76.3375498,351.91031 160.318554,403 255.999989,403 C351.721355,403 435.683991,351.874359 480.69204,275.468712 C487.76932,263.45508 487.76932,248.54492 480.69204,236.531288 Z M255.999989,364.652174 C195.974882,364.652174 147.389062,316.05669 147.389062,256 C147.389062,195.952098 195.965299,147.347826 255.999989,147.347826 C316.025096,147.347826 364.610917,195.942511 364.610917,256 C364.610917,316.047902 316.03468,364.652174 255.999989,364.652174 Z M339.055405,256 C339.055405,301.887967 301.870537,339.086957 255.999989,339.086957 C210.129442,339.086957 172.944574,301.887967 172.944574,256 C172.944574,241.852848 176.483214,228.534168 182.716363,216.874832 L182.715565,216.900397 C182.715565,235.795489 198.027309,251.11225 216.915229,251.11225 C235.803148,251.11225 251.114893,235.79469 251.114893,216.900397 C251.114893,198.005304 235.803148,182.687745 216.915229,182.687745 L216.889673,182.688543 C228.544584,176.453027 241.858208,172.913043 255.999989,172.913043 C301.870537,172.913043 339.055405,210.112033 339.055405,256 Z" id="path-1"></path>
    </defs>
    <g id="view" stroke="none" stroke-width="1" fill="none" fill-rule="evenodd">
        <mask id="mask-2" fill="white">
            <use xlink:href="#path-1"></use>
        </mask>
        <use id="Mask" fill="#000000" xlink:href="#path-1"></use>
    </g>
</svg>