<?xml version="1.0" encoding="UTF-8"?>
<svg width="512px" height="512px" viewBox="0 0 512 512" version="1.1" xmlns="http://www.w3.org/2000/svg" xmlns:xlink="http://www.w3.org/1999/xlink">
    <!-- Generator: Sketch 54.1 (76490) - https://sketchapp.com -->
    <title>view</title>
    <desc>Created with Sketch.</desc>
    <g id="view" stroke="none" stroke-width="1" fill="none" fill-rule="evenodd">
        <path d="M256,85 C103.794398,85 5.47819742,242.857794 3.70000009,245.73222 C1.30651122,248.759696 0.00258769336,252.510794 0,256.376299 C0.00302768135,259.692416 0.964095953,262.936428 2.76666675,265.714971 C2.78877149,265.748519 2.8109938,265.781989 2.83333325,265.81538 C3.12677171,266.423423 85.6547209,427.752599 256,427.752599 C425.622562,427.752599 508.02903,268.008311 509.033335,266.049686 C509.101267,265.93888 509.167939,265.827301 509.23334,265.714971 C511.035908,262.936428 511.996974,259.692415 512,256.376299 C511.999398,252.526259 510.707779,248.788572 508.333329,245.76569 C508.322234,245.754518 508.311124,245.743361 508.299998,245.73222 C506.521805,242.857794 408.205602,85 256,85 Z M256,136.41289 C321.979733,136.41289 375.466667,190.122222 375.466667,256.376299 C375.466667,322.630377 321.979733,376.339709 256,376.339709 C190.020267,376.339709 136.533333,322.630377 136.533333,256.376299 C136.533333,190.122222 190.020267,136.41289 256,136.41289 Z M256,204.96341 C227.723021,204.96341 204.8,227.981744 204.8,256.376299 C204.8,284.770854 227.723021,307.789189 256,307.789189 C284.276979,307.789189 307.2,284.770854 307.2,256.376299 C307.2,227.981744 284.276979,204.96341 256,204.96341 Z" id="Shape" fill="#282828"></path>
    </g>
</svg>