<svg width="40" height="40" viewBox="0 0 40 40" fill="none" xmlns="http://www.w3.org/2000/svg">
<g id="workout">
<path id="Vector" d="M30.6666 2.66667L28 5.33334L34.6666 12L37.3333 9.33334L34.9427 6.94271L35.6093 6.27605C35.802 6.08876 35.9336 5.84764 35.9869 5.58428C36.0402 5.32092 36.0126 5.04761 35.9079 4.80016C35.8032 4.55272 35.6262 4.34268 35.4 4.19757C35.1739 4.05247 34.9092 3.97906 34.6406 3.98698C34.2942 3.99731 33.9654 4.14208 33.7239 4.39063L33.0572 5.0573L30.6666 2.66667ZM24 4.00001L21.3333 6.66667L26.3906 11.724L11.7239 26.3906L6.66663 21.3333L3.99996 24L16 36L18.6666 33.3333L13.6093 28.276L28.276 13.6094L33.3333 18.6667L36 16L24 4.00001ZM5.33329 28L2.66663 30.6667L5.05725 33.0573L4.39058 33.724C4.26262 33.8468 4.16046 33.994 4.09008 34.1568C4.0197 34.3197 3.98251 34.4949 3.98071 34.6723C3.97891 34.8497 4.01251 35.0256 4.07957 35.1899C4.14662 35.3541 4.24577 35.5033 4.3712 35.6288C4.49664 35.7542 4.64585 35.8533 4.81009 35.9204C4.97432 35.9874 5.15029 36.0211 5.32767 36.0193C5.50506 36.0174 5.68031 35.9803 5.84314 35.9099C6.00598 35.8395 6.15314 35.7373 6.276 35.6094L6.94267 34.9427L9.33329 37.3333L12 34.6667L5.33329 28Z" fill="#282828"/>
</g>
</svg>
