<?xml version="1.0" encoding="UTF-8"?>
<svg width="512px" height="512px" viewBox="0 0 512 512" version="1.1" xmlns="http://www.w3.org/2000/svg" xmlns:xlink="http://www.w3.org/1999/xlink">
    <!-- Generator: Sketch 52.6 (67491) - http://www.bohemiancoding.com/sketch -->
    <title>workout</title>
    <desc>Created with Sketch.</desc>
    <g id="workout" stroke="none" stroke-width="1" fill="none" fill-rule="evenodd">
        <path d="M83.2,128.2 L44.8,128.2 C34.16,128.2 25.6,136.76 25.6,147.4 L25.6,230.6 L6.4,230.6 C2.88,230.6 0,233.48 0,237 L0,275.4 C0,278.92 2.88,281.8 6.4,281.8 L25.6,281.8 L25.6,365 C25.6,375.64 34.16,384.2 44.8,384.2 L83.2,384.2 C93.84,384.2 102.4,375.64 102.4,365 L102.4,147.4 C102.4,136.76 93.84,128.2 83.2,128.2 Z M505.6,230.6 L486.4,230.6 L486.4,147.4 C486.4,136.76 477.84,128.2 467.2,128.2 L428.8,128.2 C418.16,128.2 409.6,136.76 409.6,147.4 L409.6,365 C409.6,375.64 418.16,384.2 428.8,384.2 L467.2,384.2 C477.84,384.2 486.4,375.64 486.4,365 L486.4,281.8 L505.6,281.8 C509.12,281.8 512,278.92 512,275.4 L512,237 C512,233.48 509.12,230.6 505.6,230.6 Z M364.8,77 L326.4,77 C315.76,77 307.2,85.56 307.2,96.2 L307.2,230.6 L204.8,230.6 L204.8,96.2 C204.8,85.56 196.24,77 185.6,77 L147.2,77 C136.56,77 128,85.56 128,96.2 L128,416.2 C128,426.84 136.56,435.4 147.2,435.4 L185.6,435.4 C196.24,435.4 204.8,426.84 204.8,416.2 L204.8,281.8 L307.2,281.8 L307.2,416.2 C307.2,426.84 315.76,435.4 326.4,435.4 L364.8,435.4 C375.44,435.4 384,426.84 384,416.2 L384,96.2 C384,85.56 375.44,77 364.8,77 Z" id="Shape" fill="#17191D"></path>
    </g>
</svg>